%TF.GenerationSoftware,KiCad,Pcbnew,9.0.5*%
%TF.CreationDate,2026-04-12T18:24:23-04:00*%
%TF.ProjectId,octov1.1,6f63746f-7631-42e3-912e-6b696361645f,rev?*%
%TF.SameCoordinates,Original*%
%TF.FileFunction,Copper,L2,Bot*%
%TF.FilePolarity,Positive*%
%FSLAX46Y46*%
G04 Gerber Fmt 4.6, Leading zero omitted, Abs format (unit mm)*
G04 Created by KiCad (PCBNEW 9.0.5) date 2026-04-12 18:24:23*
%MOMM*%
%LPD*%
G01*
G04 APERTURE LIST*
G04 Aperture macros list*
%AMRoundRect*
0 Rectangle with rounded corners*
0 $1 Rounding radius*
0 $2 $3 $4 $5 $6 $7 $8 $9 X,Y pos of 4 corners*
0 Add a 4 corners polygon primitive as box body*
4,1,4,$2,$3,$4,$5,$6,$7,$8,$9,$2,$3,0*
0 Add four circle primitives for the rounded corners*
1,1,$1+$1,$2,$3*
1,1,$1+$1,$4,$5*
1,1,$1+$1,$6,$7*
1,1,$1+$1,$8,$9*
0 Add four rect primitives between the rounded corners*
20,1,$1+$1,$2,$3,$4,$5,0*
20,1,$1+$1,$4,$5,$6,$7,0*
20,1,$1+$1,$6,$7,$8,$9,0*
20,1,$1+$1,$8,$9,$2,$3,0*%
G04 Aperture macros list end*
%TA.AperFunction,ComponentPad*%
%ADD10RoundRect,0.250000X-0.550000X-0.550000X0.550000X-0.550000X0.550000X0.550000X-0.550000X0.550000X0*%
%TD*%
%TA.AperFunction,ComponentPad*%
%ADD11C,1.600000*%
%TD*%
%TA.AperFunction,HeatsinkPad*%
%ADD12O,1.000000X2.100000*%
%TD*%
%TA.AperFunction,HeatsinkPad*%
%ADD13O,1.000000X1.600000*%
%TD*%
%TA.AperFunction,ComponentPad*%
%ADD14C,0.600000*%
%TD*%
%TA.AperFunction,ComponentPad*%
%ADD15RoundRect,0.250000X-0.750000X0.600000X-0.750000X-0.600000X0.750000X-0.600000X0.750000X0.600000X0*%
%TD*%
%TA.AperFunction,ComponentPad*%
%ADD16O,2.000000X1.700000*%
%TD*%
%TA.AperFunction,ComponentPad*%
%ADD17RoundRect,0.250000X0.750000X-0.600000X0.750000X0.600000X-0.750000X0.600000X-0.750000X-0.600000X0*%
%TD*%
%TA.AperFunction,ComponentPad*%
%ADD18RoundRect,0.250000X0.725000X-0.600000X0.725000X0.600000X-0.725000X0.600000X-0.725000X-0.600000X0*%
%TD*%
%TA.AperFunction,ComponentPad*%
%ADD19O,1.950000X1.700000*%
%TD*%
%TA.AperFunction,ComponentPad*%
%ADD20RoundRect,0.250000X-0.725000X0.600000X-0.725000X-0.600000X0.725000X-0.600000X0.725000X0.600000X0*%
%TD*%
%TA.AperFunction,ComponentPad*%
%ADD21RoundRect,0.250000X0.600000X0.750000X-0.600000X0.750000X-0.600000X-0.750000X0.600000X-0.750000X0*%
%TD*%
%TA.AperFunction,ComponentPad*%
%ADD22O,1.700000X2.000000*%
%TD*%
%TA.AperFunction,ComponentPad*%
%ADD23RoundRect,0.250000X0.600000X0.725000X-0.600000X0.725000X-0.600000X-0.725000X0.600000X-0.725000X0*%
%TD*%
%TA.AperFunction,ComponentPad*%
%ADD24O,1.700000X1.950000*%
%TD*%
%TA.AperFunction,ViaPad*%
%ADD25C,0.600000*%
%TD*%
%TA.AperFunction,Conductor*%
%ADD26C,0.250000*%
%TD*%
%TA.AperFunction,Conductor*%
%ADD27C,0.600000*%
%TD*%
%TA.AperFunction,Conductor*%
%ADD28C,1.000000*%
%TD*%
%TA.AperFunction,Conductor*%
%ADD29C,0.150000*%
%TD*%
G04 APERTURE END LIST*
D10*
%TO.P,C27,1*%
%TO.N,+5V*%
X80767621Y-69400000D03*
D11*
%TO.P,C27,2*%
%TO.N,GND*%
X83267621Y-69400000D03*
%TD*%
D10*
%TO.P,C24,1*%
%TO.N,+5V*%
X111117621Y-72300000D03*
D11*
%TO.P,C24,2*%
%TO.N,GND*%
X113617621Y-72300000D03*
%TD*%
D12*
%TO.P,J15,S1,SHIELD*%
%TO.N,Net-(J15-SHIELD)*%
X104320000Y-36980000D03*
D13*
X104320000Y-32800000D03*
D12*
X95680000Y-36980000D03*
D13*
X95680000Y-32800000D03*
%TD*%
D14*
%TO.P,U1,61,GND*%
%TO.N,GND*%
X98625000Y-98625000D03*
X98625000Y-100000000D03*
X98625000Y-101375000D03*
X100000000Y-98625000D03*
X100000000Y-100000000D03*
X100000000Y-101375000D03*
X101375000Y-98625000D03*
X101375000Y-100000000D03*
X101375000Y-101375000D03*
%TD*%
D15*
%TO.P,SW3,1,A*%
%TO.N,/Power System/V_BAT*%
X105350000Y-49875000D03*
D16*
%TO.P,SW3,2,B*%
%TO.N,/Power System/V_BAT_SW*%
X105350000Y-52375000D03*
%TD*%
D17*
%TO.P,J1,1,Pin_1*%
%TO.N,/Power System/V_BAT*%
X94450000Y-52350000D03*
D16*
%TO.P,J1,2,Pin_2*%
%TO.N,GND*%
X94450000Y-49850000D03*
%TD*%
D18*
%TO.P,J16,1,Pin_1*%
%TO.N,GND*%
X75450000Y-99250000D03*
D19*
%TO.P,J16,2,Pin_2*%
%TO.N,+5V*%
X75450000Y-96750000D03*
%TO.P,J16,3,Pin_3*%
%TO.N,/IO/SERVO1*%
X75450000Y-94250000D03*
%TD*%
D18*
%TO.P,J2,1,Pin_1*%
%TO.N,GND*%
X75450000Y-75600000D03*
D19*
%TO.P,J2,2,Pin_2*%
%TO.N,+5V*%
X75450000Y-73100000D03*
%TO.P,J2,3,Pin_3*%
%TO.N,/IO/SERVO0*%
X75450000Y-70600000D03*
%TD*%
D20*
%TO.P,J14,1,Pin_1*%
%TO.N,GND*%
X124550000Y-93050000D03*
D19*
%TO.P,J14,2,Pin_2*%
%TO.N,+5V*%
X124550000Y-95550000D03*
%TO.P,J14,3,Pin_3*%
%TO.N,/IO/SERVO5*%
X124550000Y-98050000D03*
%TD*%
D21*
%TO.P,J9,1,Pin_1*%
%TO.N,GND*%
X114300000Y-121050000D03*
D22*
%TO.P,J9,2,Pin_2*%
%TO.N,/IO/SWITCH3*%
X111800000Y-121050000D03*
%TD*%
D17*
%TO.P,J5,1,Pin_1*%
%TO.N,GND*%
X75450000Y-107950000D03*
D16*
%TO.P,J5,2,Pin_2*%
%TO.N,/IO/SWITCH1*%
X75450000Y-105450000D03*
%TD*%
D20*
%TO.P,J6,1,Pin_1*%
%TO.N,GND*%
X124500000Y-69000000D03*
D19*
%TO.P,J6,2,Pin_2*%
%TO.N,+5V*%
X124500000Y-71500000D03*
%TO.P,J6,3,Pin_3*%
%TO.N,/IO/LID_SERVO*%
X124500000Y-74000000D03*
%TD*%
D17*
%TO.P,J3,1,Pin_1*%
%TO.N,GND*%
X75435000Y-84410000D03*
D16*
%TO.P,J3,2,Pin_2*%
%TO.N,/IO/SWITCH0*%
X75435000Y-81910000D03*
%TD*%
D21*
%TO.P,J7,1,Pin_1*%
%TO.N,GND*%
X87500000Y-121050000D03*
D22*
%TO.P,J7,2,Pin_2*%
%TO.N,/IO/SWITCH2*%
X85000000Y-121050000D03*
%TD*%
D23*
%TO.P,J8,1,Pin_1*%
%TO.N,GND*%
X78850000Y-121050000D03*
D24*
%TO.P,J8,2,Pin_2*%
%TO.N,+5V*%
X76350000Y-121050000D03*
%TO.P,J8,3,Pin_3*%
%TO.N,/IO/SERVO2*%
X73850000Y-121050000D03*
%TD*%
D20*
%TO.P,J12,1,Pin_1*%
%TO.N,GND*%
X124550000Y-116150000D03*
D19*
%TO.P,J12,2,Pin_2*%
%TO.N,+5V*%
X124550000Y-118650000D03*
%TO.P,J12,3,Pin_3*%
%TO.N,/IO/SERVO4*%
X124550000Y-121150000D03*
%TD*%
D15*
%TO.P,J13,1,Pin_1*%
%TO.N,GND*%
X124550000Y-84350000D03*
D16*
%TO.P,J13,2,Pin_2*%
%TO.N,/IO/SWITCH5*%
X124550000Y-86850000D03*
%TD*%
D23*
%TO.P,J10,1,Pin_1*%
%TO.N,GND*%
X105550000Y-121050000D03*
D24*
%TO.P,J10,2,Pin_2*%
%TO.N,+5V*%
X103050000Y-121050000D03*
%TO.P,J10,3,Pin_3*%
%TO.N,/IO/SERVO3*%
X100550000Y-121050000D03*
%TD*%
D15*
%TO.P,J11,1,Pin_1*%
%TO.N,GND*%
X124550000Y-107350000D03*
D16*
%TO.P,J11,2,Pin_2*%
%TO.N,/IO/SWITCH4*%
X124550000Y-109850000D03*
%TD*%
D25*
%TO.N,GND*%
X92400000Y-77300000D03*
X108400000Y-101000000D03*
X115600000Y-70300000D03*
X106975000Y-96475000D03*
X121150000Y-93625000D03*
X85625000Y-72050000D03*
X94700000Y-47290000D03*
X96900000Y-57712382D03*
X99051537Y-56949912D03*
X91850000Y-98900000D03*
X95560000Y-38600000D03*
X94855000Y-41600639D03*
X103250000Y-39510000D03*
X107400000Y-113900000D03*
X85900000Y-69400000D03*
X103125000Y-94975000D03*
X96475000Y-109475000D03*
X107450000Y-111550000D03*
X106975000Y-97625000D03*
X93742500Y-74850000D03*
X98250000Y-82900000D03*
X121000000Y-70850000D03*
X114550000Y-114400000D03*
X98400000Y-86850000D03*
X93850000Y-33480000D03*
X97550000Y-107425000D03*
X102125000Y-109475000D03*
X100000000Y-40475000D03*
X104950000Y-118250000D03*
X97900000Y-73350000D03*
X103836827Y-96241218D03*
X100800000Y-107775000D03*
X90650000Y-88800000D03*
X106250000Y-37500000D03*
X96010000Y-54310000D03*
X97941000Y-48475000D03*
X92100000Y-101625000D03*
X88550000Y-73750000D03*
X106675000Y-103875000D03*
X78700000Y-98600000D03*
X108400000Y-100000000D03*
X97450000Y-90850000D03*
X103125000Y-94400000D03*
X96400000Y-112050000D03*
X83525000Y-77100000D03*
X77650000Y-74950000D03*
X92275000Y-96350000D03*
X96300000Y-76450000D03*
X78200000Y-118250000D03*
X82800000Y-81000000D03*
X104340000Y-41520000D03*
X87275000Y-72100000D03*
X94640000Y-41020000D03*
X121300000Y-116750000D03*
X102200000Y-113750000D03*
%TO.N,+1V1*%
X100600000Y-94150000D03*
X100600000Y-94825003D03*
X100000000Y-106050000D03*
X100600000Y-97850000D03*
X105763909Y-99886091D03*
X100000000Y-102150000D03*
X97850000Y-99200000D03*
X94350000Y-98900000D03*
X102150000Y-99575000D03*
%TO.N,/Power System/V_BUS*%
X98020000Y-36390000D03*
X101820000Y-36550000D03*
%TO.N,/Power System/V_BAT_SW*%
X95500000Y-55600000D03*
%TD*%
D26*
%TO.N,Net-(J15-SHIELD)*%
X95680000Y-32800000D02*
X104320000Y-32800000D01*
X95680000Y-32800000D02*
X95680000Y-36980000D01*
X104320000Y-32800000D02*
X104320000Y-36980000D01*
D27*
%TO.N,+1V1*%
X100600000Y-95300000D02*
X100600000Y-97900000D01*
X100600000Y-95300000D02*
X100600000Y-94150000D01*
X102150000Y-99575000D02*
X105452818Y-99575000D01*
X100000000Y-102150000D02*
X100000000Y-106050000D01*
X94625000Y-99175000D02*
X94350000Y-98900000D01*
X100600000Y-94825003D02*
X100600000Y-95300000D01*
X94625000Y-99200000D02*
X97850000Y-99200000D01*
X94625000Y-99200000D02*
X94625000Y-99175000D01*
X105452818Y-99575000D02*
X105763909Y-99886091D01*
X100600000Y-97900000D02*
X100600000Y-97850000D01*
D28*
%TO.N,/Power System/V_BAT*%
X105350000Y-49875000D02*
X101300000Y-49875000D01*
X101300000Y-49875000D02*
X98825000Y-52350000D01*
X98825000Y-52350000D02*
X94450000Y-52350000D01*
D29*
X94460000Y-52360000D02*
X94450000Y-52350000D01*
D27*
%TO.N,/Power System/V_BUS*%
X98030000Y-36380000D02*
X98020000Y-36390000D01*
X101650000Y-36380000D02*
X98030000Y-36380000D01*
X101820000Y-36550000D02*
X101650000Y-36380000D01*
D28*
%TO.N,/Power System/V_BAT_SW*%
X95500000Y-55600000D02*
X96125000Y-56225000D01*
X97275000Y-56225000D02*
X101125000Y-52375000D01*
X96125000Y-56225000D02*
X97275000Y-56225000D01*
D29*
X105325000Y-52350000D02*
X105350000Y-52375000D01*
D28*
X101125000Y-52375000D02*
X105350000Y-52375000D01*
%TD*%
%TA.AperFunction,Conductor*%
%TO.N,GND*%
G36*
X105003736Y-30080959D02*
G01*
X105257633Y-30096317D01*
X105272495Y-30098121D01*
X105519011Y-30143298D01*
X105533521Y-30146875D01*
X105772798Y-30221437D01*
X105786777Y-30226738D01*
X106015241Y-30329563D01*
X106015308Y-30329593D01*
X106028565Y-30336550D01*
X106243036Y-30466204D01*
X106255347Y-30474702D01*
X106452587Y-30629230D01*
X106452624Y-30629259D01*
X106463833Y-30639190D01*
X106641028Y-30816389D01*
X106650957Y-30827596D01*
X106805512Y-31024873D01*
X106814018Y-31037197D01*
X106943659Y-31251654D01*
X106950618Y-31264913D01*
X107053466Y-31493438D01*
X107058776Y-31507439D01*
X107133330Y-31746699D01*
X107136913Y-31761238D01*
X107182081Y-32007730D01*
X107183886Y-32022595D01*
X107199272Y-32277019D01*
X107199498Y-32284502D01*
X107199498Y-32307391D01*
X107199498Y-32327824D01*
X107199498Y-32327826D01*
X107199499Y-32337818D01*
X107199499Y-62949551D01*
X107199500Y-62949564D01*
X107199500Y-63057277D01*
X107234716Y-63369833D01*
X107304709Y-63676498D01*
X107304713Y-63676510D01*
X107408595Y-63973386D01*
X107408604Y-63973408D01*
X107545070Y-64256783D01*
X107545074Y-64256789D01*
X107712422Y-64523122D01*
X107908538Y-64769043D01*
X108130955Y-64991461D01*
X108376876Y-65187576D01*
X108643209Y-65354925D01*
X108643214Y-65354928D01*
X108926589Y-65491394D01*
X108926598Y-65491397D01*
X108926605Y-65491401D01*
X108926611Y-65491403D01*
X109223487Y-65595285D01*
X109223492Y-65595286D01*
X109223499Y-65595289D01*
X109530158Y-65665282D01*
X109842721Y-65700499D01*
X109842722Y-65700500D01*
X109842725Y-65700500D01*
X109960436Y-65700500D01*
X127452404Y-65700500D01*
X127496247Y-65700500D01*
X127503734Y-65700726D01*
X127757637Y-65716084D01*
X127772494Y-65717888D01*
X128019005Y-65763062D01*
X128033531Y-65766643D01*
X128272789Y-65841199D01*
X128286781Y-65846504D01*
X128515317Y-65949360D01*
X128515319Y-65949361D01*
X128528577Y-65956320D01*
X128743038Y-66085965D01*
X128755356Y-66094467D01*
X128952636Y-66249026D01*
X128963844Y-66258956D01*
X129141042Y-66436154D01*
X129150972Y-66447362D01*
X129305527Y-66644636D01*
X129314033Y-66656959D01*
X129443679Y-66871421D01*
X129450638Y-66884680D01*
X129553492Y-67113212D01*
X129558801Y-67127213D01*
X129633352Y-67366458D01*
X129636936Y-67380996D01*
X129682110Y-67627500D01*
X129683915Y-67642365D01*
X129699273Y-67896246D01*
X129699499Y-67903733D01*
X129699499Y-122896248D01*
X129699273Y-122903735D01*
X129683914Y-123157635D01*
X129682109Y-123172499D01*
X129636937Y-123418997D01*
X129633353Y-123433537D01*
X129558799Y-123672788D01*
X129553490Y-123686788D01*
X129450637Y-123915318D01*
X129443678Y-123928577D01*
X129314032Y-124143039D01*
X129305526Y-124155362D01*
X129150972Y-124352636D01*
X129141042Y-124363844D01*
X128963844Y-124541042D01*
X128952636Y-124550972D01*
X128755362Y-124705526D01*
X128743039Y-124714032D01*
X128528577Y-124843678D01*
X128515318Y-124850637D01*
X128286788Y-124953490D01*
X128272788Y-124958799D01*
X128033537Y-125033353D01*
X128018997Y-125036937D01*
X127772498Y-125082109D01*
X127757635Y-125083914D01*
X127597117Y-125093624D01*
X127503711Y-125099274D01*
X127496238Y-125099500D01*
X72503750Y-125099500D01*
X72496263Y-125099274D01*
X72242365Y-125083915D01*
X72227500Y-125082110D01*
X71980995Y-125036936D01*
X71966457Y-125033352D01*
X71727213Y-124958801D01*
X71713212Y-124953492D01*
X71484680Y-124850638D01*
X71471421Y-124843679D01*
X71256959Y-124714033D01*
X71244636Y-124705527D01*
X71047362Y-124550972D01*
X71036154Y-124541042D01*
X70858956Y-124363844D01*
X70849026Y-124352636D01*
X70694472Y-124155362D01*
X70685970Y-124143045D01*
X70583412Y-123973393D01*
X70556320Y-123928577D01*
X70549361Y-123915318D01*
X70446508Y-123686788D01*
X70441199Y-123672788D01*
X70440248Y-123669737D01*
X70366644Y-123433536D01*
X70363061Y-123418998D01*
X70354052Y-123369839D01*
X70317888Y-123172497D01*
X70316084Y-123157634D01*
X70313571Y-123116082D01*
X70300724Y-122903714D01*
X70300499Y-122896238D01*
X70300499Y-121273543D01*
X72849499Y-121273543D01*
X72887947Y-121466829D01*
X72887950Y-121466839D01*
X72963364Y-121648907D01*
X72963371Y-121648920D01*
X73072860Y-121812781D01*
X73072863Y-121812785D01*
X73212214Y-121952136D01*
X73212218Y-121952139D01*
X73376079Y-122061628D01*
X73376092Y-122061635D01*
X73514873Y-122119119D01*
X73558165Y-122137051D01*
X73558169Y-122137051D01*
X73558170Y-122137052D01*
X73751456Y-122175500D01*
X73751459Y-122175500D01*
X73948543Y-122175500D01*
X74078582Y-122149632D01*
X74141835Y-122137051D01*
X74323914Y-122061632D01*
X74487782Y-121952139D01*
X74627139Y-121812782D01*
X74736632Y-121648914D01*
X74812051Y-121466835D01*
X74824632Y-121403582D01*
X74850500Y-121273543D01*
X75349499Y-121273543D01*
X75387947Y-121466829D01*
X75387950Y-121466839D01*
X75463364Y-121648907D01*
X75463371Y-121648920D01*
X75572860Y-121812781D01*
X75572863Y-121812785D01*
X75712214Y-121952136D01*
X75712218Y-121952139D01*
X75876079Y-122061628D01*
X75876092Y-122061635D01*
X76014873Y-122119119D01*
X76058165Y-122137051D01*
X76058169Y-122137051D01*
X76058170Y-122137052D01*
X76251456Y-122175500D01*
X76251459Y-122175500D01*
X76448543Y-122175500D01*
X76578582Y-122149632D01*
X76641835Y-122137051D01*
X76823914Y-122061632D01*
X76987782Y-121952139D01*
X77127139Y-121812782D01*
X77236632Y-121648914D01*
X77261440Y-121589021D01*
X77305278Y-121534620D01*
X77371572Y-121512554D01*
X77439272Y-121529832D01*
X77486883Y-121580969D01*
X77500000Y-121636474D01*
X77500000Y-121824970D01*
X77500001Y-121824987D01*
X77510494Y-121927697D01*
X77565641Y-122094119D01*
X77565643Y-122094124D01*
X77657684Y-122243345D01*
X77781654Y-122367315D01*
X77930875Y-122459356D01*
X77930880Y-122459358D01*
X78097302Y-122514505D01*
X78097309Y-122514506D01*
X78200019Y-122524999D01*
X78599999Y-122524999D01*
X78600000Y-122524998D01*
X78600000Y-121454145D01*
X78666657Y-121492630D01*
X78787465Y-121525000D01*
X78912535Y-121525000D01*
X79033343Y-121492630D01*
X79100000Y-121454145D01*
X79100000Y-122524999D01*
X79499972Y-122524999D01*
X79499986Y-122524998D01*
X79602697Y-122514505D01*
X79769119Y-122459358D01*
X79769124Y-122459356D01*
X79918345Y-122367315D01*
X80042315Y-122243345D01*
X80134356Y-122094124D01*
X80134358Y-122094119D01*
X80189505Y-121927697D01*
X80189506Y-121927690D01*
X80199999Y-121824986D01*
X80200000Y-121824973D01*
X80200000Y-121300000D01*
X79254146Y-121300000D01*
X79254987Y-121298543D01*
X83999499Y-121298543D01*
X84037947Y-121491829D01*
X84037950Y-121491839D01*
X84113364Y-121673907D01*
X84113371Y-121673920D01*
X84222860Y-121837781D01*
X84222863Y-121837785D01*
X84362214Y-121977136D01*
X84362218Y-121977139D01*
X84526079Y-122086628D01*
X84526092Y-122086635D01*
X84661114Y-122142562D01*
X84708165Y-122162051D01*
X84708169Y-122162051D01*
X84708170Y-122162052D01*
X84901456Y-122200500D01*
X84901459Y-122200500D01*
X85098543Y-122200500D01*
X85228582Y-122174632D01*
X85291835Y-122162051D01*
X85473914Y-122086632D01*
X85637782Y-121977139D01*
X85777139Y-121837782D01*
X85886632Y-121673914D01*
X85911440Y-121614021D01*
X85955278Y-121559620D01*
X86021572Y-121537554D01*
X86089272Y-121554832D01*
X86136883Y-121605969D01*
X86150000Y-121661474D01*
X86150000Y-121849970D01*
X86150001Y-121849987D01*
X86160494Y-121952697D01*
X86215641Y-122119119D01*
X86215643Y-122119124D01*
X86307684Y-122268345D01*
X86431654Y-122392315D01*
X86580875Y-122484356D01*
X86580880Y-122484358D01*
X86747302Y-122539505D01*
X86747309Y-122539506D01*
X86850019Y-122549999D01*
X87249999Y-122549999D01*
X87250000Y-122549998D01*
X87250000Y-121483012D01*
X87307007Y-121515925D01*
X87434174Y-121550000D01*
X87565826Y-121550000D01*
X87692993Y-121515925D01*
X87750000Y-121483012D01*
X87750000Y-122549999D01*
X88149972Y-122549999D01*
X88149986Y-122549998D01*
X88252697Y-122539505D01*
X88419119Y-122484358D01*
X88419124Y-122484356D01*
X88568345Y-122392315D01*
X88692315Y-122268345D01*
X88784356Y-122119124D01*
X88784358Y-122119119D01*
X88839505Y-121952697D01*
X88839506Y-121952690D01*
X88849999Y-121849986D01*
X88850000Y-121849973D01*
X88850000Y-121303711D01*
X92249500Y-121303711D01*
X92249500Y-121546288D01*
X92263011Y-121648920D01*
X92281162Y-121786789D01*
X92291397Y-121824986D01*
X92343947Y-122021104D01*
X92402330Y-122162052D01*
X92436776Y-122245212D01*
X92558064Y-122455289D01*
X92558066Y-122455292D01*
X92558067Y-122455293D01*
X92705733Y-122647736D01*
X92705739Y-122647743D01*
X92877256Y-122819260D01*
X92877263Y-122819266D01*
X92920451Y-122852405D01*
X93069711Y-122966936D01*
X93279788Y-123088224D01*
X93503900Y-123181054D01*
X93738211Y-123243838D01*
X93910273Y-123266490D01*
X93978711Y-123275500D01*
X93978712Y-123275500D01*
X94221289Y-123275500D01*
X94289689Y-123266495D01*
X94461789Y-123243838D01*
X94696100Y-123181054D01*
X94920212Y-123088224D01*
X95130289Y-122966936D01*
X95322738Y-122819265D01*
X95348411Y-122793592D01*
X117873500Y-122793592D01*
X117873500Y-122956407D01*
X117905259Y-123116073D01*
X117905262Y-123116082D01*
X117967562Y-123266490D01*
X117967563Y-123266492D01*
X118058015Y-123401862D01*
X118058018Y-123401866D01*
X118173133Y-123516981D01*
X118173137Y-123516984D01*
X118308505Y-123607435D01*
X118308506Y-123607435D01*
X118308507Y-123607436D01*
X118308509Y-123607437D01*
X118408781Y-123648970D01*
X118458919Y-123669738D01*
X118458921Y-123669738D01*
X118458926Y-123669740D01*
X118618592Y-123701499D01*
X118618595Y-123701500D01*
X118618597Y-123701500D01*
X118781405Y-123701500D01*
X118781406Y-123701499D01*
X118855365Y-123686788D01*
X118941073Y-123669740D01*
X118941076Y-123669738D01*
X118941081Y-123669738D01*
X119091495Y-123607435D01*
X119226863Y-123516984D01*
X119341984Y-123401863D01*
X119432435Y-123266495D01*
X119494738Y-123116081D01*
X119526500Y-122956403D01*
X119526500Y-122793597D01*
X119526500Y-122793594D01*
X119526499Y-122793592D01*
X119494740Y-122633926D01*
X119494737Y-122633917D01*
X119432437Y-122483509D01*
X119432436Y-122483507D01*
X119341984Y-122348137D01*
X119341981Y-122348133D01*
X119226866Y-122233018D01*
X119226862Y-122233015D01*
X119091492Y-122142563D01*
X119091490Y-122142562D01*
X118941082Y-122080262D01*
X118941073Y-122080259D01*
X118781406Y-122048500D01*
X118781403Y-122048500D01*
X118618597Y-122048500D01*
X118618594Y-122048500D01*
X118458926Y-122080259D01*
X118458917Y-122080262D01*
X118308509Y-122142562D01*
X118308507Y-122142563D01*
X118173137Y-122233015D01*
X118173133Y-122233018D01*
X118058018Y-122348133D01*
X118058015Y-122348137D01*
X117967563Y-122483507D01*
X117967562Y-122483509D01*
X117905262Y-122633917D01*
X117905259Y-122633926D01*
X117873500Y-122793592D01*
X95348411Y-122793592D01*
X95442180Y-122699824D01*
X95494260Y-122647743D01*
X95494265Y-122647738D01*
X95641936Y-122455289D01*
X95763224Y-122245212D01*
X95856054Y-122021100D01*
X95918838Y-121786789D01*
X95950500Y-121546288D01*
X95950500Y-121303712D01*
X95946528Y-121273543D01*
X99549499Y-121273543D01*
X99587947Y-121466829D01*
X99587950Y-121466839D01*
X99663364Y-121648907D01*
X99663371Y-121648920D01*
X99772860Y-121812781D01*
X99772863Y-121812785D01*
X99912214Y-121952136D01*
X99912218Y-121952139D01*
X100076079Y-122061628D01*
X100076092Y-122061635D01*
X100214873Y-122119119D01*
X100258165Y-122137051D01*
X100258169Y-122137051D01*
X100258170Y-122137052D01*
X100451456Y-122175500D01*
X100451459Y-122175500D01*
X100648543Y-122175500D01*
X100778582Y-122149632D01*
X100841835Y-122137051D01*
X101023914Y-122061632D01*
X101187782Y-121952139D01*
X101327139Y-121812782D01*
X101436632Y-121648914D01*
X101512051Y-121466835D01*
X101524632Y-121403582D01*
X101550500Y-121273543D01*
X102049499Y-121273543D01*
X102087947Y-121466829D01*
X102087950Y-121466839D01*
X102163364Y-121648907D01*
X102163371Y-121648920D01*
X102272860Y-121812781D01*
X102272863Y-121812785D01*
X102412214Y-121952136D01*
X102412218Y-121952139D01*
X102576079Y-122061628D01*
X102576092Y-122061635D01*
X102714873Y-122119119D01*
X102758165Y-122137051D01*
X102758169Y-122137051D01*
X102758170Y-122137052D01*
X102951456Y-122175500D01*
X102951459Y-122175500D01*
X103148543Y-122175500D01*
X103278582Y-122149632D01*
X103341835Y-122137051D01*
X103523914Y-122061632D01*
X103687782Y-121952139D01*
X103827139Y-121812782D01*
X103936632Y-121648914D01*
X103961440Y-121589021D01*
X104005278Y-121534620D01*
X104071572Y-121512554D01*
X104139272Y-121529832D01*
X104186883Y-121580969D01*
X104200000Y-121636474D01*
X104200000Y-121824970D01*
X104200001Y-121824987D01*
X104210494Y-121927697D01*
X104265641Y-122094119D01*
X104265643Y-122094124D01*
X104357684Y-122243345D01*
X104481654Y-122367315D01*
X104630875Y-122459356D01*
X104630880Y-122459358D01*
X104797302Y-122514505D01*
X104797309Y-122514506D01*
X104900019Y-122524999D01*
X105299999Y-122524999D01*
X105300000Y-122524998D01*
X105300000Y-121454145D01*
X105366657Y-121492630D01*
X105487465Y-121525000D01*
X105612535Y-121525000D01*
X105733343Y-121492630D01*
X105800000Y-121454145D01*
X105800000Y-122524999D01*
X106199972Y-122524999D01*
X106199986Y-122524998D01*
X106302697Y-122514505D01*
X106469119Y-122459358D01*
X106469124Y-122459356D01*
X106618345Y-122367315D01*
X106742315Y-122243345D01*
X106834356Y-122094124D01*
X106834358Y-122094119D01*
X106889505Y-121927697D01*
X106889506Y-121927690D01*
X106899999Y-121824986D01*
X106900000Y-121824973D01*
X106900000Y-121300000D01*
X105954146Y-121300000D01*
X105954987Y-121298543D01*
X110799499Y-121298543D01*
X110837947Y-121491829D01*
X110837950Y-121491839D01*
X110913364Y-121673907D01*
X110913371Y-121673920D01*
X111022860Y-121837781D01*
X111022863Y-121837785D01*
X111162214Y-121977136D01*
X111162218Y-121977139D01*
X111326079Y-122086628D01*
X111326092Y-122086635D01*
X111461114Y-122142562D01*
X111508165Y-122162051D01*
X111508169Y-122162051D01*
X111508170Y-122162052D01*
X111701456Y-122200500D01*
X111701459Y-122200500D01*
X111898543Y-122200500D01*
X112028582Y-122174632D01*
X112091835Y-122162051D01*
X112273914Y-122086632D01*
X112437782Y-121977139D01*
X112577139Y-121837782D01*
X112686632Y-121673914D01*
X112711440Y-121614021D01*
X112755278Y-121559620D01*
X112821572Y-121537554D01*
X112889272Y-121554832D01*
X112936883Y-121605969D01*
X112950000Y-121661474D01*
X112950000Y-121849970D01*
X112950001Y-121849987D01*
X112960494Y-121952697D01*
X113015641Y-122119119D01*
X113015643Y-122119124D01*
X113107684Y-122268345D01*
X113231654Y-122392315D01*
X113380875Y-122484356D01*
X113380880Y-122484358D01*
X113547302Y-122539505D01*
X113547309Y-122539506D01*
X113650019Y-122549999D01*
X114049999Y-122549999D01*
X114050000Y-122549998D01*
X114050000Y-121483012D01*
X114107007Y-121515925D01*
X114234174Y-121550000D01*
X114365826Y-121550000D01*
X114492993Y-121515925D01*
X114550000Y-121483012D01*
X114550000Y-122549999D01*
X114949972Y-122549999D01*
X114949986Y-122549998D01*
X115052697Y-122539505D01*
X115219119Y-122484358D01*
X115219124Y-122484356D01*
X115368345Y-122392315D01*
X115492315Y-122268345D01*
X115584356Y-122119124D01*
X115584358Y-122119119D01*
X115639505Y-121952697D01*
X115639506Y-121952690D01*
X115649999Y-121849986D01*
X115650000Y-121849973D01*
X115650000Y-121300000D01*
X114733012Y-121300000D01*
X114762721Y-121248543D01*
X123424499Y-121248543D01*
X123462947Y-121441829D01*
X123462950Y-121441839D01*
X123538364Y-121623907D01*
X123538371Y-121623920D01*
X123647860Y-121787781D01*
X123647863Y-121787785D01*
X123787214Y-121927136D01*
X123787218Y-121927139D01*
X123951079Y-122036628D01*
X123951092Y-122036635D01*
X124089873Y-122094119D01*
X124133165Y-122112051D01*
X124133169Y-122112051D01*
X124133170Y-122112052D01*
X124326456Y-122150500D01*
X124326459Y-122150500D01*
X124773543Y-122150500D01*
X124931302Y-122119119D01*
X124966835Y-122112051D01*
X125148914Y-122036632D01*
X125312782Y-121927139D01*
X125452139Y-121787782D01*
X125561632Y-121623914D01*
X125637051Y-121441835D01*
X125665554Y-121298543D01*
X125675500Y-121248543D01*
X125675500Y-121051456D01*
X125637052Y-120858170D01*
X125637051Y-120858169D01*
X125637051Y-120858165D01*
X125613562Y-120801456D01*
X125561635Y-120676092D01*
X125561628Y-120676079D01*
X125452139Y-120512218D01*
X125452136Y-120512214D01*
X125312785Y-120372863D01*
X125312781Y-120372860D01*
X125148920Y-120263371D01*
X125148907Y-120263364D01*
X124966839Y-120187950D01*
X124966829Y-120187947D01*
X124773543Y-120149500D01*
X124773541Y-120149500D01*
X124326459Y-120149500D01*
X124326457Y-120149500D01*
X124133170Y-120187947D01*
X124133160Y-120187950D01*
X123951092Y-120263364D01*
X123951079Y-120263371D01*
X123787218Y-120372860D01*
X123787214Y-120372863D01*
X123647863Y-120512214D01*
X123647860Y-120512218D01*
X123538371Y-120676079D01*
X123538364Y-120676092D01*
X123462950Y-120858160D01*
X123462947Y-120858170D01*
X123424500Y-121051456D01*
X123424500Y-121051459D01*
X123424500Y-121248541D01*
X123424500Y-121248543D01*
X123424499Y-121248543D01*
X114762721Y-121248543D01*
X114765925Y-121242993D01*
X114800000Y-121115826D01*
X114800000Y-120984174D01*
X114765925Y-120857007D01*
X114733012Y-120800000D01*
X115649999Y-120800000D01*
X115649999Y-120250028D01*
X115649998Y-120250013D01*
X115639505Y-120147302D01*
X115584358Y-119980880D01*
X115584356Y-119980875D01*
X115492315Y-119831654D01*
X115368345Y-119707684D01*
X115219124Y-119615643D01*
X115219119Y-119615641D01*
X115052697Y-119560494D01*
X115052690Y-119560493D01*
X114949986Y-119550000D01*
X114550000Y-119550000D01*
X114550000Y-120616988D01*
X114492993Y-120584075D01*
X114365826Y-120550000D01*
X114234174Y-120550000D01*
X114107007Y-120584075D01*
X114050000Y-120616988D01*
X114050000Y-119550000D01*
X113650028Y-119550000D01*
X113650012Y-119550001D01*
X113547302Y-119560494D01*
X113380880Y-119615641D01*
X113380875Y-119615643D01*
X113231654Y-119707684D01*
X113107684Y-119831654D01*
X113015643Y-119980875D01*
X113015641Y-119980880D01*
X112960494Y-120147302D01*
X112960493Y-120147309D01*
X112950000Y-120250013D01*
X112950000Y-120438523D01*
X112930315Y-120505562D01*
X112877511Y-120551317D01*
X112808353Y-120561261D01*
X112744797Y-120532236D01*
X112711439Y-120485975D01*
X112686635Y-120426092D01*
X112686628Y-120426079D01*
X112577139Y-120262218D01*
X112577136Y-120262214D01*
X112437785Y-120122863D01*
X112437781Y-120122860D01*
X112273920Y-120013371D01*
X112273907Y-120013364D01*
X112091839Y-119937950D01*
X112091829Y-119937947D01*
X111898543Y-119899500D01*
X111898541Y-119899500D01*
X111701459Y-119899500D01*
X111701457Y-119899500D01*
X111508170Y-119937947D01*
X111508160Y-119937950D01*
X111326092Y-120013364D01*
X111326079Y-120013371D01*
X111162218Y-120122860D01*
X111162214Y-120122863D01*
X111022863Y-120262214D01*
X111022860Y-120262218D01*
X110913371Y-120426079D01*
X110913364Y-120426092D01*
X110837950Y-120608160D01*
X110837947Y-120608170D01*
X110799500Y-120801456D01*
X110799500Y-120801459D01*
X110799500Y-121298541D01*
X110799500Y-121298543D01*
X110799499Y-121298543D01*
X105954987Y-121298543D01*
X105992630Y-121233343D01*
X106025000Y-121112535D01*
X106025000Y-120987465D01*
X105992630Y-120866657D01*
X105954146Y-120800000D01*
X106899999Y-120800000D01*
X106899999Y-120275028D01*
X106899998Y-120275013D01*
X106889505Y-120172302D01*
X106834358Y-120005880D01*
X106834356Y-120005875D01*
X106742315Y-119856654D01*
X106618345Y-119732684D01*
X106469124Y-119640643D01*
X106469119Y-119640641D01*
X106302697Y-119585494D01*
X106302690Y-119585493D01*
X106199986Y-119575000D01*
X105800000Y-119575000D01*
X105800000Y-120645854D01*
X105733343Y-120607370D01*
X105612535Y-120575000D01*
X105487465Y-120575000D01*
X105366657Y-120607370D01*
X105300000Y-120645854D01*
X105300000Y-119575000D01*
X104900028Y-119575000D01*
X104900012Y-119575001D01*
X104797302Y-119585494D01*
X104630880Y-119640641D01*
X104630875Y-119640643D01*
X104481654Y-119732684D01*
X104357684Y-119856654D01*
X104265643Y-120005875D01*
X104265641Y-120005880D01*
X104210494Y-120172302D01*
X104210493Y-120172309D01*
X104200000Y-120275013D01*
X104200000Y-120463523D01*
X104180315Y-120530562D01*
X104127511Y-120576317D01*
X104058353Y-120586261D01*
X103994797Y-120557236D01*
X103961439Y-120510975D01*
X103936635Y-120451092D01*
X103936628Y-120451079D01*
X103827139Y-120287218D01*
X103827136Y-120287214D01*
X103687785Y-120147863D01*
X103687781Y-120147860D01*
X103523920Y-120038371D01*
X103523907Y-120038364D01*
X103341839Y-119962950D01*
X103341829Y-119962947D01*
X103148543Y-119924500D01*
X103148541Y-119924500D01*
X102951459Y-119924500D01*
X102951457Y-119924500D01*
X102758170Y-119962947D01*
X102758160Y-119962950D01*
X102576092Y-120038364D01*
X102576079Y-120038371D01*
X102412218Y-120147860D01*
X102412214Y-120147863D01*
X102272863Y-120287214D01*
X102272860Y-120287218D01*
X102163371Y-120451079D01*
X102163364Y-120451092D01*
X102087950Y-120633160D01*
X102087947Y-120633170D01*
X102049500Y-120826456D01*
X102049500Y-120826459D01*
X102049500Y-121273541D01*
X102049500Y-121273543D01*
X102049499Y-121273543D01*
X101550500Y-121273543D01*
X101550500Y-120826456D01*
X101512052Y-120633170D01*
X101512051Y-120633169D01*
X101512051Y-120633165D01*
X101501694Y-120608160D01*
X101436635Y-120451092D01*
X101436628Y-120451079D01*
X101327139Y-120287218D01*
X101327136Y-120287214D01*
X101187785Y-120147863D01*
X101187781Y-120147860D01*
X101023920Y-120038371D01*
X101023907Y-120038364D01*
X100841839Y-119962950D01*
X100841829Y-119962947D01*
X100648543Y-119924500D01*
X100648541Y-119924500D01*
X100451459Y-119924500D01*
X100451457Y-119924500D01*
X100258170Y-119962947D01*
X100258160Y-119962950D01*
X100076092Y-120038364D01*
X100076079Y-120038371D01*
X99912218Y-120147860D01*
X99912214Y-120147863D01*
X99772863Y-120287214D01*
X99772860Y-120287218D01*
X99663371Y-120451079D01*
X99663364Y-120451092D01*
X99587950Y-120633160D01*
X99587947Y-120633170D01*
X99549500Y-120826456D01*
X99549500Y-120826459D01*
X99549500Y-121273541D01*
X99549500Y-121273543D01*
X99549499Y-121273543D01*
X95946528Y-121273543D01*
X95918838Y-121063211D01*
X95856054Y-120828900D01*
X95763224Y-120604788D01*
X95641936Y-120394711D01*
X95550089Y-120275013D01*
X95494266Y-120202263D01*
X95494260Y-120202256D01*
X95322743Y-120030739D01*
X95322736Y-120030733D01*
X95130293Y-119883067D01*
X95130292Y-119883066D01*
X95130289Y-119883064D01*
X94920212Y-119761776D01*
X94849978Y-119732684D01*
X94696104Y-119668947D01*
X94497165Y-119615641D01*
X94461789Y-119606162D01*
X94461788Y-119606161D01*
X94461785Y-119606161D01*
X94221289Y-119574500D01*
X94221288Y-119574500D01*
X93978712Y-119574500D01*
X93978711Y-119574500D01*
X93738214Y-119606161D01*
X93503895Y-119668947D01*
X93279794Y-119761773D01*
X93279785Y-119761777D01*
X93069706Y-119883067D01*
X92877263Y-120030733D01*
X92877256Y-120030739D01*
X92705739Y-120202256D01*
X92705733Y-120202263D01*
X92558067Y-120394706D01*
X92436777Y-120604785D01*
X92436773Y-120604794D01*
X92343947Y-120828895D01*
X92281161Y-121063214D01*
X92249500Y-121303711D01*
X88850000Y-121303711D01*
X88850000Y-121300000D01*
X87933012Y-121300000D01*
X87965925Y-121242993D01*
X88000000Y-121115826D01*
X88000000Y-120984174D01*
X87965925Y-120857007D01*
X87933012Y-120800000D01*
X88849999Y-120800000D01*
X88849999Y-120250028D01*
X88849998Y-120250013D01*
X88839505Y-120147302D01*
X88784358Y-119980880D01*
X88784356Y-119980875D01*
X88692315Y-119831654D01*
X88568345Y-119707684D01*
X88419124Y-119615643D01*
X88419119Y-119615641D01*
X88252697Y-119560494D01*
X88252690Y-119560493D01*
X88149986Y-119550000D01*
X87750000Y-119550000D01*
X87750000Y-120616988D01*
X87692993Y-120584075D01*
X87565826Y-120550000D01*
X87434174Y-120550000D01*
X87307007Y-120584075D01*
X87250000Y-120616988D01*
X87250000Y-119550000D01*
X86850028Y-119550000D01*
X86850012Y-119550001D01*
X86747302Y-119560494D01*
X86580880Y-119615641D01*
X86580875Y-119615643D01*
X86431654Y-119707684D01*
X86307684Y-119831654D01*
X86215643Y-119980875D01*
X86215641Y-119980880D01*
X86160494Y-120147302D01*
X86160493Y-120147309D01*
X86150000Y-120250013D01*
X86150000Y-120438523D01*
X86130315Y-120505562D01*
X86077511Y-120551317D01*
X86008353Y-120561261D01*
X85944797Y-120532236D01*
X85911439Y-120485975D01*
X85886635Y-120426092D01*
X85886628Y-120426079D01*
X85777139Y-120262218D01*
X85777136Y-120262214D01*
X85637785Y-120122863D01*
X85637781Y-120122860D01*
X85473920Y-120013371D01*
X85473907Y-120013364D01*
X85291839Y-119937950D01*
X85291829Y-119937947D01*
X85098543Y-119899500D01*
X85098541Y-119899500D01*
X84901459Y-119899500D01*
X84901457Y-119899500D01*
X84708170Y-119937947D01*
X84708160Y-119937950D01*
X84526092Y-120013364D01*
X84526079Y-120013371D01*
X84362218Y-120122860D01*
X84362214Y-120122863D01*
X84222863Y-120262214D01*
X84222860Y-120262218D01*
X84113371Y-120426079D01*
X84113364Y-120426092D01*
X84037950Y-120608160D01*
X84037947Y-120608170D01*
X83999500Y-120801456D01*
X83999500Y-120801459D01*
X83999500Y-121298541D01*
X83999500Y-121298543D01*
X83999499Y-121298543D01*
X79254987Y-121298543D01*
X79292630Y-121233343D01*
X79325000Y-121112535D01*
X79325000Y-120987465D01*
X79292630Y-120866657D01*
X79254146Y-120800000D01*
X80199999Y-120800000D01*
X80199999Y-120275028D01*
X80199998Y-120275013D01*
X80189505Y-120172302D01*
X80134358Y-120005880D01*
X80134356Y-120005875D01*
X80042315Y-119856654D01*
X79918345Y-119732684D01*
X79769124Y-119640643D01*
X79769119Y-119640641D01*
X79602697Y-119585494D01*
X79602690Y-119585493D01*
X79499986Y-119575000D01*
X79100000Y-119575000D01*
X79100000Y-120645854D01*
X79033343Y-120607370D01*
X78912535Y-120575000D01*
X78787465Y-120575000D01*
X78666657Y-120607370D01*
X78600000Y-120645854D01*
X78600000Y-119575000D01*
X78200028Y-119575000D01*
X78200012Y-119575001D01*
X78097302Y-119585494D01*
X77930880Y-119640641D01*
X77930875Y-119640643D01*
X77781654Y-119732684D01*
X77657684Y-119856654D01*
X77565643Y-120005875D01*
X77565641Y-120005880D01*
X77510494Y-120172302D01*
X77510493Y-120172309D01*
X77500000Y-120275013D01*
X77500000Y-120463523D01*
X77480315Y-120530562D01*
X77427511Y-120576317D01*
X77358353Y-120586261D01*
X77294797Y-120557236D01*
X77261439Y-120510975D01*
X77236635Y-120451092D01*
X77236628Y-120451079D01*
X77127139Y-120287218D01*
X77127136Y-120287214D01*
X76987785Y-120147863D01*
X76987781Y-120147860D01*
X76823920Y-120038371D01*
X76823907Y-120038364D01*
X76641839Y-119962950D01*
X76641829Y-119962947D01*
X76448543Y-119924500D01*
X76448541Y-119924500D01*
X76251459Y-119924500D01*
X76251457Y-119924500D01*
X76058170Y-119962947D01*
X76058160Y-119962950D01*
X75876092Y-120038364D01*
X75876079Y-120038371D01*
X75712218Y-120147860D01*
X75712214Y-120147863D01*
X75572863Y-120287214D01*
X75572860Y-120287218D01*
X75463371Y-120451079D01*
X75463364Y-120451092D01*
X75387950Y-120633160D01*
X75387947Y-120633170D01*
X75349500Y-120826456D01*
X75349500Y-120826459D01*
X75349500Y-121273541D01*
X75349500Y-121273543D01*
X75349499Y-121273543D01*
X74850500Y-121273543D01*
X74850500Y-120826456D01*
X74812052Y-120633170D01*
X74812051Y-120633169D01*
X74812051Y-120633165D01*
X74801694Y-120608160D01*
X74736635Y-120451092D01*
X74736628Y-120451079D01*
X74627139Y-120287218D01*
X74627136Y-120287214D01*
X74487785Y-120147863D01*
X74487781Y-120147860D01*
X74323920Y-120038371D01*
X74323907Y-120038364D01*
X74141839Y-119962950D01*
X74141829Y-119962947D01*
X73948543Y-119924500D01*
X73948541Y-119924500D01*
X73751459Y-119924500D01*
X73751457Y-119924500D01*
X73558170Y-119962947D01*
X73558160Y-119962950D01*
X73376092Y-120038364D01*
X73376079Y-120038371D01*
X73212218Y-120147860D01*
X73212214Y-120147863D01*
X73072863Y-120287214D01*
X73072860Y-120287218D01*
X72963371Y-120451079D01*
X72963364Y-120451092D01*
X72887950Y-120633160D01*
X72887947Y-120633170D01*
X72849500Y-120826456D01*
X72849500Y-120826459D01*
X72849500Y-121273541D01*
X72849500Y-121273543D01*
X72849499Y-121273543D01*
X70300499Y-121273543D01*
X70300499Y-115668592D01*
X70798500Y-115668592D01*
X70798500Y-115831407D01*
X70830259Y-115991073D01*
X70830262Y-115991082D01*
X70892562Y-116141490D01*
X70892563Y-116141492D01*
X70983015Y-116276862D01*
X70983018Y-116276866D01*
X71098133Y-116391981D01*
X71098137Y-116391984D01*
X71233505Y-116482435D01*
X71233506Y-116482435D01*
X71233507Y-116482436D01*
X71233509Y-116482437D01*
X71333781Y-116523970D01*
X71383919Y-116544738D01*
X71383921Y-116544738D01*
X71383926Y-116544740D01*
X71543592Y-116576499D01*
X71543595Y-116576500D01*
X71543597Y-116576500D01*
X71706405Y-116576500D01*
X71706406Y-116576499D01*
X71759629Y-116565912D01*
X71866073Y-116544740D01*
X71866076Y-116544738D01*
X71866081Y-116544738D01*
X72016495Y-116482435D01*
X72151863Y-116391984D01*
X72266984Y-116276863D01*
X72357435Y-116141495D01*
X72419738Y-115991081D01*
X72424597Y-115966657D01*
X72451499Y-115831407D01*
X72451500Y-115831405D01*
X72451500Y-115668594D01*
X72451499Y-115668592D01*
X72422154Y-115521062D01*
X72422153Y-115521058D01*
X72419739Y-115508926D01*
X72419738Y-115508919D01*
X72416049Y-115500013D01*
X123075000Y-115500013D01*
X123075000Y-115900000D01*
X124145854Y-115900000D01*
X124107370Y-115966657D01*
X124075000Y-116087465D01*
X124075000Y-116212535D01*
X124107370Y-116333343D01*
X124145854Y-116400000D01*
X123075001Y-116400000D01*
X123075001Y-116799986D01*
X123085494Y-116902697D01*
X123140641Y-117069119D01*
X123140643Y-117069124D01*
X123232684Y-117218345D01*
X123356654Y-117342315D01*
X123505875Y-117434356D01*
X123505880Y-117434358D01*
X123672302Y-117489505D01*
X123672309Y-117489506D01*
X123775019Y-117499999D01*
X123963522Y-117499999D01*
X124030562Y-117519683D01*
X124076317Y-117572487D01*
X124086261Y-117641645D01*
X124057236Y-117705201D01*
X124010977Y-117738560D01*
X123951085Y-117763368D01*
X123951079Y-117763371D01*
X123787218Y-117872860D01*
X123787214Y-117872863D01*
X123647863Y-118012214D01*
X123647860Y-118012218D01*
X123538371Y-118176079D01*
X123538364Y-118176092D01*
X123462950Y-118358160D01*
X123462947Y-118358170D01*
X123424500Y-118551456D01*
X123424500Y-118551459D01*
X123424500Y-118748541D01*
X123424500Y-118748543D01*
X123424499Y-118748543D01*
X123462947Y-118941829D01*
X123462950Y-118941839D01*
X123538364Y-119123907D01*
X123538371Y-119123920D01*
X123647860Y-119287781D01*
X123647863Y-119287785D01*
X123787214Y-119427136D01*
X123787218Y-119427139D01*
X123951079Y-119536628D01*
X123951092Y-119536635D01*
X124133160Y-119612049D01*
X124133165Y-119612051D01*
X124133169Y-119612051D01*
X124133170Y-119612052D01*
X124326456Y-119650500D01*
X124326459Y-119650500D01*
X124773543Y-119650500D01*
X124903582Y-119624632D01*
X124966835Y-119612051D01*
X125148914Y-119536632D01*
X125312782Y-119427139D01*
X125452139Y-119287782D01*
X125561632Y-119123914D01*
X125637051Y-118941835D01*
X125675500Y-118748541D01*
X125675500Y-118551459D01*
X125675500Y-118551456D01*
X125637052Y-118358170D01*
X125637051Y-118358169D01*
X125637051Y-118358165D01*
X125637049Y-118358160D01*
X125561635Y-118176092D01*
X125561628Y-118176079D01*
X125452139Y-118012218D01*
X125452136Y-118012214D01*
X125312785Y-117872863D01*
X125312781Y-117872860D01*
X125148920Y-117763371D01*
X125148907Y-117763364D01*
X125089023Y-117738560D01*
X125034619Y-117694719D01*
X125012554Y-117628425D01*
X125029833Y-117560726D01*
X125080970Y-117513115D01*
X125136475Y-117499999D01*
X125324971Y-117499999D01*
X125324987Y-117499998D01*
X125427697Y-117489505D01*
X125594119Y-117434358D01*
X125594124Y-117434356D01*
X125743345Y-117342315D01*
X125867315Y-117218345D01*
X125959356Y-117069124D01*
X125959358Y-117069119D01*
X126014505Y-116902697D01*
X126014506Y-116902690D01*
X126024999Y-116799986D01*
X126025000Y-116799973D01*
X126025000Y-116400000D01*
X124954146Y-116400000D01*
X124992630Y-116333343D01*
X125025000Y-116212535D01*
X125025000Y-116087465D01*
X124992630Y-115966657D01*
X124954146Y-115900000D01*
X126024999Y-115900000D01*
X126024999Y-115500028D01*
X126024998Y-115500013D01*
X126014505Y-115397302D01*
X125959358Y-115230880D01*
X125959356Y-115230875D01*
X125867315Y-115081654D01*
X125743345Y-114957684D01*
X125594124Y-114865643D01*
X125594119Y-114865641D01*
X125427697Y-114810494D01*
X125427690Y-114810493D01*
X125324986Y-114800000D01*
X124800000Y-114800000D01*
X124800000Y-115745854D01*
X124733343Y-115707370D01*
X124612535Y-115675000D01*
X124487465Y-115675000D01*
X124366657Y-115707370D01*
X124300000Y-115745854D01*
X124300000Y-114800000D01*
X123775028Y-114800000D01*
X123775012Y-114800001D01*
X123672302Y-114810494D01*
X123505880Y-114865641D01*
X123505875Y-114865643D01*
X123356654Y-114957684D01*
X123232684Y-115081654D01*
X123140643Y-115230875D01*
X123140641Y-115230880D01*
X123085494Y-115397302D01*
X123085493Y-115397309D01*
X123075000Y-115500013D01*
X72416049Y-115500013D01*
X72357435Y-115358505D01*
X72266984Y-115223137D01*
X72266981Y-115223133D01*
X72151866Y-115108018D01*
X72151862Y-115108015D01*
X72016492Y-115017563D01*
X72016490Y-115017562D01*
X71866082Y-114955262D01*
X71866073Y-114955259D01*
X71706406Y-114923500D01*
X71706403Y-114923500D01*
X71543597Y-114923500D01*
X71543594Y-114923500D01*
X71383926Y-114955259D01*
X71383917Y-114955262D01*
X71233509Y-115017562D01*
X71233507Y-115017563D01*
X71098137Y-115108015D01*
X71098133Y-115108018D01*
X70983018Y-115223133D01*
X70983015Y-115223137D01*
X70892563Y-115358507D01*
X70892562Y-115358509D01*
X70830262Y-115508917D01*
X70830259Y-115508926D01*
X70798500Y-115668592D01*
X70300499Y-115668592D01*
X70300499Y-107300013D01*
X73950000Y-107300013D01*
X73950000Y-107700000D01*
X75016988Y-107700000D01*
X74984075Y-107757007D01*
X74950000Y-107884174D01*
X74950000Y-108015826D01*
X74984075Y-108142993D01*
X75016988Y-108200000D01*
X73950001Y-108200000D01*
X73950001Y-108599986D01*
X73960494Y-108702697D01*
X74015641Y-108869119D01*
X74015643Y-108869124D01*
X74107684Y-109018345D01*
X74231654Y-109142315D01*
X74380875Y-109234356D01*
X74380880Y-109234358D01*
X74547302Y-109289505D01*
X74547309Y-109289506D01*
X74650019Y-109299999D01*
X75199999Y-109299999D01*
X75200000Y-109299998D01*
X75200000Y-108383012D01*
X75257007Y-108415925D01*
X75384174Y-108450000D01*
X75515826Y-108450000D01*
X75642993Y-108415925D01*
X75700000Y-108383012D01*
X75700000Y-109299999D01*
X76249972Y-109299999D01*
X76249986Y-109299998D01*
X76352697Y-109289505D01*
X76519119Y-109234358D01*
X76519124Y-109234356D01*
X76668345Y-109142315D01*
X76792315Y-109018345D01*
X76884356Y-108869124D01*
X76884358Y-108869119D01*
X76939505Y-108702697D01*
X76939506Y-108702690D01*
X76949999Y-108599986D01*
X76950000Y-108599973D01*
X76950000Y-108200000D01*
X75883012Y-108200000D01*
X75915925Y-108142993D01*
X75950000Y-108015826D01*
X75950000Y-107884174D01*
X75915925Y-107757007D01*
X75883012Y-107700000D01*
X76949999Y-107700000D01*
X76949999Y-107300028D01*
X76949998Y-107300013D01*
X76939505Y-107197302D01*
X76884358Y-107030880D01*
X76884356Y-107030875D01*
X76792315Y-106881654D01*
X76668345Y-106757684D01*
X76574846Y-106700013D01*
X123050000Y-106700013D01*
X123050000Y-107100000D01*
X124116988Y-107100000D01*
X124084075Y-107157007D01*
X124050000Y-107284174D01*
X124050000Y-107415826D01*
X124084075Y-107542993D01*
X124116988Y-107600000D01*
X123050001Y-107600000D01*
X123050001Y-107999986D01*
X123060494Y-108102697D01*
X123115641Y-108269119D01*
X123115643Y-108269124D01*
X123207684Y-108418345D01*
X123331654Y-108542315D01*
X123480875Y-108634356D01*
X123480880Y-108634358D01*
X123647302Y-108689505D01*
X123647309Y-108689506D01*
X123750019Y-108699999D01*
X123938522Y-108699999D01*
X124005562Y-108719683D01*
X124051317Y-108772487D01*
X124061261Y-108841645D01*
X124032236Y-108905201D01*
X123985977Y-108938560D01*
X123926085Y-108963368D01*
X123926079Y-108963371D01*
X123762218Y-109072860D01*
X123762214Y-109072863D01*
X123622863Y-109212214D01*
X123622860Y-109212218D01*
X123513371Y-109376079D01*
X123513364Y-109376092D01*
X123437950Y-109558160D01*
X123437947Y-109558170D01*
X123399500Y-109751456D01*
X123399500Y-109751459D01*
X123399500Y-109948541D01*
X123399500Y-109948543D01*
X123399499Y-109948543D01*
X123437947Y-110141829D01*
X123437950Y-110141839D01*
X123513364Y-110323907D01*
X123513371Y-110323920D01*
X123622860Y-110487781D01*
X123622863Y-110487785D01*
X123762214Y-110627136D01*
X123762218Y-110627139D01*
X123926079Y-110736628D01*
X123926092Y-110736635D01*
X124108160Y-110812049D01*
X124108165Y-110812051D01*
X124108169Y-110812051D01*
X124108170Y-110812052D01*
X124301456Y-110850500D01*
X124301459Y-110850500D01*
X124798543Y-110850500D01*
X124928582Y-110824632D01*
X124991835Y-110812051D01*
X125173914Y-110736632D01*
X125337782Y-110627139D01*
X125477139Y-110487782D01*
X125586632Y-110323914D01*
X125662051Y-110141835D01*
X125700500Y-109948541D01*
X125700500Y-109751459D01*
X125700500Y-109751456D01*
X125662052Y-109558170D01*
X125662051Y-109558169D01*
X125662051Y-109558165D01*
X125662049Y-109558160D01*
X125586635Y-109376092D01*
X125586628Y-109376079D01*
X125477139Y-109212218D01*
X125477136Y-109212214D01*
X125337785Y-109072863D01*
X125337781Y-109072860D01*
X125173920Y-108963371D01*
X125173907Y-108963364D01*
X125114023Y-108938560D01*
X125059619Y-108894719D01*
X125037554Y-108828425D01*
X125054833Y-108760726D01*
X125105970Y-108713115D01*
X125161475Y-108699999D01*
X125349971Y-108699999D01*
X125349987Y-108699998D01*
X125452697Y-108689505D01*
X125619119Y-108634358D01*
X125619124Y-108634356D01*
X125768345Y-108542315D01*
X125892315Y-108418345D01*
X125984356Y-108269124D01*
X125984358Y-108269119D01*
X126039505Y-108102697D01*
X126039506Y-108102690D01*
X126049999Y-107999986D01*
X126050000Y-107999973D01*
X126050000Y-107600000D01*
X124983012Y-107600000D01*
X125015925Y-107542993D01*
X125050000Y-107415826D01*
X125050000Y-107284174D01*
X125015925Y-107157007D01*
X124983012Y-107100000D01*
X126049999Y-107100000D01*
X126049999Y-106700028D01*
X126049998Y-106700013D01*
X126039505Y-106597302D01*
X125984358Y-106430880D01*
X125984356Y-106430875D01*
X125892315Y-106281654D01*
X125768345Y-106157684D01*
X125619124Y-106065643D01*
X125619119Y-106065641D01*
X125452697Y-106010494D01*
X125452690Y-106010493D01*
X125349986Y-106000000D01*
X124800000Y-106000000D01*
X124800000Y-106916988D01*
X124742993Y-106884075D01*
X124615826Y-106850000D01*
X124484174Y-106850000D01*
X124357007Y-106884075D01*
X124300000Y-106916988D01*
X124300000Y-106000000D01*
X123750028Y-106000000D01*
X123750012Y-106000001D01*
X123647302Y-106010494D01*
X123480880Y-106065641D01*
X123480875Y-106065643D01*
X123331654Y-106157684D01*
X123207684Y-106281654D01*
X123115643Y-106430875D01*
X123115641Y-106430880D01*
X123060494Y-106597302D01*
X123060493Y-106597309D01*
X123050000Y-106700013D01*
X76574846Y-106700013D01*
X76519124Y-106665643D01*
X76519119Y-106665641D01*
X76352697Y-106610494D01*
X76352690Y-106610493D01*
X76249986Y-106600000D01*
X76061476Y-106600000D01*
X75994437Y-106580315D01*
X75948682Y-106527511D01*
X75938738Y-106458353D01*
X75967763Y-106394797D01*
X76014022Y-106361439D01*
X76073914Y-106336632D01*
X76237782Y-106227139D01*
X76377139Y-106087782D01*
X76486632Y-105923914D01*
X76562051Y-105741835D01*
X76600500Y-105548541D01*
X76600500Y-105351459D01*
X76600500Y-105351456D01*
X76562052Y-105158170D01*
X76562051Y-105158169D01*
X76562051Y-105158165D01*
X76562049Y-105158160D01*
X76486635Y-104976092D01*
X76486628Y-104976079D01*
X76377139Y-104812218D01*
X76377136Y-104812214D01*
X76237785Y-104672863D01*
X76237781Y-104672860D01*
X76073920Y-104563371D01*
X76073907Y-104563364D01*
X75891839Y-104487950D01*
X75891829Y-104487947D01*
X75698543Y-104449500D01*
X75698541Y-104449500D01*
X75201459Y-104449500D01*
X75201457Y-104449500D01*
X75008170Y-104487947D01*
X75008160Y-104487950D01*
X74826092Y-104563364D01*
X74826079Y-104563371D01*
X74662218Y-104672860D01*
X74662214Y-104672863D01*
X74522863Y-104812214D01*
X74522860Y-104812218D01*
X74413371Y-104976079D01*
X74413364Y-104976092D01*
X74337950Y-105158160D01*
X74337947Y-105158170D01*
X74299500Y-105351456D01*
X74299500Y-105351459D01*
X74299500Y-105548541D01*
X74299500Y-105548543D01*
X74299499Y-105548543D01*
X74337947Y-105741829D01*
X74337950Y-105741839D01*
X74413364Y-105923907D01*
X74413371Y-105923920D01*
X74522860Y-106087781D01*
X74522863Y-106087785D01*
X74662214Y-106227136D01*
X74662218Y-106227139D01*
X74826079Y-106336628D01*
X74826086Y-106336632D01*
X74885976Y-106361439D01*
X74940379Y-106405279D01*
X74962445Y-106471573D01*
X74945166Y-106539272D01*
X74894030Y-106586883D01*
X74838525Y-106600000D01*
X74650029Y-106600000D01*
X74650012Y-106600001D01*
X74547302Y-106610494D01*
X74380880Y-106665641D01*
X74380875Y-106665643D01*
X74231654Y-106757684D01*
X74107684Y-106881654D01*
X74015643Y-107030875D01*
X74015641Y-107030880D01*
X73960494Y-107197302D01*
X73960493Y-107197309D01*
X73950000Y-107300013D01*
X70300499Y-107300013D01*
X70300499Y-102090691D01*
X99549500Y-102090691D01*
X99549500Y-106109309D01*
X99580201Y-106223886D01*
X99639511Y-106326613D01*
X99723387Y-106410489D01*
X99826114Y-106469799D01*
X99940691Y-106500500D01*
X99940694Y-106500500D01*
X100059306Y-106500500D01*
X100059309Y-106500500D01*
X100173886Y-106469799D01*
X100276613Y-106410489D01*
X100360489Y-106326613D01*
X100419799Y-106223886D01*
X100450500Y-106109309D01*
X100450500Y-102090691D01*
X100419799Y-101976114D01*
X100360489Y-101873387D01*
X100276613Y-101789511D01*
X100173886Y-101730201D01*
X100059309Y-101699500D01*
X99940691Y-101699500D01*
X99826114Y-101730201D01*
X99826112Y-101730201D01*
X99826112Y-101730202D01*
X99723387Y-101789511D01*
X99723384Y-101789513D01*
X99639513Y-101873384D01*
X99639511Y-101873387D01*
X99580201Y-101976114D01*
X99549500Y-102090691D01*
X70300499Y-102090691D01*
X70300499Y-98600013D01*
X73975000Y-98600013D01*
X73975000Y-99000000D01*
X75045854Y-99000000D01*
X75007370Y-99066657D01*
X74975000Y-99187465D01*
X74975000Y-99312535D01*
X75007370Y-99433343D01*
X75045854Y-99500000D01*
X73975001Y-99500000D01*
X73975001Y-99899986D01*
X73985494Y-100002697D01*
X74040641Y-100169119D01*
X74040643Y-100169124D01*
X74132684Y-100318345D01*
X74256654Y-100442315D01*
X74405875Y-100534356D01*
X74405880Y-100534358D01*
X74572302Y-100589505D01*
X74572309Y-100589506D01*
X74675019Y-100599999D01*
X75199999Y-100599999D01*
X75200000Y-100599998D01*
X75200000Y-99654145D01*
X75266657Y-99692630D01*
X75387465Y-99725000D01*
X75512535Y-99725000D01*
X75633343Y-99692630D01*
X75700000Y-99654145D01*
X75700000Y-100599999D01*
X76224972Y-100599999D01*
X76224986Y-100599998D01*
X76327697Y-100589505D01*
X76494119Y-100534358D01*
X76494124Y-100534356D01*
X76643345Y-100442315D01*
X76767315Y-100318345D01*
X76859356Y-100169124D01*
X76859358Y-100169119D01*
X76914505Y-100002697D01*
X76914506Y-100002690D01*
X76924999Y-99899986D01*
X76925000Y-99899973D01*
X76925000Y-99500000D01*
X75854146Y-99500000D01*
X75892630Y-99433343D01*
X75925000Y-99312535D01*
X75925000Y-99187465D01*
X75892630Y-99066657D01*
X75854146Y-99000000D01*
X76924999Y-99000000D01*
X76924999Y-98840691D01*
X93899500Y-98840691D01*
X93899500Y-98959310D01*
X93922443Y-99044937D01*
X93930199Y-99073883D01*
X93930200Y-99073886D01*
X93930201Y-99073887D01*
X93989511Y-99176614D01*
X93989513Y-99176616D01*
X94218818Y-99405922D01*
X94238520Y-99431597D01*
X94264511Y-99476613D01*
X94348387Y-99560489D01*
X94451114Y-99619799D01*
X94565691Y-99650500D01*
X94565694Y-99650500D01*
X97909306Y-99650500D01*
X97909309Y-99650500D01*
X98023886Y-99619799D01*
X98126613Y-99560489D01*
X98171411Y-99515691D01*
X101699500Y-99515691D01*
X101699500Y-99634309D01*
X101730201Y-99748886D01*
X101789511Y-99851613D01*
X101873387Y-99935489D01*
X101976114Y-99994799D01*
X102090691Y-100025500D01*
X105214853Y-100025500D01*
X105281892Y-100045185D01*
X105302534Y-100061819D01*
X105487295Y-100246580D01*
X105590022Y-100305890D01*
X105614230Y-100312375D01*
X105614233Y-100312377D01*
X105614234Y-100312377D01*
X105636507Y-100318345D01*
X105704600Y-100336591D01*
X105704602Y-100336591D01*
X105823217Y-100336591D01*
X105823218Y-100336591D01*
X105913582Y-100312377D01*
X105937796Y-100305890D01*
X106040523Y-100246580D01*
X106124398Y-100162705D01*
X106183708Y-100059978D01*
X106213042Y-99950500D01*
X106213046Y-99950501D01*
X106213046Y-99950482D01*
X106214409Y-99945400D01*
X106214409Y-99826782D01*
X106183708Y-99712205D01*
X106183708Y-99712204D01*
X106124398Y-99609477D01*
X105729432Y-99214511D01*
X105663793Y-99176614D01*
X105626706Y-99155201D01*
X105614598Y-99151957D01*
X105602491Y-99148713D01*
X105602488Y-99148712D01*
X105564296Y-99138478D01*
X105512127Y-99124500D01*
X102090691Y-99124500D01*
X101976114Y-99155201D01*
X101976112Y-99155201D01*
X101976112Y-99155202D01*
X101873387Y-99214511D01*
X101873384Y-99214513D01*
X101789513Y-99298384D01*
X101789511Y-99298387D01*
X101745920Y-99373889D01*
X101730201Y-99401114D01*
X101699500Y-99515691D01*
X98171411Y-99515691D01*
X98210489Y-99476613D01*
X98223224Y-99454554D01*
X98228417Y-99445562D01*
X98228417Y-99445561D01*
X98269797Y-99373889D01*
X98269796Y-99373889D01*
X98269799Y-99373886D01*
X98300500Y-99259309D01*
X98300500Y-99140691D01*
X98269799Y-99026114D01*
X98210489Y-98923387D01*
X98126613Y-98839511D01*
X98023886Y-98780201D01*
X97909309Y-98749500D01*
X97909306Y-98749500D01*
X94887966Y-98749500D01*
X94820927Y-98729815D01*
X94800285Y-98713181D01*
X94626616Y-98539513D01*
X94626614Y-98539511D01*
X94553507Y-98497302D01*
X94523888Y-98480201D01*
X94511780Y-98476957D01*
X94499673Y-98473713D01*
X94499670Y-98473712D01*
X94461478Y-98463478D01*
X94409309Y-98449500D01*
X94290691Y-98449500D01*
X94200325Y-98473713D01*
X94200324Y-98473712D01*
X94176116Y-98480199D01*
X94176113Y-98480200D01*
X94073386Y-98539511D01*
X94073383Y-98539513D01*
X93989513Y-98623383D01*
X93989509Y-98623389D01*
X93930201Y-98726112D01*
X93930200Y-98726117D01*
X93899500Y-98840691D01*
X76924999Y-98840691D01*
X76924999Y-98600028D01*
X76924998Y-98600013D01*
X76914505Y-98497302D01*
X76859358Y-98330880D01*
X76859356Y-98330875D01*
X76767315Y-98181654D01*
X76643345Y-98057684D01*
X76494124Y-97965643D01*
X76494119Y-97965641D01*
X76327697Y-97910494D01*
X76327690Y-97910493D01*
X76224986Y-97900000D01*
X76036476Y-97900000D01*
X75969437Y-97880315D01*
X75923682Y-97827511D01*
X75913738Y-97758353D01*
X75942763Y-97694797D01*
X75989022Y-97661439D01*
X76048914Y-97636632D01*
X76212782Y-97527139D01*
X76352139Y-97387782D01*
X76461632Y-97223914D01*
X76537051Y-97041835D01*
X76575500Y-96848541D01*
X76575500Y-96651459D01*
X76575500Y-96651456D01*
X76537052Y-96458170D01*
X76537051Y-96458169D01*
X76537051Y-96458165D01*
X76482779Y-96327139D01*
X76461635Y-96276092D01*
X76461628Y-96276079D01*
X76352139Y-96112218D01*
X76352136Y-96112214D01*
X76212785Y-95972863D01*
X76212781Y-95972860D01*
X76048920Y-95863371D01*
X76048907Y-95863364D01*
X75866839Y-95787950D01*
X75866829Y-95787947D01*
X75673543Y-95749500D01*
X75673541Y-95749500D01*
X75226459Y-95749500D01*
X75226457Y-95749500D01*
X75033170Y-95787947D01*
X75033160Y-95787950D01*
X74851092Y-95863364D01*
X74851079Y-95863371D01*
X74687218Y-95972860D01*
X74687214Y-95972863D01*
X74547863Y-96112214D01*
X74547860Y-96112218D01*
X74438371Y-96276079D01*
X74438364Y-96276092D01*
X74362950Y-96458160D01*
X74362947Y-96458170D01*
X74324500Y-96651456D01*
X74324500Y-96651459D01*
X74324500Y-96848541D01*
X74324500Y-96848543D01*
X74324499Y-96848543D01*
X74362947Y-97041829D01*
X74362950Y-97041839D01*
X74438364Y-97223907D01*
X74438371Y-97223920D01*
X74547860Y-97387781D01*
X74547863Y-97387785D01*
X74687214Y-97527136D01*
X74687218Y-97527139D01*
X74851079Y-97636628D01*
X74851086Y-97636632D01*
X74910976Y-97661439D01*
X74965379Y-97705279D01*
X74987445Y-97771573D01*
X74970166Y-97839272D01*
X74919030Y-97886883D01*
X74863525Y-97900000D01*
X74675029Y-97900000D01*
X74675012Y-97900001D01*
X74572302Y-97910494D01*
X74405880Y-97965641D01*
X74405875Y-97965643D01*
X74256654Y-98057684D01*
X74132684Y-98181654D01*
X74040643Y-98330875D01*
X74040641Y-98330880D01*
X73985494Y-98497302D01*
X73985493Y-98497309D01*
X73975000Y-98600013D01*
X70300499Y-98600013D01*
X70300499Y-94348543D01*
X74324499Y-94348543D01*
X74362947Y-94541829D01*
X74362950Y-94541839D01*
X74438364Y-94723907D01*
X74438371Y-94723920D01*
X74547860Y-94887781D01*
X74547863Y-94887785D01*
X74687214Y-95027136D01*
X74687218Y-95027139D01*
X74851079Y-95136628D01*
X74851092Y-95136635D01*
X75033160Y-95212049D01*
X75033165Y-95212051D01*
X75033169Y-95212051D01*
X75033170Y-95212052D01*
X75226456Y-95250500D01*
X75226459Y-95250500D01*
X75673543Y-95250500D01*
X75803582Y-95224632D01*
X75866835Y-95212051D01*
X76048914Y-95136632D01*
X76212782Y-95027139D01*
X76352139Y-94887782D01*
X76461632Y-94723914D01*
X76537051Y-94541835D01*
X76565264Y-94399999D01*
X76575500Y-94348543D01*
X76575500Y-94151456D01*
X76566608Y-94106756D01*
X76566608Y-94106755D01*
X76563413Y-94090691D01*
X100149500Y-94090691D01*
X100149500Y-94765694D01*
X100149500Y-95240691D01*
X100149500Y-97790691D01*
X100149500Y-97959309D01*
X100180201Y-98073886D01*
X100239511Y-98176613D01*
X100323387Y-98260489D01*
X100426114Y-98319799D01*
X100540691Y-98350500D01*
X100540694Y-98350500D01*
X100659306Y-98350500D01*
X100659309Y-98350500D01*
X100773886Y-98319799D01*
X100876613Y-98260489D01*
X100960489Y-98176613D01*
X100976695Y-98148543D01*
X123424499Y-98148543D01*
X123462947Y-98341829D01*
X123462950Y-98341839D01*
X123538364Y-98523907D01*
X123538371Y-98523920D01*
X123647860Y-98687781D01*
X123647863Y-98687785D01*
X123787214Y-98827136D01*
X123787218Y-98827139D01*
X123951079Y-98936628D01*
X123951092Y-98936635D01*
X124104071Y-99000000D01*
X124133165Y-99012051D01*
X124133169Y-99012051D01*
X124133170Y-99012052D01*
X124326456Y-99050500D01*
X124326459Y-99050500D01*
X124773543Y-99050500D01*
X124903582Y-99024632D01*
X124966835Y-99012051D01*
X125148914Y-98936632D01*
X125312782Y-98827139D01*
X125452139Y-98687782D01*
X125561632Y-98523914D01*
X125637051Y-98341835D01*
X125653233Y-98260486D01*
X125675500Y-98148543D01*
X125675500Y-97951456D01*
X125637052Y-97758170D01*
X125637051Y-97758169D01*
X125637051Y-97758165D01*
X125615145Y-97705279D01*
X125561635Y-97576092D01*
X125561628Y-97576079D01*
X125452139Y-97412218D01*
X125452136Y-97412214D01*
X125312785Y-97272863D01*
X125312781Y-97272860D01*
X125148920Y-97163371D01*
X125148907Y-97163364D01*
X124966839Y-97087950D01*
X124966829Y-97087947D01*
X124773543Y-97049500D01*
X124773541Y-97049500D01*
X124326459Y-97049500D01*
X124326457Y-97049500D01*
X124133170Y-97087947D01*
X124133160Y-97087950D01*
X123951092Y-97163364D01*
X123951079Y-97163371D01*
X123787218Y-97272860D01*
X123787214Y-97272863D01*
X123647863Y-97412214D01*
X123647860Y-97412218D01*
X123538371Y-97576079D01*
X123538364Y-97576092D01*
X123462950Y-97758160D01*
X123462947Y-97758170D01*
X123424500Y-97951456D01*
X123424500Y-97951459D01*
X123424500Y-98148541D01*
X123424500Y-98148543D01*
X123424499Y-98148543D01*
X100976695Y-98148543D01*
X101019799Y-98073886D01*
X101050500Y-97959309D01*
X101050500Y-97790691D01*
X101050500Y-95240691D01*
X101050500Y-94765694D01*
X101050500Y-94090691D01*
X101019799Y-93976114D01*
X100960489Y-93873387D01*
X100876613Y-93789511D01*
X100773886Y-93730201D01*
X100659309Y-93699500D01*
X100540691Y-93699500D01*
X100426114Y-93730201D01*
X100426112Y-93730201D01*
X100426112Y-93730202D01*
X100323387Y-93789511D01*
X100323384Y-93789513D01*
X100239513Y-93873384D01*
X100239511Y-93873387D01*
X100184240Y-93969119D01*
X100180201Y-93976114D01*
X100149500Y-94090691D01*
X76563413Y-94090691D01*
X76537052Y-93958172D01*
X76537052Y-93958170D01*
X76537051Y-93958165D01*
X76467193Y-93789511D01*
X76461635Y-93776092D01*
X76461628Y-93776079D01*
X76352139Y-93612218D01*
X76352136Y-93612214D01*
X76212785Y-93472863D01*
X76212781Y-93472860D01*
X76048920Y-93363371D01*
X76048910Y-93363366D01*
X76048509Y-93363200D01*
X76048508Y-93363199D01*
X76048507Y-93363199D01*
X75866839Y-93287950D01*
X75866829Y-93287947D01*
X75673543Y-93249500D01*
X75673541Y-93249500D01*
X75226459Y-93249500D01*
X75226457Y-93249500D01*
X75033170Y-93287947D01*
X75033160Y-93287950D01*
X74851092Y-93363364D01*
X74851079Y-93363371D01*
X74687218Y-93472860D01*
X74687214Y-93472863D01*
X74547863Y-93612214D01*
X74547860Y-93612218D01*
X74438371Y-93776079D01*
X74438364Y-93776092D01*
X74362950Y-93958160D01*
X74362947Y-93958170D01*
X74324500Y-94151456D01*
X74324500Y-94151459D01*
X74324500Y-94348541D01*
X74324500Y-94348543D01*
X74324499Y-94348543D01*
X70300499Y-94348543D01*
X70300499Y-92400013D01*
X123075000Y-92400013D01*
X123075000Y-92800000D01*
X124145854Y-92800000D01*
X124107370Y-92866657D01*
X124075000Y-92987465D01*
X124075000Y-93112535D01*
X124107370Y-93233343D01*
X124145854Y-93300000D01*
X123075001Y-93300000D01*
X123075001Y-93699986D01*
X123085494Y-93802697D01*
X123140641Y-93969119D01*
X123140643Y-93969124D01*
X123232684Y-94118345D01*
X123356654Y-94242315D01*
X123505875Y-94334356D01*
X123505880Y-94334358D01*
X123672302Y-94389505D01*
X123672309Y-94389506D01*
X123775019Y-94399999D01*
X123963522Y-94399999D01*
X124030562Y-94419683D01*
X124076317Y-94472487D01*
X124086261Y-94541645D01*
X124057236Y-94605201D01*
X124010977Y-94638560D01*
X123951085Y-94663368D01*
X123951079Y-94663371D01*
X123787218Y-94772860D01*
X123787214Y-94772863D01*
X123647863Y-94912214D01*
X123647860Y-94912218D01*
X123538371Y-95076079D01*
X123538364Y-95076092D01*
X123462950Y-95258160D01*
X123462947Y-95258170D01*
X123424500Y-95451456D01*
X123424500Y-95451459D01*
X123424500Y-95648541D01*
X123424500Y-95648543D01*
X123424499Y-95648543D01*
X123462947Y-95841829D01*
X123462950Y-95841839D01*
X123538364Y-96023907D01*
X123538371Y-96023920D01*
X123647860Y-96187781D01*
X123647863Y-96187785D01*
X123787214Y-96327136D01*
X123787218Y-96327139D01*
X123951079Y-96436628D01*
X123951092Y-96436635D01*
X124133160Y-96512049D01*
X124133165Y-96512051D01*
X124133169Y-96512051D01*
X124133170Y-96512052D01*
X124326456Y-96550500D01*
X124326459Y-96550500D01*
X124773543Y-96550500D01*
X124903582Y-96524632D01*
X124966835Y-96512051D01*
X125148914Y-96436632D01*
X125312782Y-96327139D01*
X125452139Y-96187782D01*
X125561632Y-96023914D01*
X125637051Y-95841835D01*
X125675500Y-95648541D01*
X125675500Y-95451459D01*
X125675500Y-95451456D01*
X125637052Y-95258170D01*
X125637051Y-95258169D01*
X125637051Y-95258165D01*
X125586709Y-95136628D01*
X125561635Y-95076092D01*
X125561628Y-95076079D01*
X125452139Y-94912218D01*
X125452136Y-94912214D01*
X125312785Y-94772863D01*
X125312781Y-94772860D01*
X125148920Y-94663371D01*
X125148907Y-94663364D01*
X125089023Y-94638560D01*
X125034619Y-94594719D01*
X125012554Y-94528425D01*
X125029833Y-94460726D01*
X125080970Y-94413115D01*
X125136475Y-94399999D01*
X125324971Y-94399999D01*
X125324987Y-94399998D01*
X125427697Y-94389505D01*
X125594119Y-94334358D01*
X125594124Y-94334356D01*
X125743345Y-94242315D01*
X125867315Y-94118345D01*
X125959356Y-93969124D01*
X125959358Y-93969119D01*
X126014505Y-93802697D01*
X126014506Y-93802690D01*
X126024999Y-93699986D01*
X126025000Y-93699973D01*
X126025000Y-93300000D01*
X124954146Y-93300000D01*
X124992630Y-93233343D01*
X125025000Y-93112535D01*
X125025000Y-92987465D01*
X124992630Y-92866657D01*
X124954146Y-92800000D01*
X126024999Y-92800000D01*
X126024999Y-92400028D01*
X126024998Y-92400013D01*
X126014505Y-92297302D01*
X125959358Y-92130880D01*
X125959356Y-92130875D01*
X125867315Y-91981654D01*
X125743345Y-91857684D01*
X125594124Y-91765643D01*
X125594119Y-91765641D01*
X125427697Y-91710494D01*
X125427690Y-91710493D01*
X125324986Y-91700000D01*
X124800000Y-91700000D01*
X124800000Y-92645854D01*
X124733343Y-92607370D01*
X124612535Y-92575000D01*
X124487465Y-92575000D01*
X124366657Y-92607370D01*
X124300000Y-92645854D01*
X124300000Y-91700000D01*
X123775028Y-91700000D01*
X123775012Y-91700001D01*
X123672302Y-91710494D01*
X123505880Y-91765641D01*
X123505875Y-91765643D01*
X123356654Y-91857684D01*
X123232684Y-91981654D01*
X123140643Y-92130875D01*
X123140641Y-92130880D01*
X123085494Y-92297302D01*
X123085493Y-92297309D01*
X123075000Y-92400013D01*
X70300499Y-92400013D01*
X70300499Y-89203711D01*
X75049500Y-89203711D01*
X75049500Y-89446288D01*
X75081161Y-89686785D01*
X75143947Y-89921104D01*
X75236773Y-90145205D01*
X75236776Y-90145212D01*
X75358064Y-90355289D01*
X75358066Y-90355292D01*
X75358067Y-90355293D01*
X75505733Y-90547736D01*
X75505739Y-90547743D01*
X75677256Y-90719260D01*
X75677262Y-90719265D01*
X75869711Y-90866936D01*
X76079788Y-90988224D01*
X76303900Y-91081054D01*
X76538211Y-91143838D01*
X76718586Y-91167584D01*
X76778711Y-91175500D01*
X76778712Y-91175500D01*
X77021289Y-91175500D01*
X77069388Y-91169167D01*
X77261789Y-91143838D01*
X77496100Y-91081054D01*
X77720212Y-90988224D01*
X77930289Y-90866936D01*
X78122738Y-90719265D01*
X78294265Y-90547738D01*
X78441936Y-90355289D01*
X78563224Y-90145212D01*
X78656054Y-89921100D01*
X78718838Y-89686789D01*
X78750500Y-89446288D01*
X78750500Y-89203712D01*
X78718838Y-88963211D01*
X78656054Y-88728900D01*
X78563224Y-88504788D01*
X78441936Y-88294711D01*
X78294265Y-88102262D01*
X78294260Y-88102256D01*
X78122743Y-87930739D01*
X78122736Y-87930733D01*
X77930293Y-87783067D01*
X77930292Y-87783066D01*
X77930289Y-87783064D01*
X77720212Y-87661776D01*
X77636591Y-87627139D01*
X77496104Y-87568947D01*
X77261785Y-87506161D01*
X77021289Y-87474500D01*
X77021288Y-87474500D01*
X76778712Y-87474500D01*
X76778711Y-87474500D01*
X76538214Y-87506161D01*
X76303895Y-87568947D01*
X76079794Y-87661773D01*
X76079785Y-87661777D01*
X75869706Y-87783067D01*
X75677263Y-87930733D01*
X75677256Y-87930739D01*
X75505739Y-88102256D01*
X75505733Y-88102263D01*
X75358067Y-88294706D01*
X75236777Y-88504785D01*
X75236773Y-88504794D01*
X75143947Y-88728895D01*
X75081161Y-88963214D01*
X75049500Y-89203711D01*
X70300499Y-89203711D01*
X70300499Y-83760013D01*
X73935000Y-83760013D01*
X73935000Y-84160000D01*
X75001988Y-84160000D01*
X74969075Y-84217007D01*
X74935000Y-84344174D01*
X74935000Y-84475826D01*
X74969075Y-84602993D01*
X75001988Y-84660000D01*
X73935001Y-84660000D01*
X73935001Y-85059986D01*
X73945494Y-85162697D01*
X74000641Y-85329119D01*
X74000643Y-85329124D01*
X74092684Y-85478345D01*
X74216654Y-85602315D01*
X74365875Y-85694356D01*
X74365880Y-85694358D01*
X74532302Y-85749505D01*
X74532309Y-85749506D01*
X74635019Y-85759999D01*
X75184999Y-85759999D01*
X75185000Y-85759998D01*
X75185000Y-84843012D01*
X75242007Y-84875925D01*
X75369174Y-84910000D01*
X75500826Y-84910000D01*
X75627993Y-84875925D01*
X75685000Y-84843012D01*
X75685000Y-85759999D01*
X76234972Y-85759999D01*
X76234986Y-85759998D01*
X76337697Y-85749505D01*
X76504119Y-85694358D01*
X76504124Y-85694356D01*
X76653345Y-85602315D01*
X76777315Y-85478345D01*
X76869356Y-85329124D01*
X76869358Y-85329119D01*
X76924505Y-85162697D01*
X76924506Y-85162690D01*
X76934999Y-85059986D01*
X76935000Y-85059973D01*
X76935000Y-84660000D01*
X75868012Y-84660000D01*
X75900925Y-84602993D01*
X75935000Y-84475826D01*
X75935000Y-84344174D01*
X75900925Y-84217007D01*
X75868012Y-84160000D01*
X76934999Y-84160000D01*
X76934999Y-83760028D01*
X76934998Y-83760010D01*
X76929835Y-83709465D01*
X76928869Y-83700013D01*
X123050000Y-83700013D01*
X123050000Y-84100000D01*
X124116988Y-84100000D01*
X124084075Y-84157007D01*
X124050000Y-84284174D01*
X124050000Y-84415826D01*
X124084075Y-84542993D01*
X124116988Y-84600000D01*
X123050001Y-84600000D01*
X123050001Y-84999986D01*
X123060494Y-85102697D01*
X123115641Y-85269119D01*
X123115643Y-85269124D01*
X123207684Y-85418345D01*
X123331654Y-85542315D01*
X123480875Y-85634356D01*
X123480880Y-85634358D01*
X123647302Y-85689505D01*
X123647309Y-85689506D01*
X123750019Y-85699999D01*
X123938522Y-85699999D01*
X124005562Y-85719683D01*
X124051317Y-85772487D01*
X124061261Y-85841645D01*
X124032236Y-85905201D01*
X123985977Y-85938560D01*
X123926085Y-85963368D01*
X123926079Y-85963371D01*
X123762218Y-86072860D01*
X123762214Y-86072863D01*
X123622863Y-86212214D01*
X123622860Y-86212218D01*
X123513371Y-86376079D01*
X123513364Y-86376092D01*
X123437950Y-86558160D01*
X123437947Y-86558170D01*
X123399500Y-86751456D01*
X123399500Y-86751459D01*
X123399500Y-86948541D01*
X123399500Y-86948543D01*
X123399499Y-86948543D01*
X123437947Y-87141829D01*
X123437950Y-87141839D01*
X123513364Y-87323907D01*
X123513371Y-87323920D01*
X123622860Y-87487781D01*
X123622863Y-87487785D01*
X123762214Y-87627136D01*
X123762218Y-87627139D01*
X123926079Y-87736628D01*
X123926092Y-87736635D01*
X124108160Y-87812049D01*
X124108165Y-87812051D01*
X124108169Y-87812051D01*
X124108170Y-87812052D01*
X124301456Y-87850500D01*
X124301459Y-87850500D01*
X124798543Y-87850500D01*
X124928582Y-87824632D01*
X124991835Y-87812051D01*
X125173914Y-87736632D01*
X125337782Y-87627139D01*
X125477139Y-87487782D01*
X125586632Y-87323914D01*
X125662051Y-87141835D01*
X125700500Y-86948541D01*
X125700500Y-86751459D01*
X125700500Y-86751456D01*
X125662052Y-86558170D01*
X125662051Y-86558169D01*
X125662051Y-86558165D01*
X125662049Y-86558160D01*
X125586635Y-86376092D01*
X125586628Y-86376079D01*
X125477139Y-86212218D01*
X125477136Y-86212214D01*
X125337785Y-86072863D01*
X125337781Y-86072860D01*
X125173920Y-85963371D01*
X125173907Y-85963364D01*
X125114023Y-85938560D01*
X125059619Y-85894719D01*
X125037554Y-85828425D01*
X125054833Y-85760726D01*
X125105970Y-85713115D01*
X125161475Y-85699999D01*
X125349971Y-85699999D01*
X125349987Y-85699998D01*
X125452697Y-85689505D01*
X125619119Y-85634358D01*
X125619124Y-85634356D01*
X125768345Y-85542315D01*
X125892315Y-85418345D01*
X125984356Y-85269124D01*
X125984358Y-85269119D01*
X126039505Y-85102697D01*
X126039506Y-85102690D01*
X126049999Y-84999986D01*
X126050000Y-84999973D01*
X126050000Y-84600000D01*
X124983012Y-84600000D01*
X125015925Y-84542993D01*
X125050000Y-84415826D01*
X125050000Y-84284174D01*
X125015925Y-84157007D01*
X124983012Y-84100000D01*
X126049999Y-84100000D01*
X126049999Y-83700028D01*
X126049998Y-83700013D01*
X126039505Y-83597302D01*
X125984358Y-83430880D01*
X125984356Y-83430875D01*
X125892315Y-83281654D01*
X125768345Y-83157684D01*
X125619124Y-83065643D01*
X125619119Y-83065641D01*
X125452697Y-83010494D01*
X125452690Y-83010493D01*
X125349986Y-83000000D01*
X124800000Y-83000000D01*
X124800000Y-83916988D01*
X124742993Y-83884075D01*
X124615826Y-83850000D01*
X124484174Y-83850000D01*
X124357007Y-83884075D01*
X124300000Y-83916988D01*
X124300000Y-83000000D01*
X123750028Y-83000000D01*
X123750012Y-83000001D01*
X123647302Y-83010494D01*
X123480880Y-83065641D01*
X123480875Y-83065643D01*
X123331654Y-83157684D01*
X123207684Y-83281654D01*
X123115643Y-83430875D01*
X123115641Y-83430880D01*
X123060494Y-83597302D01*
X123060493Y-83597309D01*
X123050000Y-83700013D01*
X76928869Y-83700013D01*
X76924505Y-83657303D01*
X76869358Y-83490880D01*
X76869356Y-83490875D01*
X76777315Y-83341654D01*
X76653345Y-83217684D01*
X76504124Y-83125643D01*
X76504119Y-83125641D01*
X76337697Y-83070494D01*
X76337690Y-83070493D01*
X76234986Y-83060000D01*
X76046476Y-83060000D01*
X75979437Y-83040315D01*
X75933682Y-82987511D01*
X75923738Y-82918353D01*
X75952763Y-82854797D01*
X75999022Y-82821439D01*
X76058914Y-82796632D01*
X76222782Y-82687139D01*
X76362139Y-82547782D01*
X76471632Y-82383914D01*
X76547051Y-82201835D01*
X76585500Y-82008541D01*
X76585500Y-81811459D01*
X76585500Y-81811456D01*
X76547052Y-81618170D01*
X76547051Y-81618169D01*
X76547051Y-81618165D01*
X76547049Y-81618160D01*
X76471635Y-81436092D01*
X76471628Y-81436079D01*
X76362139Y-81272218D01*
X76362136Y-81272214D01*
X76222785Y-81132863D01*
X76222781Y-81132860D01*
X76058920Y-81023371D01*
X76058907Y-81023364D01*
X75876839Y-80947950D01*
X75876829Y-80947947D01*
X75683543Y-80909500D01*
X75683541Y-80909500D01*
X75186459Y-80909500D01*
X75186457Y-80909500D01*
X74993170Y-80947947D01*
X74993160Y-80947950D01*
X74811092Y-81023364D01*
X74811079Y-81023371D01*
X74647218Y-81132860D01*
X74647214Y-81132863D01*
X74507863Y-81272214D01*
X74507860Y-81272218D01*
X74398371Y-81436079D01*
X74398364Y-81436092D01*
X74322950Y-81618160D01*
X74322947Y-81618170D01*
X74284500Y-81811456D01*
X74284500Y-81811459D01*
X74284500Y-82008541D01*
X74284500Y-82008543D01*
X74284499Y-82008543D01*
X74322947Y-82201829D01*
X74322950Y-82201839D01*
X74398364Y-82383907D01*
X74398371Y-82383920D01*
X74507860Y-82547781D01*
X74507863Y-82547785D01*
X74647214Y-82687136D01*
X74647218Y-82687139D01*
X74811079Y-82796628D01*
X74811086Y-82796632D01*
X74870976Y-82821439D01*
X74925379Y-82865279D01*
X74947445Y-82931573D01*
X74930166Y-82999272D01*
X74879030Y-83046883D01*
X74823525Y-83060000D01*
X74635029Y-83060000D01*
X74635012Y-83060001D01*
X74532302Y-83070494D01*
X74365880Y-83125641D01*
X74365875Y-83125643D01*
X74216654Y-83217684D01*
X74092684Y-83341654D01*
X74000643Y-83490875D01*
X74000641Y-83490880D01*
X73945494Y-83657302D01*
X73945493Y-83657309D01*
X73935000Y-83760013D01*
X70300499Y-83760013D01*
X70300499Y-79003711D01*
X123974500Y-79003711D01*
X123974500Y-79246288D01*
X124006161Y-79486785D01*
X124068947Y-79721104D01*
X124161773Y-79945205D01*
X124161776Y-79945212D01*
X124283064Y-80155289D01*
X124283066Y-80155292D01*
X124283067Y-80155293D01*
X124430733Y-80347736D01*
X124430739Y-80347743D01*
X124602256Y-80519260D01*
X124602262Y-80519265D01*
X124794711Y-80666936D01*
X125004788Y-80788224D01*
X125228900Y-80881054D01*
X125463211Y-80943838D01*
X125643586Y-80967584D01*
X125703711Y-80975500D01*
X125703712Y-80975500D01*
X125946289Y-80975500D01*
X125994388Y-80969167D01*
X126186789Y-80943838D01*
X126421100Y-80881054D01*
X126645212Y-80788224D01*
X126855289Y-80666936D01*
X127047738Y-80519265D01*
X127219265Y-80347738D01*
X127366936Y-80155289D01*
X127488224Y-79945212D01*
X127581054Y-79721100D01*
X127643838Y-79486789D01*
X127675500Y-79246288D01*
X127675500Y-79003712D01*
X127643838Y-78763211D01*
X127581054Y-78528900D01*
X127488224Y-78304788D01*
X127366936Y-78094711D01*
X127219265Y-77902262D01*
X127219260Y-77902256D01*
X127047743Y-77730739D01*
X127047736Y-77730733D01*
X126855293Y-77583067D01*
X126855292Y-77583066D01*
X126855289Y-77583064D01*
X126645212Y-77461776D01*
X126645205Y-77461773D01*
X126421104Y-77368947D01*
X126186785Y-77306161D01*
X125946289Y-77274500D01*
X125946288Y-77274500D01*
X125703712Y-77274500D01*
X125703711Y-77274500D01*
X125463214Y-77306161D01*
X125228895Y-77368947D01*
X125004794Y-77461773D01*
X125004785Y-77461777D01*
X124794706Y-77583067D01*
X124602263Y-77730733D01*
X124602256Y-77730739D01*
X124430739Y-77902256D01*
X124430733Y-77902263D01*
X124283067Y-78094706D01*
X124161777Y-78304785D01*
X124161773Y-78304794D01*
X124068947Y-78528895D01*
X124006161Y-78763214D01*
X123974500Y-79003711D01*
X70300499Y-79003711D01*
X70300499Y-74950013D01*
X73975000Y-74950013D01*
X73975000Y-75350000D01*
X75045854Y-75350000D01*
X75007370Y-75416657D01*
X74975000Y-75537465D01*
X74975000Y-75662535D01*
X75007370Y-75783343D01*
X75045854Y-75850000D01*
X73975001Y-75850000D01*
X73975001Y-76249986D01*
X73985494Y-76352697D01*
X74040641Y-76519119D01*
X74040643Y-76519124D01*
X74132684Y-76668345D01*
X74256654Y-76792315D01*
X74405875Y-76884356D01*
X74405880Y-76884358D01*
X74572302Y-76939505D01*
X74572309Y-76939506D01*
X74675019Y-76949999D01*
X75199999Y-76949999D01*
X75200000Y-76949998D01*
X75200000Y-76004145D01*
X75266657Y-76042630D01*
X75387465Y-76075000D01*
X75512535Y-76075000D01*
X75633343Y-76042630D01*
X75700000Y-76004145D01*
X75700000Y-76949999D01*
X76224972Y-76949999D01*
X76224986Y-76949998D01*
X76327697Y-76939505D01*
X76494119Y-76884358D01*
X76494124Y-76884356D01*
X76643345Y-76792315D01*
X76767315Y-76668345D01*
X76859356Y-76519124D01*
X76859358Y-76519119D01*
X76914505Y-76352697D01*
X76914506Y-76352690D01*
X76924999Y-76249986D01*
X76925000Y-76249973D01*
X76925000Y-75850000D01*
X75854146Y-75850000D01*
X75892630Y-75783343D01*
X75925000Y-75662535D01*
X75925000Y-75537465D01*
X75892630Y-75416657D01*
X75854146Y-75350000D01*
X76924999Y-75350000D01*
X76924999Y-74950028D01*
X76924998Y-74950013D01*
X76914505Y-74847302D01*
X76859358Y-74680880D01*
X76859356Y-74680875D01*
X76767315Y-74531654D01*
X76643345Y-74407684D01*
X76494124Y-74315643D01*
X76494119Y-74315641D01*
X76327697Y-74260494D01*
X76327690Y-74260493D01*
X76224986Y-74250000D01*
X76036476Y-74250000D01*
X75969437Y-74230315D01*
X75923682Y-74177511D01*
X75913738Y-74108353D01*
X75918218Y-74098543D01*
X123374499Y-74098543D01*
X123412947Y-74291829D01*
X123412950Y-74291839D01*
X123488364Y-74473907D01*
X123488371Y-74473920D01*
X123597860Y-74637781D01*
X123597863Y-74637785D01*
X123737214Y-74777136D01*
X123737218Y-74777139D01*
X123901079Y-74886628D01*
X123901092Y-74886635D01*
X124083160Y-74962049D01*
X124083165Y-74962051D01*
X124083169Y-74962051D01*
X124083170Y-74962052D01*
X124276456Y-75000500D01*
X124276459Y-75000500D01*
X124723543Y-75000500D01*
X124853582Y-74974632D01*
X124916835Y-74962051D01*
X125098914Y-74886632D01*
X125262782Y-74777139D01*
X125402139Y-74637782D01*
X125511632Y-74473914D01*
X125587051Y-74291835D01*
X125620919Y-74121573D01*
X125625500Y-74098543D01*
X125625500Y-73901456D01*
X125587052Y-73708170D01*
X125587051Y-73708169D01*
X125587051Y-73708165D01*
X125542248Y-73600000D01*
X125511635Y-73526092D01*
X125511628Y-73526079D01*
X125402139Y-73362218D01*
X125402136Y-73362214D01*
X125262785Y-73222863D01*
X125262781Y-73222860D01*
X125098920Y-73113371D01*
X125098907Y-73113364D01*
X124916839Y-73037950D01*
X124916829Y-73037947D01*
X124723543Y-72999500D01*
X124723541Y-72999500D01*
X124276459Y-72999500D01*
X124276457Y-72999500D01*
X124083170Y-73037947D01*
X124083160Y-73037950D01*
X123901092Y-73113364D01*
X123901079Y-73113371D01*
X123737218Y-73222860D01*
X123737214Y-73222863D01*
X123597863Y-73362214D01*
X123597860Y-73362218D01*
X123488371Y-73526079D01*
X123488364Y-73526092D01*
X123412950Y-73708160D01*
X123412947Y-73708170D01*
X123374500Y-73901456D01*
X123374500Y-73901459D01*
X123374500Y-74098541D01*
X123374500Y-74098543D01*
X123374499Y-74098543D01*
X75918218Y-74098543D01*
X75942763Y-74044797D01*
X75989022Y-74011439D01*
X76048914Y-73986632D01*
X76212782Y-73877139D01*
X76212785Y-73877136D01*
X76282236Y-73807686D01*
X76352136Y-73737785D01*
X76352139Y-73737782D01*
X76461632Y-73573914D01*
X76537051Y-73391835D01*
X76568119Y-73235647D01*
X76575500Y-73198543D01*
X76575500Y-73001456D01*
X76537052Y-72808170D01*
X76537051Y-72808169D01*
X76537051Y-72808165D01*
X76480957Y-72672741D01*
X76461635Y-72626092D01*
X76461628Y-72626079D01*
X76352139Y-72462218D01*
X76352136Y-72462214D01*
X76212785Y-72322863D01*
X76212781Y-72322860D01*
X76048920Y-72213371D01*
X76048907Y-72213364D01*
X75866839Y-72137950D01*
X75866829Y-72137947D01*
X75673543Y-72099500D01*
X75673541Y-72099500D01*
X75226459Y-72099500D01*
X75226457Y-72099500D01*
X75033170Y-72137947D01*
X75033160Y-72137950D01*
X74851092Y-72213364D01*
X74851079Y-72213371D01*
X74687218Y-72322860D01*
X74687214Y-72322863D01*
X74547863Y-72462214D01*
X74547860Y-72462218D01*
X74438371Y-72626079D01*
X74438364Y-72626092D01*
X74362950Y-72808160D01*
X74362947Y-72808170D01*
X74324500Y-73001456D01*
X74324500Y-73001459D01*
X74324500Y-73198541D01*
X74324500Y-73198543D01*
X74324499Y-73198543D01*
X74362947Y-73391829D01*
X74362950Y-73391839D01*
X74438364Y-73573907D01*
X74438371Y-73573920D01*
X74547860Y-73737781D01*
X74547863Y-73737785D01*
X74687214Y-73877136D01*
X74687218Y-73877139D01*
X74851079Y-73986628D01*
X74851086Y-73986632D01*
X74910976Y-74011439D01*
X74965379Y-74055279D01*
X74987445Y-74121573D01*
X74970166Y-74189272D01*
X74919030Y-74236883D01*
X74863525Y-74250000D01*
X74675029Y-74250000D01*
X74675012Y-74250001D01*
X74572302Y-74260494D01*
X74405880Y-74315641D01*
X74405875Y-74315643D01*
X74256654Y-74407684D01*
X74132684Y-74531654D01*
X74040643Y-74680875D01*
X74040641Y-74680880D01*
X73985494Y-74847302D01*
X73985493Y-74847309D01*
X73975000Y-74950013D01*
X70300499Y-74950013D01*
X70300499Y-71718475D01*
X110167121Y-71718475D01*
X110167121Y-72881517D01*
X110177913Y-72949657D01*
X110181975Y-72975304D01*
X110239571Y-73088342D01*
X110239573Y-73088344D01*
X110239575Y-73088347D01*
X110329273Y-73178045D01*
X110329275Y-73178046D01*
X110329279Y-73178050D01*
X110442315Y-73235645D01*
X110442319Y-73235647D01*
X110536096Y-73250499D01*
X110536102Y-73250500D01*
X111699139Y-73250499D01*
X111792925Y-73235646D01*
X111905963Y-73178050D01*
X111995671Y-73088342D01*
X112053267Y-72975304D01*
X112053267Y-72975302D01*
X112053268Y-72975301D01*
X112068120Y-72881524D01*
X112068121Y-72881519D01*
X112068120Y-72197682D01*
X112317621Y-72197682D01*
X112317621Y-72402317D01*
X112349630Y-72604417D01*
X112412865Y-72799031D01*
X112505762Y-72981350D01*
X112505768Y-72981359D01*
X112538144Y-73025921D01*
X112538145Y-73025922D01*
X113217621Y-72346446D01*
X113217621Y-72352661D01*
X113244880Y-72454394D01*
X113297541Y-72545606D01*
X113372015Y-72620080D01*
X113463227Y-72672741D01*
X113564960Y-72700000D01*
X113571174Y-72700000D01*
X112891697Y-73379474D01*
X112936271Y-73411859D01*
X113118589Y-73504755D01*
X113313203Y-73567990D01*
X113515304Y-73600000D01*
X113719938Y-73600000D01*
X113922038Y-73567990D01*
X114116652Y-73504755D01*
X114298970Y-73411859D01*
X114343542Y-73379474D01*
X113664068Y-72700000D01*
X113670282Y-72700000D01*
X113772015Y-72672741D01*
X113863227Y-72620080D01*
X113937701Y-72545606D01*
X113990362Y-72454394D01*
X114017621Y-72352661D01*
X114017621Y-72346447D01*
X114697095Y-73025921D01*
X114729480Y-72981349D01*
X114822376Y-72799031D01*
X114885611Y-72604417D01*
X114917621Y-72402317D01*
X114917621Y-72197682D01*
X114885611Y-71995582D01*
X114822376Y-71800968D01*
X114729480Y-71618650D01*
X114697095Y-71574077D01*
X114697095Y-71574076D01*
X114017621Y-72253551D01*
X114017621Y-72247339D01*
X113990362Y-72145606D01*
X113937701Y-72054394D01*
X113863227Y-71979920D01*
X113772015Y-71927259D01*
X113670282Y-71900000D01*
X113664067Y-71900000D01*
X114343543Y-71220524D01*
X114343542Y-71220523D01*
X114298980Y-71188147D01*
X114298971Y-71188141D01*
X114116652Y-71095244D01*
X113922038Y-71032009D01*
X113719938Y-71000000D01*
X113515304Y-71000000D01*
X113313203Y-71032009D01*
X113118589Y-71095244D01*
X112936265Y-71188143D01*
X112891698Y-71220523D01*
X112891698Y-71220524D01*
X113571175Y-71900000D01*
X113564960Y-71900000D01*
X113463227Y-71927259D01*
X113372015Y-71979920D01*
X113297541Y-72054394D01*
X113244880Y-72145606D01*
X113217621Y-72247339D01*
X113217621Y-72253553D01*
X112538145Y-71574077D01*
X112538144Y-71574077D01*
X112505764Y-71618644D01*
X112412865Y-71800968D01*
X112349630Y-71995582D01*
X112317621Y-72197682D01*
X112068120Y-72197682D01*
X112068120Y-71718482D01*
X112053267Y-71624696D01*
X111995671Y-71511658D01*
X111995667Y-71511654D01*
X111995666Y-71511652D01*
X111905968Y-71421954D01*
X111905965Y-71421952D01*
X111905963Y-71421950D01*
X111809083Y-71372587D01*
X111792922Y-71364352D01*
X111699145Y-71349500D01*
X110536103Y-71349500D01*
X110455140Y-71362323D01*
X110442317Y-71364354D01*
X110329279Y-71421950D01*
X110329278Y-71421951D01*
X110329273Y-71421954D01*
X110239575Y-71511652D01*
X110239572Y-71511657D01*
X110181973Y-71624698D01*
X110167121Y-71718475D01*
X70300499Y-71718475D01*
X70300499Y-70698543D01*
X74324499Y-70698543D01*
X74362947Y-70891829D01*
X74362950Y-70891839D01*
X74438364Y-71073907D01*
X74438371Y-71073920D01*
X74547860Y-71237781D01*
X74547863Y-71237785D01*
X74687214Y-71377136D01*
X74687218Y-71377139D01*
X74851079Y-71486628D01*
X74851092Y-71486635D01*
X75033160Y-71562049D01*
X75033165Y-71562051D01*
X75033169Y-71562051D01*
X75033170Y-71562052D01*
X75226456Y-71600500D01*
X75226459Y-71600500D01*
X75673543Y-71600500D01*
X75716315Y-71591992D01*
X75815455Y-71572271D01*
X75866835Y-71562051D01*
X76048914Y-71486632D01*
X76212782Y-71377139D01*
X76352139Y-71237782D01*
X76461632Y-71073914D01*
X76537051Y-70891835D01*
X76570662Y-70722863D01*
X76575500Y-70698543D01*
X76575500Y-70501456D01*
X76537052Y-70308170D01*
X76537051Y-70308169D01*
X76537051Y-70308165D01*
X76489065Y-70192315D01*
X76461635Y-70126092D01*
X76461628Y-70126079D01*
X76352139Y-69962218D01*
X76352136Y-69962214D01*
X76212785Y-69822863D01*
X76212781Y-69822860D01*
X76048920Y-69713371D01*
X76048907Y-69713364D01*
X75866839Y-69637950D01*
X75866829Y-69637947D01*
X75673543Y-69599500D01*
X75673541Y-69599500D01*
X75226459Y-69599500D01*
X75226457Y-69599500D01*
X75033170Y-69637947D01*
X75033160Y-69637950D01*
X74851092Y-69713364D01*
X74851079Y-69713371D01*
X74687218Y-69822860D01*
X74687214Y-69822863D01*
X74547863Y-69962214D01*
X74547860Y-69962218D01*
X74438371Y-70126079D01*
X74438364Y-70126092D01*
X74362950Y-70308160D01*
X74362947Y-70308170D01*
X74324500Y-70501456D01*
X74324500Y-70501459D01*
X74324500Y-70698541D01*
X74324500Y-70698543D01*
X74324499Y-70698543D01*
X70300499Y-70698543D01*
X70300499Y-68818475D01*
X79817121Y-68818475D01*
X79817121Y-69981517D01*
X79827913Y-70049657D01*
X79831975Y-70075304D01*
X79889571Y-70188342D01*
X79889573Y-70188344D01*
X79889575Y-70188347D01*
X79979273Y-70278045D01*
X79979275Y-70278046D01*
X79979279Y-70278050D01*
X80092315Y-70335645D01*
X80092319Y-70335647D01*
X80179737Y-70349491D01*
X80182932Y-70349998D01*
X80186096Y-70350499D01*
X80186102Y-70350500D01*
X81349139Y-70350499D01*
X81442925Y-70335646D01*
X81555963Y-70278050D01*
X81645671Y-70188342D01*
X81703267Y-70075304D01*
X81703267Y-70075302D01*
X81703268Y-70075301D01*
X81718120Y-69981524D01*
X81718121Y-69981519D01*
X81718120Y-69297682D01*
X81967621Y-69297682D01*
X81967621Y-69502317D01*
X81999630Y-69704417D01*
X82062865Y-69899031D01*
X82155762Y-70081350D01*
X82155768Y-70081359D01*
X82188144Y-70125921D01*
X82188145Y-70125922D01*
X82867621Y-69446446D01*
X82867621Y-69452661D01*
X82894880Y-69554394D01*
X82947541Y-69645606D01*
X83022015Y-69720080D01*
X83113227Y-69772741D01*
X83214960Y-69800000D01*
X83221174Y-69800000D01*
X82541697Y-70479474D01*
X82586271Y-70511859D01*
X82768589Y-70604755D01*
X82963203Y-70667990D01*
X83165304Y-70700000D01*
X83369938Y-70700000D01*
X83572038Y-70667990D01*
X83766652Y-70604755D01*
X83948970Y-70511859D01*
X83993542Y-70479474D01*
X83314068Y-69800000D01*
X83320282Y-69800000D01*
X83422015Y-69772741D01*
X83513227Y-69720080D01*
X83587701Y-69645606D01*
X83640362Y-69554394D01*
X83667621Y-69452661D01*
X83667621Y-69446447D01*
X84347095Y-70125921D01*
X84379480Y-70081349D01*
X84472376Y-69899031D01*
X84535611Y-69704417D01*
X84567621Y-69502317D01*
X84567621Y-69297682D01*
X84555006Y-69218036D01*
X84535611Y-69095582D01*
X84472376Y-68900968D01*
X84379480Y-68718650D01*
X84347095Y-68674077D01*
X84347095Y-68674076D01*
X83667621Y-69353551D01*
X83667621Y-69347339D01*
X83640362Y-69245606D01*
X83587701Y-69154394D01*
X83513227Y-69079920D01*
X83422015Y-69027259D01*
X83320282Y-69000000D01*
X83314067Y-69000000D01*
X83993543Y-68320524D01*
X83993542Y-68320523D01*
X83948980Y-68288147D01*
X83948971Y-68288141D01*
X83766652Y-68195244D01*
X83572038Y-68132009D01*
X83369938Y-68100000D01*
X83165304Y-68100000D01*
X82963203Y-68132009D01*
X82768589Y-68195244D01*
X82586265Y-68288143D01*
X82541698Y-68320523D01*
X82541698Y-68320524D01*
X83221175Y-69000000D01*
X83214960Y-69000000D01*
X83113227Y-69027259D01*
X83022015Y-69079920D01*
X82947541Y-69154394D01*
X82894880Y-69245606D01*
X82867621Y-69347339D01*
X82867621Y-69353553D01*
X82188145Y-68674077D01*
X82188144Y-68674077D01*
X82155764Y-68718644D01*
X82062865Y-68900968D01*
X81999630Y-69095582D01*
X81967621Y-69297682D01*
X81718120Y-69297682D01*
X81718120Y-68818482D01*
X81703267Y-68724696D01*
X81645671Y-68611658D01*
X81645667Y-68611654D01*
X81645666Y-68611652D01*
X81555968Y-68521954D01*
X81555965Y-68521952D01*
X81555963Y-68521950D01*
X81448081Y-68466981D01*
X81442922Y-68464352D01*
X81349145Y-68449500D01*
X80186103Y-68449500D01*
X80105140Y-68462323D01*
X80092317Y-68464354D01*
X79979279Y-68521950D01*
X79979278Y-68521951D01*
X79979273Y-68521954D01*
X79889575Y-68611652D01*
X79889572Y-68611657D01*
X79831973Y-68724698D01*
X79817121Y-68818475D01*
X70300499Y-68818475D01*
X70300499Y-67903750D01*
X70300725Y-67896263D01*
X70309960Y-67743592D01*
X116773500Y-67743592D01*
X116773500Y-67906407D01*
X116805259Y-68066073D01*
X116805262Y-68066082D01*
X116867562Y-68216490D01*
X116867563Y-68216492D01*
X116958015Y-68351862D01*
X116958018Y-68351866D01*
X117073133Y-68466981D01*
X117073137Y-68466984D01*
X117208505Y-68557435D01*
X117208506Y-68557435D01*
X117208507Y-68557436D01*
X117208509Y-68557437D01*
X117308781Y-68598970D01*
X117358919Y-68619738D01*
X117358921Y-68619738D01*
X117358926Y-68619740D01*
X117518592Y-68651499D01*
X117518595Y-68651500D01*
X117518597Y-68651500D01*
X117681405Y-68651500D01*
X117681406Y-68651499D01*
X117734629Y-68640912D01*
X117841073Y-68619740D01*
X117841076Y-68619738D01*
X117841081Y-68619738D01*
X117991495Y-68557435D01*
X118126863Y-68466984D01*
X118241984Y-68351863D01*
X118243220Y-68350013D01*
X123025000Y-68350013D01*
X123025000Y-68750000D01*
X124095854Y-68750000D01*
X124057370Y-68816657D01*
X124025000Y-68937465D01*
X124025000Y-69062535D01*
X124057370Y-69183343D01*
X124095854Y-69250000D01*
X123025001Y-69250000D01*
X123025001Y-69649986D01*
X123035494Y-69752697D01*
X123090641Y-69919119D01*
X123090643Y-69919124D01*
X123182684Y-70068345D01*
X123306654Y-70192315D01*
X123455875Y-70284356D01*
X123455880Y-70284358D01*
X123622302Y-70339505D01*
X123622309Y-70339506D01*
X123725019Y-70349999D01*
X123913522Y-70349999D01*
X123980562Y-70369683D01*
X124026317Y-70422487D01*
X124036261Y-70491645D01*
X124007236Y-70555201D01*
X123960977Y-70588560D01*
X123901085Y-70613368D01*
X123901079Y-70613371D01*
X123737218Y-70722860D01*
X123737214Y-70722863D01*
X123597863Y-70862214D01*
X123597860Y-70862218D01*
X123488371Y-71026079D01*
X123488364Y-71026092D01*
X123412950Y-71208160D01*
X123412947Y-71208170D01*
X123374500Y-71401456D01*
X123374500Y-71401459D01*
X123374500Y-71598541D01*
X123374500Y-71598543D01*
X123374499Y-71598543D01*
X123412947Y-71791829D01*
X123412950Y-71791839D01*
X123488364Y-71973907D01*
X123488371Y-71973920D01*
X123597860Y-72137781D01*
X123597863Y-72137785D01*
X123737214Y-72277136D01*
X123737218Y-72277139D01*
X123901079Y-72386628D01*
X123901092Y-72386635D01*
X124064679Y-72454394D01*
X124083165Y-72462051D01*
X124083169Y-72462051D01*
X124083170Y-72462052D01*
X124276456Y-72500500D01*
X124276459Y-72500500D01*
X124723543Y-72500500D01*
X124853582Y-72474632D01*
X124916835Y-72462051D01*
X125098914Y-72386632D01*
X125262782Y-72277139D01*
X125402139Y-72137782D01*
X125511632Y-71973914D01*
X125587051Y-71791835D01*
X125620297Y-71624698D01*
X125625500Y-71598543D01*
X125625500Y-71401456D01*
X125587052Y-71208170D01*
X125587051Y-71208169D01*
X125587051Y-71208165D01*
X125540278Y-71095244D01*
X125511635Y-71026092D01*
X125511628Y-71026079D01*
X125402139Y-70862218D01*
X125402136Y-70862214D01*
X125262785Y-70722863D01*
X125262781Y-70722860D01*
X125098920Y-70613371D01*
X125098907Y-70613364D01*
X125039023Y-70588560D01*
X124984619Y-70544719D01*
X124962554Y-70478425D01*
X124979833Y-70410726D01*
X125030970Y-70363115D01*
X125086475Y-70349999D01*
X125274971Y-70349999D01*
X125274987Y-70349998D01*
X125377697Y-70339505D01*
X125544119Y-70284358D01*
X125544124Y-70284356D01*
X125693345Y-70192315D01*
X125817315Y-70068345D01*
X125909356Y-69919124D01*
X125909358Y-69919119D01*
X125964505Y-69752697D01*
X125964506Y-69752690D01*
X125974999Y-69649986D01*
X125975000Y-69649973D01*
X125975000Y-69250000D01*
X124904146Y-69250000D01*
X124942630Y-69183343D01*
X124975000Y-69062535D01*
X124975000Y-68937465D01*
X124942630Y-68816657D01*
X124904146Y-68750000D01*
X125974999Y-68750000D01*
X125974999Y-68350028D01*
X125974998Y-68350013D01*
X125964505Y-68247302D01*
X125909358Y-68080880D01*
X125909356Y-68080875D01*
X125817315Y-67931654D01*
X125693345Y-67807684D01*
X125544124Y-67715643D01*
X125544119Y-67715641D01*
X125377697Y-67660494D01*
X125377690Y-67660493D01*
X125274986Y-67650000D01*
X124750000Y-67650000D01*
X124750000Y-68595854D01*
X124683343Y-68557370D01*
X124562535Y-68525000D01*
X124437465Y-68525000D01*
X124316657Y-68557370D01*
X124250000Y-68595854D01*
X124250000Y-67650000D01*
X123725028Y-67650000D01*
X123725012Y-67650001D01*
X123622302Y-67660494D01*
X123455880Y-67715641D01*
X123455875Y-67715643D01*
X123306654Y-67807684D01*
X123182684Y-67931654D01*
X123090643Y-68080875D01*
X123090641Y-68080880D01*
X123035494Y-68247302D01*
X123035493Y-68247309D01*
X123025000Y-68350013D01*
X118243220Y-68350013D01*
X118332435Y-68216495D01*
X118394738Y-68066081D01*
X118426500Y-67906403D01*
X118426500Y-67743597D01*
X118426500Y-67743594D01*
X118426499Y-67743592D01*
X118394740Y-67583926D01*
X118394737Y-67583917D01*
X118332437Y-67433509D01*
X118332436Y-67433507D01*
X118297352Y-67381001D01*
X118241984Y-67298137D01*
X118241981Y-67298133D01*
X118126866Y-67183018D01*
X118126862Y-67183015D01*
X117991492Y-67092563D01*
X117991490Y-67092562D01*
X117841082Y-67030262D01*
X117841073Y-67030259D01*
X117681406Y-66998500D01*
X117681403Y-66998500D01*
X117518597Y-66998500D01*
X117518594Y-66998500D01*
X117358926Y-67030259D01*
X117358917Y-67030262D01*
X117208509Y-67092562D01*
X117208507Y-67092563D01*
X117073137Y-67183015D01*
X117073133Y-67183018D01*
X116958018Y-67298133D01*
X116958015Y-67298137D01*
X116867563Y-67433507D01*
X116867562Y-67433509D01*
X116805262Y-67583917D01*
X116805259Y-67583926D01*
X116773500Y-67743592D01*
X70309960Y-67743592D01*
X70310781Y-67730018D01*
X70311651Y-67715641D01*
X70316083Y-67642359D01*
X70317888Y-67627500D01*
X70325874Y-67583926D01*
X70363061Y-67380995D01*
X70366644Y-67366461D01*
X70387936Y-67298133D01*
X70441201Y-67127201D01*
X70446503Y-67113218D01*
X70549360Y-66884679D01*
X70556319Y-66871421D01*
X70685974Y-66656945D01*
X70694461Y-66644649D01*
X70849033Y-66447353D01*
X70858948Y-66436162D01*
X71036162Y-66258948D01*
X71047353Y-66249033D01*
X71244649Y-66094461D01*
X71256945Y-66085974D01*
X71471432Y-65956312D01*
X71484665Y-65949367D01*
X71713222Y-65846502D01*
X71727203Y-65841200D01*
X71966461Y-65766644D01*
X71980991Y-65763062D01*
X72227504Y-65717887D01*
X72242362Y-65716083D01*
X72496246Y-65700726D01*
X72503733Y-65700500D01*
X90047157Y-65700500D01*
X90047173Y-65700499D01*
X90157275Y-65700499D01*
X90157276Y-65700498D01*
X90317010Y-65682501D01*
X90469824Y-65665284D01*
X90469827Y-65665283D01*
X90469839Y-65665282D01*
X90776498Y-65595289D01*
X91073393Y-65491401D01*
X91356788Y-65354925D01*
X91623122Y-65187577D01*
X91869043Y-64991461D01*
X92091460Y-64769044D01*
X92287576Y-64523122D01*
X92454925Y-64256789D01*
X92591401Y-63973394D01*
X92695288Y-63676499D01*
X92765281Y-63369840D01*
X92800499Y-63057273D01*
X92800499Y-62900000D01*
X92800499Y-62852405D01*
X92800499Y-55535926D01*
X94849501Y-55535926D01*
X94849501Y-55664073D01*
X94874497Y-55789736D01*
X94874499Y-55789744D01*
X94923534Y-55908125D01*
X94994726Y-56014673D01*
X95710324Y-56730271D01*
X95710331Y-56730277D01*
X95816871Y-56801464D01*
X95816870Y-56801464D01*
X95851544Y-56815826D01*
X95935256Y-56850501D01*
X95935260Y-56850501D01*
X95935261Y-56850502D01*
X96060928Y-56875500D01*
X96060931Y-56875500D01*
X97339071Y-56875500D01*
X97423615Y-56858682D01*
X97464744Y-56850501D01*
X97583127Y-56801465D01*
X97689669Y-56730277D01*
X101358126Y-53061818D01*
X101419449Y-53028334D01*
X101445807Y-53025500D01*
X104384217Y-53025500D01*
X104451256Y-53045185D01*
X104471893Y-53061814D01*
X104562215Y-53152136D01*
X104562219Y-53152140D01*
X104726079Y-53261628D01*
X104726092Y-53261635D01*
X104904773Y-53335646D01*
X104908165Y-53337051D01*
X104908169Y-53337051D01*
X104908170Y-53337052D01*
X105101456Y-53375500D01*
X105101459Y-53375500D01*
X105598543Y-53375500D01*
X105728582Y-53349632D01*
X105791835Y-53337051D01*
X105973914Y-53261632D01*
X106137782Y-53152139D01*
X106277139Y-53012782D01*
X106386632Y-52848914D01*
X106462051Y-52666835D01*
X106500500Y-52473541D01*
X106500500Y-52276459D01*
X106500500Y-52276456D01*
X106462052Y-52083170D01*
X106462051Y-52083169D01*
X106462051Y-52083165D01*
X106462049Y-52083160D01*
X106386635Y-51901092D01*
X106386628Y-51901079D01*
X106277139Y-51737218D01*
X106277136Y-51737214D01*
X106137785Y-51597863D01*
X106137781Y-51597860D01*
X105973920Y-51488371D01*
X105973907Y-51488364D01*
X105791839Y-51412950D01*
X105791829Y-51412947D01*
X105598543Y-51374500D01*
X105598541Y-51374500D01*
X105101459Y-51374500D01*
X105101457Y-51374500D01*
X104908170Y-51412947D01*
X104908160Y-51412950D01*
X104726092Y-51488364D01*
X104726079Y-51488371D01*
X104562219Y-51597859D01*
X104535383Y-51624696D01*
X104471896Y-51688182D01*
X104410576Y-51721666D01*
X104384217Y-51724500D01*
X101060929Y-51724500D01*
X100935261Y-51749497D01*
X100935255Y-51749499D01*
X100816875Y-51798533D01*
X100816866Y-51798538D01*
X100710331Y-51869723D01*
X100710327Y-51869726D01*
X97041873Y-55538181D01*
X96980550Y-55571666D01*
X96954192Y-55574500D01*
X96445808Y-55574500D01*
X96378769Y-55554815D01*
X96358127Y-55538181D01*
X95914674Y-55094727D01*
X95914673Y-55094726D01*
X95914669Y-55094723D01*
X95808127Y-55023535D01*
X95689744Y-54974499D01*
X95689736Y-54974497D01*
X95564073Y-54949501D01*
X95564069Y-54949501D01*
X95435931Y-54949501D01*
X95435926Y-54949501D01*
X95310263Y-54974497D01*
X95310255Y-54974499D01*
X95191874Y-55023534D01*
X95085326Y-55094726D01*
X94994726Y-55185326D01*
X94923534Y-55291874D01*
X94874499Y-55410255D01*
X94874497Y-55410263D01*
X94849501Y-55535926D01*
X92800499Y-55535926D01*
X92800499Y-50386608D01*
X92820184Y-50319569D01*
X92872988Y-50273814D01*
X92942146Y-50263870D01*
X93005702Y-50292895D01*
X93042430Y-50348291D01*
X93048903Y-50368215D01*
X93145379Y-50557557D01*
X93270272Y-50729459D01*
X93270276Y-50729464D01*
X93420535Y-50879723D01*
X93420540Y-50879727D01*
X93592442Y-51004620D01*
X93781782Y-51101095D01*
X93801705Y-51107568D01*
X93859382Y-51147004D01*
X93886581Y-51211362D01*
X93874669Y-51280209D01*
X93827426Y-51331686D01*
X93763391Y-51349500D01*
X93668482Y-51349500D01*
X93587519Y-51362323D01*
X93574696Y-51364354D01*
X93461658Y-51421950D01*
X93461657Y-51421951D01*
X93461652Y-51421954D01*
X93371954Y-51511652D01*
X93371951Y-51511657D01*
X93314352Y-51624698D01*
X93299500Y-51718475D01*
X93299500Y-52981517D01*
X93305185Y-53017409D01*
X93314354Y-53075304D01*
X93371950Y-53188342D01*
X93371952Y-53188344D01*
X93371954Y-53188347D01*
X93461652Y-53278045D01*
X93461654Y-53278046D01*
X93461658Y-53278050D01*
X93574694Y-53335645D01*
X93574698Y-53335647D01*
X93668475Y-53350499D01*
X93668481Y-53350500D01*
X95231518Y-53350499D01*
X95325304Y-53335646D01*
X95438342Y-53278050D01*
X95528050Y-53188342D01*
X95585646Y-53075304D01*
X95585646Y-53075303D01*
X95589263Y-53068205D01*
X95637238Y-53017409D01*
X95699748Y-53000500D01*
X98889071Y-53000500D01*
X98984500Y-52981517D01*
X99014744Y-52975501D01*
X99133127Y-52926465D01*
X99239669Y-52855277D01*
X101533127Y-50561819D01*
X101594450Y-50528334D01*
X101620808Y-50525500D01*
X104100253Y-50525500D01*
X104167292Y-50545185D01*
X104210738Y-50593205D01*
X104214353Y-50600300D01*
X104214354Y-50600304D01*
X104271950Y-50713342D01*
X104271951Y-50713343D01*
X104271954Y-50713347D01*
X104361652Y-50803045D01*
X104361654Y-50803046D01*
X104361658Y-50803050D01*
X104474694Y-50860645D01*
X104474698Y-50860647D01*
X104568475Y-50875499D01*
X104568481Y-50875500D01*
X106131518Y-50875499D01*
X106225304Y-50860646D01*
X106338342Y-50803050D01*
X106428050Y-50713342D01*
X106485646Y-50600304D01*
X106485646Y-50600302D01*
X106485647Y-50600301D01*
X106500499Y-50506524D01*
X106500500Y-50506519D01*
X106500499Y-49243482D01*
X106485646Y-49149696D01*
X106428050Y-49036658D01*
X106428046Y-49036654D01*
X106428045Y-49036652D01*
X106338347Y-48946954D01*
X106338344Y-48946952D01*
X106338342Y-48946950D01*
X106261517Y-48907805D01*
X106225301Y-48889352D01*
X106131524Y-48874500D01*
X104568482Y-48874500D01*
X104487519Y-48887323D01*
X104474696Y-48889354D01*
X104361658Y-48946950D01*
X104361657Y-48946951D01*
X104361652Y-48946954D01*
X104271954Y-49036652D01*
X104271951Y-49036657D01*
X104210737Y-49156795D01*
X104162762Y-49207591D01*
X104100252Y-49224500D01*
X101235929Y-49224500D01*
X101110261Y-49249497D01*
X101110251Y-49249500D01*
X101061220Y-49269810D01*
X100991881Y-49298530D01*
X100991863Y-49298540D01*
X100885332Y-49369721D01*
X100885325Y-49369727D01*
X98591873Y-51663181D01*
X98530550Y-51696666D01*
X98504192Y-51699500D01*
X95699747Y-51699500D01*
X95632708Y-51679815D01*
X95589262Y-51631795D01*
X95585646Y-51624698D01*
X95585646Y-51624696D01*
X95528050Y-51511658D01*
X95528048Y-51511656D01*
X95528045Y-51511652D01*
X95438347Y-51421954D01*
X95438344Y-51421952D01*
X95438342Y-51421950D01*
X95345217Y-51374500D01*
X95325301Y-51364352D01*
X95231524Y-51349500D01*
X95136611Y-51349500D01*
X95069572Y-51329815D01*
X95023817Y-51277011D01*
X95013873Y-51207853D01*
X95042898Y-51144297D01*
X95098294Y-51107568D01*
X95118221Y-51101093D01*
X95307557Y-51004620D01*
X95479459Y-50879727D01*
X95479464Y-50879723D01*
X95629723Y-50729464D01*
X95629727Y-50729459D01*
X95754620Y-50557557D01*
X95851095Y-50368217D01*
X95916757Y-50166129D01*
X95916757Y-50166126D01*
X95927231Y-50100000D01*
X94883012Y-50100000D01*
X94915925Y-50042993D01*
X94950000Y-49915826D01*
X94950000Y-49784174D01*
X94915925Y-49657007D01*
X94883012Y-49600000D01*
X95927231Y-49600000D01*
X95916757Y-49533873D01*
X95916757Y-49533870D01*
X95851095Y-49331782D01*
X95754620Y-49142442D01*
X95629727Y-48970540D01*
X95629723Y-48970535D01*
X95479464Y-48820276D01*
X95479459Y-48820272D01*
X95307557Y-48695379D01*
X95118217Y-48598904D01*
X94916129Y-48533242D01*
X94706246Y-48500000D01*
X94700000Y-48500000D01*
X94700000Y-49416988D01*
X94642993Y-49384075D01*
X94515826Y-49350000D01*
X94384174Y-49350000D01*
X94257007Y-49384075D01*
X94200000Y-49416988D01*
X94200000Y-48500000D01*
X94193754Y-48500000D01*
X93983872Y-48533242D01*
X93983869Y-48533242D01*
X93781782Y-48598904D01*
X93592442Y-48695379D01*
X93420540Y-48820272D01*
X93420535Y-48820276D01*
X93270276Y-48970535D01*
X93270272Y-48970540D01*
X93145379Y-49142442D01*
X93048904Y-49331782D01*
X93042430Y-49351709D01*
X93002993Y-49409385D01*
X92938634Y-49436583D01*
X92869788Y-49424668D01*
X92818312Y-49377424D01*
X92800499Y-49313391D01*
X92800499Y-33164071D01*
X95029499Y-33164071D01*
X95054497Y-33289738D01*
X95054499Y-33289744D01*
X95103533Y-33408124D01*
X95103538Y-33408133D01*
X95174723Y-33514668D01*
X95174726Y-33514672D01*
X95265327Y-33605273D01*
X95265335Y-33605279D01*
X95349390Y-33661443D01*
X95394196Y-33715055D01*
X95404500Y-33764545D01*
X95404500Y-35765455D01*
X95384815Y-35832494D01*
X95349390Y-35868557D01*
X95265335Y-35924720D01*
X95265327Y-35924726D01*
X95174726Y-36015327D01*
X95174723Y-36015331D01*
X95103538Y-36121866D01*
X95103533Y-36121875D01*
X95054499Y-36240255D01*
X95054497Y-36240261D01*
X95029500Y-36365928D01*
X95029500Y-36365931D01*
X95029500Y-37594069D01*
X95029500Y-37594071D01*
X95029499Y-37594071D01*
X95054497Y-37719738D01*
X95054499Y-37719744D01*
X95103533Y-37838124D01*
X95103538Y-37838133D01*
X95174723Y-37944668D01*
X95174726Y-37944672D01*
X95265327Y-38035273D01*
X95265331Y-38035276D01*
X95371866Y-38106461D01*
X95371872Y-38106464D01*
X95371873Y-38106465D01*
X95490256Y-38155501D01*
X95490260Y-38155501D01*
X95490261Y-38155502D01*
X95615928Y-38180500D01*
X95615931Y-38180500D01*
X95744071Y-38180500D01*
X95828615Y-38163682D01*
X95869744Y-38155501D01*
X95988127Y-38106465D01*
X96094669Y-38035276D01*
X96185276Y-37944669D01*
X96256465Y-37838127D01*
X96305501Y-37719744D01*
X96330500Y-37594069D01*
X96330500Y-36706301D01*
X96350185Y-36639262D01*
X96402989Y-36593507D01*
X96472147Y-36583563D01*
X96535703Y-36612588D01*
X96569456Y-36665109D01*
X96570611Y-36664631D01*
X96573261Y-36671030D01*
X96573477Y-36671366D01*
X96573638Y-36671939D01*
X96573718Y-36672134D01*
X96573719Y-36672135D01*
X96649485Y-36803365D01*
X96756635Y-36910515D01*
X96887865Y-36986281D01*
X97034234Y-37025500D01*
X97034236Y-37025500D01*
X97185764Y-37025500D01*
X97185766Y-37025500D01*
X97332135Y-36986281D01*
X97463365Y-36910515D01*
X97570515Y-36803365D01*
X97574626Y-36796243D01*
X97578389Y-36792655D01*
X97580023Y-36787715D01*
X97603416Y-36768788D01*
X97625188Y-36748027D01*
X97630296Y-36747042D01*
X97634342Y-36743769D01*
X97664255Y-36740494D01*
X97693794Y-36734800D01*
X97700017Y-36736580D01*
X97703797Y-36736167D01*
X97722714Y-36743074D01*
X97737306Y-36747249D01*
X97742965Y-36750068D01*
X97743386Y-36750489D01*
X97846113Y-36809799D01*
X97870326Y-36816286D01*
X97960691Y-36840500D01*
X97960693Y-36840500D01*
X98079307Y-36840500D01*
X98079309Y-36840500D01*
X98100861Y-36834724D01*
X98132954Y-36830500D01*
X101412035Y-36830500D01*
X101433654Y-36836848D01*
X101456118Y-36838601D01*
X101469815Y-36847466D01*
X101479074Y-36850185D01*
X101486985Y-36855715D01*
X101493728Y-36860831D01*
X101543386Y-36910489D01*
X101602696Y-36944731D01*
X101609444Y-36948627D01*
X101609448Y-36948630D01*
X101635253Y-36963528D01*
X101646114Y-36969799D01*
X101760691Y-37000500D01*
X101760694Y-37000500D01*
X101879306Y-37000500D01*
X101879309Y-37000500D01*
X101993886Y-36969799D01*
X101993889Y-36969797D01*
X102037269Y-36944752D01*
X102037280Y-36944744D01*
X102037304Y-36944731D01*
X102096614Y-36910489D01*
X102180489Y-36826614D01*
X102204310Y-36785353D01*
X102254876Y-36737137D01*
X102323483Y-36723913D01*
X102388348Y-36749880D01*
X102419083Y-36785349D01*
X102429485Y-36803365D01*
X102536635Y-36910515D01*
X102667865Y-36986281D01*
X102814234Y-37025500D01*
X102814236Y-37025500D01*
X102965764Y-37025500D01*
X102965766Y-37025500D01*
X103112135Y-36986281D01*
X103243365Y-36910515D01*
X103350515Y-36803365D01*
X103426281Y-36672135D01*
X103426281Y-36672132D01*
X103429389Y-36664631D01*
X103431125Y-36665350D01*
X103462087Y-36614550D01*
X103524933Y-36584019D01*
X103594309Y-36592311D01*
X103648188Y-36636795D01*
X103669465Y-36703346D01*
X103669500Y-36706301D01*
X103669500Y-37594069D01*
X103669500Y-37594071D01*
X103669499Y-37594071D01*
X103694497Y-37719738D01*
X103694499Y-37719744D01*
X103743533Y-37838124D01*
X103743538Y-37838133D01*
X103814723Y-37944668D01*
X103814726Y-37944672D01*
X103905327Y-38035273D01*
X103905331Y-38035276D01*
X104011866Y-38106461D01*
X104011872Y-38106464D01*
X104011873Y-38106465D01*
X104130256Y-38155501D01*
X104130260Y-38155501D01*
X104130261Y-38155502D01*
X104255928Y-38180500D01*
X104255931Y-38180500D01*
X104384071Y-38180500D01*
X104468615Y-38163682D01*
X104509744Y-38155501D01*
X104628127Y-38106465D01*
X104734669Y-38035276D01*
X104825276Y-37944669D01*
X104896465Y-37838127D01*
X104945501Y-37719744D01*
X104970500Y-37594069D01*
X104970500Y-36365931D01*
X104970500Y-36365928D01*
X104945502Y-36240261D01*
X104945501Y-36240260D01*
X104945501Y-36240256D01*
X104896465Y-36121873D01*
X104896464Y-36121872D01*
X104896461Y-36121866D01*
X104825276Y-36015331D01*
X104825273Y-36015327D01*
X104734672Y-35924726D01*
X104734664Y-35924720D01*
X104650610Y-35868557D01*
X104605804Y-35814945D01*
X104595500Y-35765455D01*
X104595500Y-33764545D01*
X104615185Y-33697506D01*
X104650610Y-33661443D01*
X104705501Y-33624764D01*
X104734669Y-33605276D01*
X104825276Y-33514669D01*
X104896465Y-33408127D01*
X104945501Y-33289744D01*
X104953682Y-33248615D01*
X104970500Y-33164071D01*
X104970500Y-32435928D01*
X104945502Y-32310261D01*
X104945501Y-32310260D01*
X104945501Y-32310256D01*
X104896465Y-32191873D01*
X104896464Y-32191872D01*
X104896461Y-32191866D01*
X104825276Y-32085331D01*
X104825273Y-32085327D01*
X104734672Y-31994726D01*
X104734668Y-31994723D01*
X104628133Y-31923538D01*
X104628124Y-31923533D01*
X104509744Y-31874499D01*
X104509738Y-31874497D01*
X104384071Y-31849500D01*
X104384069Y-31849500D01*
X104255931Y-31849500D01*
X104255929Y-31849500D01*
X104130261Y-31874497D01*
X104130255Y-31874499D01*
X104011875Y-31923533D01*
X104011866Y-31923538D01*
X103905331Y-31994723D01*
X103905327Y-31994726D01*
X103814726Y-32085327D01*
X103814723Y-32085331D01*
X103743538Y-32191866D01*
X103743533Y-32191875D01*
X103694499Y-32310255D01*
X103694497Y-32310261D01*
X103671735Y-32424692D01*
X103639350Y-32486603D01*
X103578634Y-32521177D01*
X103550118Y-32524500D01*
X96449882Y-32524500D01*
X96382843Y-32504815D01*
X96337088Y-32452011D01*
X96328265Y-32424692D01*
X96305502Y-32310261D01*
X96305501Y-32310260D01*
X96305501Y-32310256D01*
X96256465Y-32191873D01*
X96256464Y-32191872D01*
X96256461Y-32191866D01*
X96185276Y-32085331D01*
X96185273Y-32085327D01*
X96094672Y-31994726D01*
X96094668Y-31994723D01*
X95988133Y-31923538D01*
X95988124Y-31923533D01*
X95869744Y-31874499D01*
X95869738Y-31874497D01*
X95744071Y-31849500D01*
X95744069Y-31849500D01*
X95615931Y-31849500D01*
X95615929Y-31849500D01*
X95490261Y-31874497D01*
X95490255Y-31874499D01*
X95371875Y-31923533D01*
X95371866Y-31923538D01*
X95265331Y-31994723D01*
X95265327Y-31994726D01*
X95174726Y-32085327D01*
X95174723Y-32085331D01*
X95103538Y-32191866D01*
X95103533Y-32191875D01*
X95054499Y-32310255D01*
X95054497Y-32310261D01*
X95029500Y-32435928D01*
X95029500Y-32435931D01*
X95029500Y-33164069D01*
X95029500Y-33164071D01*
X95029499Y-33164071D01*
X92800499Y-33164071D01*
X92800499Y-32327824D01*
X92800500Y-32327821D01*
X92800499Y-32283973D01*
X92800725Y-32276489D01*
X92816080Y-32022588D01*
X92817884Y-32007730D01*
X92863056Y-31761216D01*
X92866634Y-31746699D01*
X92941196Y-31507414D01*
X92946503Y-31493423D01*
X93049344Y-31264913D01*
X93049355Y-31264887D01*
X93056307Y-31251643D01*
X93185963Y-31037162D01*
X93194455Y-31024859D01*
X93349016Y-30827573D01*
X93358930Y-30816381D01*
X93536159Y-30639150D01*
X93547349Y-30629237D01*
X93744634Y-30474672D01*
X93756940Y-30466178D01*
X93971424Y-30336516D01*
X93984666Y-30329567D01*
X94213215Y-30226704D01*
X94227183Y-30221406D01*
X94466473Y-30146840D01*
X94480976Y-30143265D01*
X94727502Y-30098087D01*
X94742360Y-30096283D01*
X94995701Y-30080959D01*
X95003188Y-30080733D01*
X95047594Y-30080733D01*
X104952405Y-30080733D01*
X104996249Y-30080733D01*
X105003736Y-30080959D01*
G37*
%TD.AperFunction*%
%TD*%
M02*
