%TF.GenerationSoftware,KiCad,Pcbnew,9.0.5*%
%TF.CreationDate,2026-04-12T18:24:23-04:00*%
%TF.ProjectId,octov1.1,6f63746f-7631-42e3-912e-6b696361645f,rev?*%
%TF.SameCoordinates,Original*%
%TF.FileFunction,Legend,Bot*%
%TF.FilePolarity,Positive*%
%FSLAX46Y46*%
G04 Gerber Fmt 4.6, Leading zero omitted, Abs format (unit mm)*
G04 Created by KiCad (PCBNEW 9.0.5) date 2026-04-12 18:24:23*
%MOMM*%
%LPD*%
G01*
G04 APERTURE LIST*
G04 Aperture macros list*
%AMRoundRect*
0 Rectangle with rounded corners*
0 $1 Rounding radius*
0 $2 $3 $4 $5 $6 $7 $8 $9 X,Y pos of 4 corners*
0 Add a 4 corners polygon primitive as box body*
4,1,4,$2,$3,$4,$5,$6,$7,$8,$9,$2,$3,0*
0 Add four circle primitives for the rounded corners*
1,1,$1+$1,$2,$3*
1,1,$1+$1,$4,$5*
1,1,$1+$1,$6,$7*
1,1,$1+$1,$8,$9*
0 Add four rect primitives between the rounded corners*
20,1,$1+$1,$2,$3,$4,$5,0*
20,1,$1+$1,$4,$5,$6,$7,0*
20,1,$1+$1,$6,$7,$8,$9,0*
20,1,$1+$1,$8,$9,$2,$3,0*%
G04 Aperture macros list end*
%ADD10C,0.150000*%
%ADD11C,0.120000*%
%ADD12RoundRect,0.265938X-0.585062X-0.585062X0.585062X-0.585062X0.585062X0.585062X-0.585062X0.585062X0*%
%ADD13C,1.702000*%
%ADD14C,1.300000*%
%ADD15C,3.302000*%
%ADD16C,0.752000*%
%ADD17O,1.102000X2.202000*%
%ADD18O,1.102000X1.702000*%
%ADD19RoundRect,0.265000X-0.786000X0.636000X-0.786000X-0.636000X0.786000X-0.636000X0.786000X0.636000X0*%
%ADD20O,2.102000X1.802000*%
%ADD21RoundRect,0.265000X0.786000X-0.636000X0.786000X0.636000X-0.786000X0.636000X-0.786000X-0.636000X0*%
%ADD22RoundRect,0.265000X0.761000X-0.636000X0.761000X0.636000X-0.761000X0.636000X-0.761000X-0.636000X0*%
%ADD23O,2.052000X1.802000*%
%ADD24RoundRect,0.265000X-0.761000X0.636000X-0.761000X-0.636000X0.761000X-0.636000X0.761000X0.636000X0*%
%ADD25RoundRect,0.265000X0.636000X0.786000X-0.636000X0.786000X-0.636000X-0.786000X0.636000X-0.786000X0*%
%ADD26O,1.802000X2.102000*%
%ADD27RoundRect,0.265000X0.636000X0.761000X-0.636000X0.761000X-0.636000X-0.761000X0.636000X-0.761000X0*%
%ADD28O,1.802000X2.052000*%
G04 APERTURE END LIST*
D10*
X102807200Y-49766667D02*
X102854819Y-49909524D01*
X102854819Y-49909524D02*
X102854819Y-50147619D01*
X102854819Y-50147619D02*
X102807200Y-50242857D01*
X102807200Y-50242857D02*
X102759580Y-50290476D01*
X102759580Y-50290476D02*
X102664342Y-50338095D01*
X102664342Y-50338095D02*
X102569104Y-50338095D01*
X102569104Y-50338095D02*
X102473866Y-50290476D01*
X102473866Y-50290476D02*
X102426247Y-50242857D01*
X102426247Y-50242857D02*
X102378628Y-50147619D01*
X102378628Y-50147619D02*
X102331009Y-49957143D01*
X102331009Y-49957143D02*
X102283390Y-49861905D01*
X102283390Y-49861905D02*
X102235771Y-49814286D01*
X102235771Y-49814286D02*
X102140533Y-49766667D01*
X102140533Y-49766667D02*
X102045295Y-49766667D01*
X102045295Y-49766667D02*
X101950057Y-49814286D01*
X101950057Y-49814286D02*
X101902438Y-49861905D01*
X101902438Y-49861905D02*
X101854819Y-49957143D01*
X101854819Y-49957143D02*
X101854819Y-50195238D01*
X101854819Y-50195238D02*
X101902438Y-50338095D01*
X101854819Y-50671429D02*
X102854819Y-50909524D01*
X102854819Y-50909524D02*
X102140533Y-51100000D01*
X102140533Y-51100000D02*
X102854819Y-51290476D01*
X102854819Y-51290476D02*
X101854819Y-51528572D01*
X101854819Y-51814286D02*
X101854819Y-52433333D01*
X101854819Y-52433333D02*
X102235771Y-52100000D01*
X102235771Y-52100000D02*
X102235771Y-52242857D01*
X102235771Y-52242857D02*
X102283390Y-52338095D01*
X102283390Y-52338095D02*
X102331009Y-52385714D01*
X102331009Y-52385714D02*
X102426247Y-52433333D01*
X102426247Y-52433333D02*
X102664342Y-52433333D01*
X102664342Y-52433333D02*
X102759580Y-52385714D01*
X102759580Y-52385714D02*
X102807200Y-52338095D01*
X102807200Y-52338095D02*
X102854819Y-52242857D01*
X102854819Y-52242857D02*
X102854819Y-51957143D01*
X102854819Y-51957143D02*
X102807200Y-51861905D01*
X102807200Y-51861905D02*
X102759580Y-51814286D01*
X97154819Y-50766666D02*
X97869104Y-50766666D01*
X97869104Y-50766666D02*
X98011961Y-50719047D01*
X98011961Y-50719047D02*
X98107200Y-50623809D01*
X98107200Y-50623809D02*
X98154819Y-50480952D01*
X98154819Y-50480952D02*
X98154819Y-50385714D01*
X98154819Y-51766666D02*
X98154819Y-51195238D01*
X98154819Y-51480952D02*
X97154819Y-51480952D01*
X97154819Y-51480952D02*
X97297676Y-51385714D01*
X97297676Y-51385714D02*
X97392914Y-51290476D01*
X97392914Y-51290476D02*
X97440533Y-51195238D01*
X80004819Y-95940476D02*
X80719104Y-95940476D01*
X80719104Y-95940476D02*
X80861961Y-95892857D01*
X80861961Y-95892857D02*
X80957200Y-95797619D01*
X80957200Y-95797619D02*
X81004819Y-95654762D01*
X81004819Y-95654762D02*
X81004819Y-95559524D01*
X81004819Y-96940476D02*
X81004819Y-96369048D01*
X81004819Y-96654762D02*
X80004819Y-96654762D01*
X80004819Y-96654762D02*
X80147676Y-96559524D01*
X80147676Y-96559524D02*
X80242914Y-96464286D01*
X80242914Y-96464286D02*
X80290533Y-96369048D01*
X80004819Y-97797619D02*
X80004819Y-97607143D01*
X80004819Y-97607143D02*
X80052438Y-97511905D01*
X80052438Y-97511905D02*
X80100057Y-97464286D01*
X80100057Y-97464286D02*
X80242914Y-97369048D01*
X80242914Y-97369048D02*
X80433390Y-97321429D01*
X80433390Y-97321429D02*
X80814342Y-97321429D01*
X80814342Y-97321429D02*
X80909580Y-97369048D01*
X80909580Y-97369048D02*
X80957200Y-97416667D01*
X80957200Y-97416667D02*
X81004819Y-97511905D01*
X81004819Y-97511905D02*
X81004819Y-97702381D01*
X81004819Y-97702381D02*
X80957200Y-97797619D01*
X80957200Y-97797619D02*
X80909580Y-97845238D01*
X80909580Y-97845238D02*
X80814342Y-97892857D01*
X80814342Y-97892857D02*
X80576247Y-97892857D01*
X80576247Y-97892857D02*
X80481009Y-97845238D01*
X80481009Y-97845238D02*
X80433390Y-97797619D01*
X80433390Y-97797619D02*
X80385771Y-97702381D01*
X80385771Y-97702381D02*
X80385771Y-97511905D01*
X80385771Y-97511905D02*
X80433390Y-97416667D01*
X80433390Y-97416667D02*
X80481009Y-97369048D01*
X80481009Y-97369048D02*
X80576247Y-97321429D01*
X80004819Y-72766666D02*
X80719104Y-72766666D01*
X80719104Y-72766666D02*
X80861961Y-72719047D01*
X80861961Y-72719047D02*
X80957200Y-72623809D01*
X80957200Y-72623809D02*
X81004819Y-72480952D01*
X81004819Y-72480952D02*
X81004819Y-72385714D01*
X80100057Y-73195238D02*
X80052438Y-73242857D01*
X80052438Y-73242857D02*
X80004819Y-73338095D01*
X80004819Y-73338095D02*
X80004819Y-73576190D01*
X80004819Y-73576190D02*
X80052438Y-73671428D01*
X80052438Y-73671428D02*
X80100057Y-73719047D01*
X80100057Y-73719047D02*
X80195295Y-73766666D01*
X80195295Y-73766666D02*
X80290533Y-73766666D01*
X80290533Y-73766666D02*
X80433390Y-73719047D01*
X80433390Y-73719047D02*
X81004819Y-73147619D01*
X81004819Y-73147619D02*
X81004819Y-73766666D01*
X118904819Y-94740476D02*
X119619104Y-94740476D01*
X119619104Y-94740476D02*
X119761961Y-94692857D01*
X119761961Y-94692857D02*
X119857200Y-94597619D01*
X119857200Y-94597619D02*
X119904819Y-94454762D01*
X119904819Y-94454762D02*
X119904819Y-94359524D01*
X119904819Y-95740476D02*
X119904819Y-95169048D01*
X119904819Y-95454762D02*
X118904819Y-95454762D01*
X118904819Y-95454762D02*
X119047676Y-95359524D01*
X119047676Y-95359524D02*
X119142914Y-95264286D01*
X119142914Y-95264286D02*
X119190533Y-95169048D01*
X119238152Y-96597619D02*
X119904819Y-96597619D01*
X118857200Y-96359524D02*
X119571485Y-96121429D01*
X119571485Y-96121429D02*
X119571485Y-96740476D01*
X113383333Y-115404819D02*
X113383333Y-116119104D01*
X113383333Y-116119104D02*
X113430952Y-116261961D01*
X113430952Y-116261961D02*
X113526190Y-116357200D01*
X113526190Y-116357200D02*
X113669047Y-116404819D01*
X113669047Y-116404819D02*
X113764285Y-116404819D01*
X112859523Y-116404819D02*
X112669047Y-116404819D01*
X112669047Y-116404819D02*
X112573809Y-116357200D01*
X112573809Y-116357200D02*
X112526190Y-116309580D01*
X112526190Y-116309580D02*
X112430952Y-116166723D01*
X112430952Y-116166723D02*
X112383333Y-115976247D01*
X112383333Y-115976247D02*
X112383333Y-115595295D01*
X112383333Y-115595295D02*
X112430952Y-115500057D01*
X112430952Y-115500057D02*
X112478571Y-115452438D01*
X112478571Y-115452438D02*
X112573809Y-115404819D01*
X112573809Y-115404819D02*
X112764285Y-115404819D01*
X112764285Y-115404819D02*
X112859523Y-115452438D01*
X112859523Y-115452438D02*
X112907142Y-115500057D01*
X112907142Y-115500057D02*
X112954761Y-115595295D01*
X112954761Y-115595295D02*
X112954761Y-115833390D01*
X112954761Y-115833390D02*
X112907142Y-115928628D01*
X112907142Y-115928628D02*
X112859523Y-115976247D01*
X112859523Y-115976247D02*
X112764285Y-116023866D01*
X112764285Y-116023866D02*
X112573809Y-116023866D01*
X112573809Y-116023866D02*
X112478571Y-115976247D01*
X112478571Y-115976247D02*
X112430952Y-115928628D01*
X112430952Y-115928628D02*
X112383333Y-115833390D01*
X80004819Y-106366666D02*
X80719104Y-106366666D01*
X80719104Y-106366666D02*
X80861961Y-106319047D01*
X80861961Y-106319047D02*
X80957200Y-106223809D01*
X80957200Y-106223809D02*
X81004819Y-106080952D01*
X81004819Y-106080952D02*
X81004819Y-105985714D01*
X80004819Y-107319047D02*
X80004819Y-106842857D01*
X80004819Y-106842857D02*
X80481009Y-106795238D01*
X80481009Y-106795238D02*
X80433390Y-106842857D01*
X80433390Y-106842857D02*
X80385771Y-106938095D01*
X80385771Y-106938095D02*
X80385771Y-107176190D01*
X80385771Y-107176190D02*
X80433390Y-107271428D01*
X80433390Y-107271428D02*
X80481009Y-107319047D01*
X80481009Y-107319047D02*
X80576247Y-107366666D01*
X80576247Y-107366666D02*
X80814342Y-107366666D01*
X80814342Y-107366666D02*
X80909580Y-107319047D01*
X80909580Y-107319047D02*
X80957200Y-107271428D01*
X80957200Y-107271428D02*
X81004819Y-107176190D01*
X81004819Y-107176190D02*
X81004819Y-106938095D01*
X81004819Y-106938095D02*
X80957200Y-106842857D01*
X80957200Y-106842857D02*
X80909580Y-106795238D01*
X118854819Y-71166666D02*
X119569104Y-71166666D01*
X119569104Y-71166666D02*
X119711961Y-71119047D01*
X119711961Y-71119047D02*
X119807200Y-71023809D01*
X119807200Y-71023809D02*
X119854819Y-70880952D01*
X119854819Y-70880952D02*
X119854819Y-70785714D01*
X118854819Y-72071428D02*
X118854819Y-71880952D01*
X118854819Y-71880952D02*
X118902438Y-71785714D01*
X118902438Y-71785714D02*
X118950057Y-71738095D01*
X118950057Y-71738095D02*
X119092914Y-71642857D01*
X119092914Y-71642857D02*
X119283390Y-71595238D01*
X119283390Y-71595238D02*
X119664342Y-71595238D01*
X119664342Y-71595238D02*
X119759580Y-71642857D01*
X119759580Y-71642857D02*
X119807200Y-71690476D01*
X119807200Y-71690476D02*
X119854819Y-71785714D01*
X119854819Y-71785714D02*
X119854819Y-71976190D01*
X119854819Y-71976190D02*
X119807200Y-72071428D01*
X119807200Y-72071428D02*
X119759580Y-72119047D01*
X119759580Y-72119047D02*
X119664342Y-72166666D01*
X119664342Y-72166666D02*
X119426247Y-72166666D01*
X119426247Y-72166666D02*
X119331009Y-72119047D01*
X119331009Y-72119047D02*
X119283390Y-72071428D01*
X119283390Y-72071428D02*
X119235771Y-71976190D01*
X119235771Y-71976190D02*
X119235771Y-71785714D01*
X119235771Y-71785714D02*
X119283390Y-71690476D01*
X119283390Y-71690476D02*
X119331009Y-71642857D01*
X119331009Y-71642857D02*
X119426247Y-71595238D01*
X79989819Y-82826666D02*
X80704104Y-82826666D01*
X80704104Y-82826666D02*
X80846961Y-82779047D01*
X80846961Y-82779047D02*
X80942200Y-82683809D01*
X80942200Y-82683809D02*
X80989819Y-82540952D01*
X80989819Y-82540952D02*
X80989819Y-82445714D01*
X79989819Y-83207619D02*
X79989819Y-83826666D01*
X79989819Y-83826666D02*
X80370771Y-83493333D01*
X80370771Y-83493333D02*
X80370771Y-83636190D01*
X80370771Y-83636190D02*
X80418390Y-83731428D01*
X80418390Y-83731428D02*
X80466009Y-83779047D01*
X80466009Y-83779047D02*
X80561247Y-83826666D01*
X80561247Y-83826666D02*
X80799342Y-83826666D01*
X80799342Y-83826666D02*
X80894580Y-83779047D01*
X80894580Y-83779047D02*
X80942200Y-83731428D01*
X80942200Y-83731428D02*
X80989819Y-83636190D01*
X80989819Y-83636190D02*
X80989819Y-83350476D01*
X80989819Y-83350476D02*
X80942200Y-83255238D01*
X80942200Y-83255238D02*
X80894580Y-83207619D01*
X86583333Y-115404819D02*
X86583333Y-116119104D01*
X86583333Y-116119104D02*
X86630952Y-116261961D01*
X86630952Y-116261961D02*
X86726190Y-116357200D01*
X86726190Y-116357200D02*
X86869047Y-116404819D01*
X86869047Y-116404819D02*
X86964285Y-116404819D01*
X86202380Y-115404819D02*
X85535714Y-115404819D01*
X85535714Y-115404819D02*
X85964285Y-116404819D01*
X76683333Y-115404819D02*
X76683333Y-116119104D01*
X76683333Y-116119104D02*
X76730952Y-116261961D01*
X76730952Y-116261961D02*
X76826190Y-116357200D01*
X76826190Y-116357200D02*
X76969047Y-116404819D01*
X76969047Y-116404819D02*
X77064285Y-116404819D01*
X76064285Y-115833390D02*
X76159523Y-115785771D01*
X76159523Y-115785771D02*
X76207142Y-115738152D01*
X76207142Y-115738152D02*
X76254761Y-115642914D01*
X76254761Y-115642914D02*
X76254761Y-115595295D01*
X76254761Y-115595295D02*
X76207142Y-115500057D01*
X76207142Y-115500057D02*
X76159523Y-115452438D01*
X76159523Y-115452438D02*
X76064285Y-115404819D01*
X76064285Y-115404819D02*
X75873809Y-115404819D01*
X75873809Y-115404819D02*
X75778571Y-115452438D01*
X75778571Y-115452438D02*
X75730952Y-115500057D01*
X75730952Y-115500057D02*
X75683333Y-115595295D01*
X75683333Y-115595295D02*
X75683333Y-115642914D01*
X75683333Y-115642914D02*
X75730952Y-115738152D01*
X75730952Y-115738152D02*
X75778571Y-115785771D01*
X75778571Y-115785771D02*
X75873809Y-115833390D01*
X75873809Y-115833390D02*
X76064285Y-115833390D01*
X76064285Y-115833390D02*
X76159523Y-115881009D01*
X76159523Y-115881009D02*
X76207142Y-115928628D01*
X76207142Y-115928628D02*
X76254761Y-116023866D01*
X76254761Y-116023866D02*
X76254761Y-116214342D01*
X76254761Y-116214342D02*
X76207142Y-116309580D01*
X76207142Y-116309580D02*
X76159523Y-116357200D01*
X76159523Y-116357200D02*
X76064285Y-116404819D01*
X76064285Y-116404819D02*
X75873809Y-116404819D01*
X75873809Y-116404819D02*
X75778571Y-116357200D01*
X75778571Y-116357200D02*
X75730952Y-116309580D01*
X75730952Y-116309580D02*
X75683333Y-116214342D01*
X75683333Y-116214342D02*
X75683333Y-116023866D01*
X75683333Y-116023866D02*
X75730952Y-115928628D01*
X75730952Y-115928628D02*
X75778571Y-115881009D01*
X75778571Y-115881009D02*
X75873809Y-115833390D01*
X118904819Y-117840476D02*
X119619104Y-117840476D01*
X119619104Y-117840476D02*
X119761961Y-117792857D01*
X119761961Y-117792857D02*
X119857200Y-117697619D01*
X119857200Y-117697619D02*
X119904819Y-117554762D01*
X119904819Y-117554762D02*
X119904819Y-117459524D01*
X119904819Y-118840476D02*
X119904819Y-118269048D01*
X119904819Y-118554762D02*
X118904819Y-118554762D01*
X118904819Y-118554762D02*
X119047676Y-118459524D01*
X119047676Y-118459524D02*
X119142914Y-118364286D01*
X119142914Y-118364286D02*
X119190533Y-118269048D01*
X119000057Y-119221429D02*
X118952438Y-119269048D01*
X118952438Y-119269048D02*
X118904819Y-119364286D01*
X118904819Y-119364286D02*
X118904819Y-119602381D01*
X118904819Y-119602381D02*
X118952438Y-119697619D01*
X118952438Y-119697619D02*
X119000057Y-119745238D01*
X119000057Y-119745238D02*
X119095295Y-119792857D01*
X119095295Y-119792857D02*
X119190533Y-119792857D01*
X119190533Y-119792857D02*
X119333390Y-119745238D01*
X119333390Y-119745238D02*
X119904819Y-119173810D01*
X119904819Y-119173810D02*
X119904819Y-119792857D01*
X118904819Y-84790476D02*
X119619104Y-84790476D01*
X119619104Y-84790476D02*
X119761961Y-84742857D01*
X119761961Y-84742857D02*
X119857200Y-84647619D01*
X119857200Y-84647619D02*
X119904819Y-84504762D01*
X119904819Y-84504762D02*
X119904819Y-84409524D01*
X119904819Y-85790476D02*
X119904819Y-85219048D01*
X119904819Y-85504762D02*
X118904819Y-85504762D01*
X118904819Y-85504762D02*
X119047676Y-85409524D01*
X119047676Y-85409524D02*
X119142914Y-85314286D01*
X119142914Y-85314286D02*
X119190533Y-85219048D01*
X118904819Y-86123810D02*
X118904819Y-86742857D01*
X118904819Y-86742857D02*
X119285771Y-86409524D01*
X119285771Y-86409524D02*
X119285771Y-86552381D01*
X119285771Y-86552381D02*
X119333390Y-86647619D01*
X119333390Y-86647619D02*
X119381009Y-86695238D01*
X119381009Y-86695238D02*
X119476247Y-86742857D01*
X119476247Y-86742857D02*
X119714342Y-86742857D01*
X119714342Y-86742857D02*
X119809580Y-86695238D01*
X119809580Y-86695238D02*
X119857200Y-86647619D01*
X119857200Y-86647619D02*
X119904819Y-86552381D01*
X119904819Y-86552381D02*
X119904819Y-86266667D01*
X119904819Y-86266667D02*
X119857200Y-86171429D01*
X119857200Y-86171429D02*
X119809580Y-86123810D01*
X103859523Y-115404819D02*
X103859523Y-116119104D01*
X103859523Y-116119104D02*
X103907142Y-116261961D01*
X103907142Y-116261961D02*
X104002380Y-116357200D01*
X104002380Y-116357200D02*
X104145237Y-116404819D01*
X104145237Y-116404819D02*
X104240475Y-116404819D01*
X102859523Y-116404819D02*
X103430951Y-116404819D01*
X103145237Y-116404819D02*
X103145237Y-115404819D01*
X103145237Y-115404819D02*
X103240475Y-115547676D01*
X103240475Y-115547676D02*
X103335713Y-115642914D01*
X103335713Y-115642914D02*
X103430951Y-115690533D01*
X102240475Y-115404819D02*
X102145237Y-115404819D01*
X102145237Y-115404819D02*
X102049999Y-115452438D01*
X102049999Y-115452438D02*
X102002380Y-115500057D01*
X102002380Y-115500057D02*
X101954761Y-115595295D01*
X101954761Y-115595295D02*
X101907142Y-115785771D01*
X101907142Y-115785771D02*
X101907142Y-116023866D01*
X101907142Y-116023866D02*
X101954761Y-116214342D01*
X101954761Y-116214342D02*
X102002380Y-116309580D01*
X102002380Y-116309580D02*
X102049999Y-116357200D01*
X102049999Y-116357200D02*
X102145237Y-116404819D01*
X102145237Y-116404819D02*
X102240475Y-116404819D01*
X102240475Y-116404819D02*
X102335713Y-116357200D01*
X102335713Y-116357200D02*
X102383332Y-116309580D01*
X102383332Y-116309580D02*
X102430951Y-116214342D01*
X102430951Y-116214342D02*
X102478570Y-116023866D01*
X102478570Y-116023866D02*
X102478570Y-115785771D01*
X102478570Y-115785771D02*
X102430951Y-115595295D01*
X102430951Y-115595295D02*
X102383332Y-115500057D01*
X102383332Y-115500057D02*
X102335713Y-115452438D01*
X102335713Y-115452438D02*
X102240475Y-115404819D01*
X118904819Y-107790476D02*
X119619104Y-107790476D01*
X119619104Y-107790476D02*
X119761961Y-107742857D01*
X119761961Y-107742857D02*
X119857200Y-107647619D01*
X119857200Y-107647619D02*
X119904819Y-107504762D01*
X119904819Y-107504762D02*
X119904819Y-107409524D01*
X119904819Y-108790476D02*
X119904819Y-108219048D01*
X119904819Y-108504762D02*
X118904819Y-108504762D01*
X118904819Y-108504762D02*
X119047676Y-108409524D01*
X119047676Y-108409524D02*
X119142914Y-108314286D01*
X119142914Y-108314286D02*
X119190533Y-108219048D01*
X119904819Y-109742857D02*
X119904819Y-109171429D01*
X119904819Y-109457143D02*
X118904819Y-109457143D01*
X118904819Y-109457143D02*
X119047676Y-109361905D01*
X119047676Y-109361905D02*
X119142914Y-109266667D01*
X119142914Y-109266667D02*
X119190533Y-109171429D01*
D11*
%TO.C,SW3*%
X101340000Y-47315000D02*
X101340000Y-48735000D01*
X101340000Y-48735000D02*
X105840000Y-48735000D01*
X101340000Y-53515000D02*
X105840000Y-53515000D01*
X101340000Y-54935000D02*
X101340000Y-53515000D01*
X103250000Y-49575000D02*
X103250000Y-50175000D01*
X103250000Y-50175000D02*
X103850000Y-49875000D01*
X103850000Y-49875000D02*
X103250000Y-49575000D01*
X106950000Y-49625000D02*
X112450000Y-49625000D01*
X106950000Y-50125000D02*
X106950000Y-49625000D01*
X106950000Y-52125000D02*
X112450000Y-52125000D01*
X106950000Y-52625000D02*
X106950000Y-52125000D01*
X112450000Y-49625000D02*
X112450000Y-50125000D01*
X112450000Y-50125000D02*
X106950000Y-50125000D01*
X112450000Y-52125000D02*
X112450000Y-52625000D01*
X112450000Y-52625000D02*
X106950000Y-52625000D01*
X113060000Y-47315000D02*
X101340000Y-47315000D01*
X113060000Y-51125000D02*
X113060000Y-47315000D01*
X113060000Y-51125000D02*
X113060000Y-54935000D01*
X113060000Y-54935000D02*
X101340000Y-54935000D01*
%TO.C,J1*%
X86740000Y-47290000D02*
X98460000Y-47290000D01*
X86740000Y-51100000D02*
X86740000Y-47290000D01*
X86740000Y-51100000D02*
X86740000Y-54910000D01*
X86740000Y-54910000D02*
X98460000Y-54910000D01*
X87350000Y-49600000D02*
X92850000Y-49600000D01*
X87350000Y-50100000D02*
X87350000Y-49600000D01*
X87350000Y-52100000D02*
X92850000Y-52100000D01*
X87350000Y-52600000D02*
X87350000Y-52100000D01*
X92850000Y-49600000D02*
X92850000Y-50100000D01*
X92850000Y-50100000D02*
X87350000Y-50100000D01*
X92850000Y-52100000D02*
X92850000Y-52600000D01*
X92850000Y-52600000D02*
X87350000Y-52600000D01*
X95950000Y-52350000D02*
X96550000Y-52650000D01*
X96550000Y-52050000D02*
X95950000Y-52350000D01*
X96550000Y-52650000D02*
X96550000Y-52050000D01*
X98460000Y-47290000D02*
X98460000Y-48710000D01*
X98460000Y-48710000D02*
X93960000Y-48710000D01*
X98460000Y-53490000D02*
X93960000Y-53490000D01*
X98460000Y-54910000D02*
X98460000Y-53490000D01*
%TO.C,J16*%
X67740000Y-91690000D02*
X79460000Y-91690000D01*
X67740000Y-96750000D02*
X67740000Y-91690000D01*
X67740000Y-96750000D02*
X67740000Y-101810000D01*
X67740000Y-101810000D02*
X79460000Y-101810000D01*
X68350000Y-94000000D02*
X73850000Y-94000000D01*
X68350000Y-94500000D02*
X68350000Y-94000000D01*
X68350000Y-96500000D02*
X73850000Y-96500000D01*
X68350000Y-97000000D02*
X68350000Y-96500000D01*
X68350000Y-99000000D02*
X73850000Y-99000000D01*
X68350000Y-99500000D02*
X68350000Y-99000000D01*
X73850000Y-94000000D02*
X73850000Y-94500000D01*
X73850000Y-94500000D02*
X68350000Y-94500000D01*
X73850000Y-96500000D02*
X73850000Y-97000000D01*
X73850000Y-97000000D02*
X68350000Y-97000000D01*
X73850000Y-99000000D02*
X73850000Y-99500000D01*
X73850000Y-99500000D02*
X68350000Y-99500000D01*
X76950000Y-99250000D02*
X77550000Y-99550000D01*
X77550000Y-98950000D02*
X76950000Y-99250000D01*
X77550000Y-99550000D02*
X77550000Y-98950000D01*
X79460000Y-91690000D02*
X79460000Y-93110000D01*
X79460000Y-93110000D02*
X74960000Y-93110000D01*
X79460000Y-100390000D02*
X74960000Y-100390000D01*
X79460000Y-101810000D02*
X79460000Y-100390000D01*
%TO.C,J2*%
X67740000Y-68040000D02*
X79460000Y-68040000D01*
X67740000Y-73100000D02*
X67740000Y-68040000D01*
X67740000Y-73100000D02*
X67740000Y-78160000D01*
X67740000Y-78160000D02*
X79460000Y-78160000D01*
X68350000Y-70350000D02*
X73850000Y-70350000D01*
X68350000Y-70850000D02*
X68350000Y-70350000D01*
X68350000Y-72850000D02*
X73850000Y-72850000D01*
X68350000Y-73350000D02*
X68350000Y-72850000D01*
X68350000Y-75350000D02*
X73850000Y-75350000D01*
X68350000Y-75850000D02*
X68350000Y-75350000D01*
X73850000Y-70350000D02*
X73850000Y-70850000D01*
X73850000Y-70850000D02*
X68350000Y-70850000D01*
X73850000Y-72850000D02*
X73850000Y-73350000D01*
X73850000Y-73350000D02*
X68350000Y-73350000D01*
X73850000Y-75350000D02*
X73850000Y-75850000D01*
X73850000Y-75850000D02*
X68350000Y-75850000D01*
X76950000Y-75600000D02*
X77550000Y-75900000D01*
X77550000Y-75300000D02*
X76950000Y-75600000D01*
X77550000Y-75900000D02*
X77550000Y-75300000D01*
X79460000Y-68040000D02*
X79460000Y-69460000D01*
X79460000Y-69460000D02*
X74960000Y-69460000D01*
X79460000Y-76740000D02*
X74960000Y-76740000D01*
X79460000Y-78160000D02*
X79460000Y-76740000D01*
%TO.C,J14*%
X120540000Y-90490000D02*
X120540000Y-91910000D01*
X120540000Y-91910000D02*
X125040000Y-91910000D01*
X120540000Y-99190000D02*
X125040000Y-99190000D01*
X120540000Y-100610000D02*
X120540000Y-99190000D01*
X122450000Y-92750000D02*
X122450000Y-93350000D01*
X122450000Y-93350000D02*
X123050000Y-93050000D01*
X123050000Y-93050000D02*
X122450000Y-92750000D01*
X126150000Y-92800000D02*
X131650000Y-92800000D01*
X126150000Y-93300000D02*
X126150000Y-92800000D01*
X126150000Y-95300000D02*
X131650000Y-95300000D01*
X126150000Y-95800000D02*
X126150000Y-95300000D01*
X126150000Y-97800000D02*
X131650000Y-97800000D01*
X126150000Y-98300000D02*
X126150000Y-97800000D01*
X131650000Y-92800000D02*
X131650000Y-93300000D01*
X131650000Y-93300000D02*
X126150000Y-93300000D01*
X131650000Y-95300000D02*
X131650000Y-95800000D01*
X131650000Y-95800000D02*
X126150000Y-95800000D01*
X131650000Y-97800000D02*
X131650000Y-98300000D01*
X131650000Y-98300000D02*
X126150000Y-98300000D01*
X132260000Y-90490000D02*
X120540000Y-90490000D01*
X132260000Y-95550000D02*
X132260000Y-90490000D01*
X132260000Y-95550000D02*
X132260000Y-100610000D01*
X132260000Y-100610000D02*
X120540000Y-100610000D01*
%TO.C,J9*%
X109240000Y-117040000D02*
X110660000Y-117040000D01*
X109240000Y-128760000D02*
X109240000Y-117040000D01*
X110660000Y-117040000D02*
X110660000Y-121540000D01*
X111550000Y-122650000D02*
X112050000Y-122650000D01*
X111550000Y-128150000D02*
X111550000Y-122650000D01*
X112050000Y-122650000D02*
X112050000Y-128150000D01*
X112050000Y-128150000D02*
X111550000Y-128150000D01*
X113050000Y-128760000D02*
X109240000Y-128760000D01*
X113050000Y-128760000D02*
X116860000Y-128760000D01*
X114000000Y-118950000D02*
X114300000Y-119550000D01*
X114050000Y-122650000D02*
X114550000Y-122650000D01*
X114050000Y-128150000D02*
X114050000Y-122650000D01*
X114300000Y-119550000D02*
X114600000Y-118950000D01*
X114550000Y-122650000D02*
X114550000Y-128150000D01*
X114550000Y-128150000D02*
X114050000Y-128150000D01*
X114600000Y-118950000D02*
X114000000Y-118950000D01*
X115440000Y-117040000D02*
X115440000Y-121540000D01*
X116860000Y-117040000D02*
X115440000Y-117040000D01*
X116860000Y-128760000D02*
X116860000Y-117040000D01*
%TO.C,J5*%
X67740000Y-102890000D02*
X79460000Y-102890000D01*
X67740000Y-106700000D02*
X67740000Y-102890000D01*
X67740000Y-106700000D02*
X67740000Y-110510000D01*
X67740000Y-110510000D02*
X79460000Y-110510000D01*
X68350000Y-105200000D02*
X73850000Y-105200000D01*
X68350000Y-105700000D02*
X68350000Y-105200000D01*
X68350000Y-107700000D02*
X73850000Y-107700000D01*
X68350000Y-108200000D02*
X68350000Y-107700000D01*
X73850000Y-105200000D02*
X73850000Y-105700000D01*
X73850000Y-105700000D02*
X68350000Y-105700000D01*
X73850000Y-107700000D02*
X73850000Y-108200000D01*
X73850000Y-108200000D02*
X68350000Y-108200000D01*
X76950000Y-107950000D02*
X77550000Y-108250000D01*
X77550000Y-107650000D02*
X76950000Y-107950000D01*
X77550000Y-108250000D02*
X77550000Y-107650000D01*
X79460000Y-102890000D02*
X79460000Y-104310000D01*
X79460000Y-104310000D02*
X74960000Y-104310000D01*
X79460000Y-109090000D02*
X74960000Y-109090000D01*
X79460000Y-110510000D02*
X79460000Y-109090000D01*
%TO.C,J6*%
X120490000Y-66440000D02*
X120490000Y-67860000D01*
X120490000Y-67860000D02*
X124990000Y-67860000D01*
X120490000Y-75140000D02*
X124990000Y-75140000D01*
X120490000Y-76560000D02*
X120490000Y-75140000D01*
X122400000Y-68700000D02*
X122400000Y-69300000D01*
X122400000Y-69300000D02*
X123000000Y-69000000D01*
X123000000Y-69000000D02*
X122400000Y-68700000D01*
X126100000Y-68750000D02*
X131600000Y-68750000D01*
X126100000Y-69250000D02*
X126100000Y-68750000D01*
X126100000Y-71250000D02*
X131600000Y-71250000D01*
X126100000Y-71750000D02*
X126100000Y-71250000D01*
X126100000Y-73750000D02*
X131600000Y-73750000D01*
X126100000Y-74250000D02*
X126100000Y-73750000D01*
X131600000Y-68750000D02*
X131600000Y-69250000D01*
X131600000Y-69250000D02*
X126100000Y-69250000D01*
X131600000Y-71250000D02*
X131600000Y-71750000D01*
X131600000Y-71750000D02*
X126100000Y-71750000D01*
X131600000Y-73750000D02*
X131600000Y-74250000D01*
X131600000Y-74250000D02*
X126100000Y-74250000D01*
X132210000Y-66440000D02*
X120490000Y-66440000D01*
X132210000Y-71500000D02*
X132210000Y-66440000D01*
X132210000Y-71500000D02*
X132210000Y-76560000D01*
X132210000Y-76560000D02*
X120490000Y-76560000D01*
%TO.C,J3*%
X67725000Y-79350000D02*
X79445000Y-79350000D01*
X67725000Y-83160000D02*
X67725000Y-79350000D01*
X67725000Y-83160000D02*
X67725000Y-86970000D01*
X67725000Y-86970000D02*
X79445000Y-86970000D01*
X68335000Y-81660000D02*
X73835000Y-81660000D01*
X68335000Y-82160000D02*
X68335000Y-81660000D01*
X68335000Y-84160000D02*
X73835000Y-84160000D01*
X68335000Y-84660000D02*
X68335000Y-84160000D01*
X73835000Y-81660000D02*
X73835000Y-82160000D01*
X73835000Y-82160000D02*
X68335000Y-82160000D01*
X73835000Y-84160000D02*
X73835000Y-84660000D01*
X73835000Y-84660000D02*
X68335000Y-84660000D01*
X76935000Y-84410000D02*
X77535000Y-84710000D01*
X77535000Y-84110000D02*
X76935000Y-84410000D01*
X77535000Y-84710000D02*
X77535000Y-84110000D01*
X79445000Y-79350000D02*
X79445000Y-80770000D01*
X79445000Y-80770000D02*
X74945000Y-80770000D01*
X79445000Y-85550000D02*
X74945000Y-85550000D01*
X79445000Y-86970000D02*
X79445000Y-85550000D01*
%TO.C,J7*%
X82440000Y-117040000D02*
X83860000Y-117040000D01*
X82440000Y-128760000D02*
X82440000Y-117040000D01*
X83860000Y-117040000D02*
X83860000Y-121540000D01*
X84750000Y-122650000D02*
X85250000Y-122650000D01*
X84750000Y-128150000D02*
X84750000Y-122650000D01*
X85250000Y-122650000D02*
X85250000Y-128150000D01*
X85250000Y-128150000D02*
X84750000Y-128150000D01*
X86250000Y-128760000D02*
X82440000Y-128760000D01*
X86250000Y-128760000D02*
X90060000Y-128760000D01*
X87200000Y-118950000D02*
X87500000Y-119550000D01*
X87250000Y-122650000D02*
X87750000Y-122650000D01*
X87250000Y-128150000D02*
X87250000Y-122650000D01*
X87500000Y-119550000D02*
X87800000Y-118950000D01*
X87750000Y-122650000D02*
X87750000Y-128150000D01*
X87750000Y-128150000D02*
X87250000Y-128150000D01*
X87800000Y-118950000D02*
X87200000Y-118950000D01*
X88640000Y-117040000D02*
X88640000Y-121540000D01*
X90060000Y-117040000D02*
X88640000Y-117040000D01*
X90060000Y-128760000D02*
X90060000Y-117040000D01*
%TO.C,J8*%
X71290000Y-117040000D02*
X72710000Y-117040000D01*
X71290000Y-128760000D02*
X71290000Y-117040000D01*
X72710000Y-117040000D02*
X72710000Y-121540000D01*
X73600000Y-122650000D02*
X74100000Y-122650000D01*
X73600000Y-128150000D02*
X73600000Y-122650000D01*
X74100000Y-122650000D02*
X74100000Y-128150000D01*
X74100000Y-128150000D02*
X73600000Y-128150000D01*
X76100000Y-122650000D02*
X76600000Y-122650000D01*
X76100000Y-128150000D02*
X76100000Y-122650000D01*
X76350000Y-128760000D02*
X71290000Y-128760000D01*
X76350000Y-128760000D02*
X81410000Y-128760000D01*
X76600000Y-122650000D02*
X76600000Y-128150000D01*
X76600000Y-128150000D02*
X76100000Y-128150000D01*
X78550000Y-118950000D02*
X78850000Y-119550000D01*
X78600000Y-122650000D02*
X79100000Y-122650000D01*
X78600000Y-128150000D02*
X78600000Y-122650000D01*
X78850000Y-119550000D02*
X79150000Y-118950000D01*
X79100000Y-122650000D02*
X79100000Y-128150000D01*
X79100000Y-128150000D02*
X78600000Y-128150000D01*
X79150000Y-118950000D02*
X78550000Y-118950000D01*
X79990000Y-117040000D02*
X79990000Y-121540000D01*
X81410000Y-117040000D02*
X79990000Y-117040000D01*
X81410000Y-128760000D02*
X81410000Y-117040000D01*
%TO.C,J12*%
X120540000Y-113590000D02*
X120540000Y-115010000D01*
X120540000Y-115010000D02*
X125040000Y-115010000D01*
X120540000Y-122290000D02*
X125040000Y-122290000D01*
X120540000Y-123710000D02*
X120540000Y-122290000D01*
X122450000Y-115850000D02*
X122450000Y-116450000D01*
X122450000Y-116450000D02*
X123050000Y-116150000D01*
X123050000Y-116150000D02*
X122450000Y-115850000D01*
X126150000Y-115900000D02*
X131650000Y-115900000D01*
X126150000Y-116400000D02*
X126150000Y-115900000D01*
X126150000Y-118400000D02*
X131650000Y-118400000D01*
X126150000Y-118900000D02*
X126150000Y-118400000D01*
X126150000Y-120900000D02*
X131650000Y-120900000D01*
X126150000Y-121400000D02*
X126150000Y-120900000D01*
X131650000Y-115900000D02*
X131650000Y-116400000D01*
X131650000Y-116400000D02*
X126150000Y-116400000D01*
X131650000Y-118400000D02*
X131650000Y-118900000D01*
X131650000Y-118900000D02*
X126150000Y-118900000D01*
X131650000Y-120900000D02*
X131650000Y-121400000D01*
X131650000Y-121400000D02*
X126150000Y-121400000D01*
X132260000Y-113590000D02*
X120540000Y-113590000D01*
X132260000Y-118650000D02*
X132260000Y-113590000D01*
X132260000Y-118650000D02*
X132260000Y-123710000D01*
X132260000Y-123710000D02*
X120540000Y-123710000D01*
%TO.C,J13*%
X120540000Y-81790000D02*
X120540000Y-83210000D01*
X120540000Y-83210000D02*
X125040000Y-83210000D01*
X120540000Y-87990000D02*
X125040000Y-87990000D01*
X120540000Y-89410000D02*
X120540000Y-87990000D01*
X122450000Y-84050000D02*
X122450000Y-84650000D01*
X122450000Y-84650000D02*
X123050000Y-84350000D01*
X123050000Y-84350000D02*
X122450000Y-84050000D01*
X126150000Y-84100000D02*
X131650000Y-84100000D01*
X126150000Y-84600000D02*
X126150000Y-84100000D01*
X126150000Y-86600000D02*
X131650000Y-86600000D01*
X126150000Y-87100000D02*
X126150000Y-86600000D01*
X131650000Y-84100000D02*
X131650000Y-84600000D01*
X131650000Y-84600000D02*
X126150000Y-84600000D01*
X131650000Y-86600000D02*
X131650000Y-87100000D01*
X131650000Y-87100000D02*
X126150000Y-87100000D01*
X132260000Y-81790000D02*
X120540000Y-81790000D01*
X132260000Y-85600000D02*
X132260000Y-81790000D01*
X132260000Y-85600000D02*
X132260000Y-89410000D01*
X132260000Y-89410000D02*
X120540000Y-89410000D01*
%TO.C,J10*%
X97990000Y-117040000D02*
X99410000Y-117040000D01*
X97990000Y-128760000D02*
X97990000Y-117040000D01*
X99410000Y-117040000D02*
X99410000Y-121540000D01*
X100300000Y-122650000D02*
X100800000Y-122650000D01*
X100300000Y-128150000D02*
X100300000Y-122650000D01*
X100800000Y-122650000D02*
X100800000Y-128150000D01*
X100800000Y-128150000D02*
X100300000Y-128150000D01*
X102800000Y-122650000D02*
X103300000Y-122650000D01*
X102800000Y-128150000D02*
X102800000Y-122650000D01*
X103050000Y-128760000D02*
X97990000Y-128760000D01*
X103050000Y-128760000D02*
X108110000Y-128760000D01*
X103300000Y-122650000D02*
X103300000Y-128150000D01*
X103300000Y-128150000D02*
X102800000Y-128150000D01*
X105250000Y-118950000D02*
X105550000Y-119550000D01*
X105300000Y-122650000D02*
X105800000Y-122650000D01*
X105300000Y-128150000D02*
X105300000Y-122650000D01*
X105550000Y-119550000D02*
X105850000Y-118950000D01*
X105800000Y-122650000D02*
X105800000Y-128150000D01*
X105800000Y-128150000D02*
X105300000Y-128150000D01*
X105850000Y-118950000D02*
X105250000Y-118950000D01*
X106690000Y-117040000D02*
X106690000Y-121540000D01*
X108110000Y-117040000D02*
X106690000Y-117040000D01*
X108110000Y-128760000D02*
X108110000Y-117040000D01*
%TO.C,J11*%
X120540000Y-104790000D02*
X120540000Y-106210000D01*
X120540000Y-106210000D02*
X125040000Y-106210000D01*
X120540000Y-110990000D02*
X125040000Y-110990000D01*
X120540000Y-112410000D02*
X120540000Y-110990000D01*
X122450000Y-107050000D02*
X122450000Y-107650000D01*
X122450000Y-107650000D02*
X123050000Y-107350000D01*
X123050000Y-107350000D02*
X122450000Y-107050000D01*
X126150000Y-107100000D02*
X131650000Y-107100000D01*
X126150000Y-107600000D02*
X126150000Y-107100000D01*
X126150000Y-109600000D02*
X131650000Y-109600000D01*
X126150000Y-110100000D02*
X126150000Y-109600000D01*
X131650000Y-107100000D02*
X131650000Y-107600000D01*
X131650000Y-107600000D02*
X126150000Y-107600000D01*
X131650000Y-109600000D02*
X131650000Y-110100000D01*
X131650000Y-110100000D02*
X126150000Y-110100000D01*
X132260000Y-104790000D02*
X120540000Y-104790000D01*
X132260000Y-108600000D02*
X132260000Y-104790000D01*
X132260000Y-108600000D02*
X132260000Y-112410000D01*
X132260000Y-112410000D02*
X120540000Y-112410000D01*
%TD*%
%LPC*%
D12*
%TO.C,C27*%
X80767621Y-69400000D03*
D13*
X83267621Y-69400000D03*
%TD*%
D14*
%TO.C,REF\u002A\u002A*%
X71625000Y-115750000D03*
%TD*%
D15*
%TO.C,REF\u002A\u002A*%
X76900000Y-89325000D03*
%TD*%
%TO.C,REF\u002A\u002A*%
X94100000Y-121425000D03*
%TD*%
D12*
%TO.C,C24*%
X111117621Y-72300000D03*
D13*
X113617621Y-72300000D03*
%TD*%
D16*
%TO.C,J15*%
X102890000Y-36450000D03*
X97110000Y-36450000D03*
D17*
X104320000Y-36980000D03*
D18*
X104320000Y-32800000D03*
D17*
X95680000Y-36980000D03*
D18*
X95680000Y-32800000D03*
%TD*%
D14*
%TO.C,*%
X118700000Y-122875000D03*
%TD*%
%TO.C,REF\u002A\u002A*%
X117600000Y-67825000D03*
%TD*%
D15*
%TO.C,REF\u002A\u002A*%
X125825000Y-79125000D03*
%TD*%
D19*
%TO.C,SW3*%
X105350000Y-49875000D03*
D20*
X105350000Y-52375000D03*
%TD*%
D21*
%TO.C,J1*%
X94450000Y-52350000D03*
D20*
X94450000Y-49850000D03*
%TD*%
D22*
%TO.C,J16*%
X75450000Y-99250000D03*
D23*
X75450000Y-96750000D03*
X75450000Y-94250000D03*
%TD*%
D22*
%TO.C,J2*%
X75450000Y-75600000D03*
D23*
X75450000Y-73100000D03*
X75450000Y-70600000D03*
%TD*%
D24*
%TO.C,J14*%
X124550000Y-93050000D03*
D23*
X124550000Y-95550000D03*
X124550000Y-98050000D03*
%TD*%
D25*
%TO.C,J9*%
X114300000Y-121050000D03*
D26*
X111800000Y-121050000D03*
%TD*%
D21*
%TO.C,J5*%
X75450000Y-107950000D03*
D20*
X75450000Y-105450000D03*
%TD*%
D24*
%TO.C,J6*%
X124500000Y-69000000D03*
D23*
X124500000Y-71500000D03*
X124500000Y-74000000D03*
%TD*%
D21*
%TO.C,J3*%
X75435000Y-84410000D03*
D20*
X75435000Y-81910000D03*
%TD*%
D25*
%TO.C,J7*%
X87500000Y-121050000D03*
D26*
X85000000Y-121050000D03*
%TD*%
D27*
%TO.C,J8*%
X78850000Y-121050000D03*
D28*
X76350000Y-121050000D03*
X73850000Y-121050000D03*
%TD*%
D24*
%TO.C,J12*%
X124550000Y-116150000D03*
D23*
X124550000Y-118650000D03*
X124550000Y-121150000D03*
%TD*%
D19*
%TO.C,J13*%
X124550000Y-84350000D03*
D20*
X124550000Y-86850000D03*
%TD*%
D27*
%TO.C,J10*%
X105550000Y-121050000D03*
D28*
X103050000Y-121050000D03*
X100550000Y-121050000D03*
%TD*%
D19*
%TO.C,J11*%
X124550000Y-107350000D03*
D20*
X124550000Y-109850000D03*
%TD*%
%LPD*%
M02*
