M48
; DRILL file {KiCad 9.0.5} date 2026-04-12T18:24:23-0400
; FORMAT={-:-/ absolute / inch / decimal}
; #@! TF.CreationDate,2026-04-12T18:24:23-04:00
; #@! TF.GenerationSoftware,Kicad,Pcbnew,9.0.5
; #@! TF.FileFunction,Plated,1,2,PTH
FMAT,2
INCH
; #@! TA.AperFunction,Plated,PTH,ViaDrill
T1C0.0098
; #@! TA.AperFunction,Plated,PTH,ComponentDrill
T2C0.0098
; #@! TA.AperFunction,Plated,PTH,ComponentDrill
T3C0.0236
; #@! TA.AperFunction,Plated,PTH,ComponentDrill
T4C0.0315
; #@! TA.AperFunction,Plated,PTH,ComponentDrill
T5C0.0374
; #@! TA.AperFunction,Plated,PTH,ComponentDrill
T6C0.0394
%
G90
G05
T1
X3.0571Y-2.9508
X3.0787Y-4.6555
X3.0984Y-3.8819
X3.2598Y-3.189
X3.2884Y-3.0354
X3.3711Y-2.8366
X3.3819Y-2.7323
X3.436Y-2.8386
X3.4862Y-2.9035
X3.5689Y-3.4961
X3.6161Y-3.8937
X3.626Y-4.001
X3.6329Y-3.7933
X3.6378Y-3.0433
X3.6906Y-2.9469
X3.6949Y-1.3181
X3.7146Y-3.8937
X3.726Y-1.615
X3.7283Y-1.8618
X3.7344Y-1.6378
X3.7598Y-2.189
X3.7622Y-1.5197
X3.7799Y-2.1382
X3.7913Y-3.0098
X3.7953Y-4.4114
X3.7982Y-4.31
X3.815Y-2.2721
X3.8366Y-3.5768
X3.8406Y-4.2293
X3.8524Y-3.9055
X3.8543Y-2.8878
X3.8559Y-1.9085
X3.8591Y-1.4327
X3.8681Y-3.2638
X3.874Y-3.4193
X3.8997Y-2.2421
X3.937Y-1.5935
X3.937Y-4.0217
X3.937Y-4.1752
X3.9606Y-3.7067
X3.9606Y-3.7333
X3.9606Y-3.8524
X3.9685Y-4.2431
X4.0087Y-1.439
X4.0207Y-4.31
X4.0217Y-3.9203
X4.0236Y-4.4783
X4.06Y-3.7165
X4.06Y-3.7392
X4.065Y-1.5555
X4.0881Y-3.789
X4.1079Y-1.6346
X4.1319Y-4.6555
X4.1639Y-3.9325
X4.1831Y-1.4764
X4.1998Y-4.0896
X4.2116Y-3.7982
X4.2116Y-3.8435
X4.2283Y-4.4843
X4.2303Y-4.3917
X4.2677Y-3.937
X4.2677Y-3.9764
X4.5098Y-4.5039
X4.5512Y-2.7677
X4.7638Y-2.7894
X4.7697Y-3.686
X4.7756Y-4.5965
T2
X3.8829Y-3.8829
X3.8829Y-3.937
X3.8829Y-3.9911
X3.937Y-3.8829
X3.937Y-3.937
X3.937Y-3.9911
X3.9911Y-3.8829
X3.9911Y-3.937
X3.9911Y-3.9911
T4
X3.1798Y-2.7323
X3.2783Y-2.7323
X4.3747Y-2.8465
X4.4731Y-2.8465
T5
X2.9075Y-4.7657
X2.9705Y-2.7795
X2.9705Y-2.878
X2.9705Y-2.9764
X2.9705Y-3.7106
X2.9705Y-3.8091
X2.9705Y-3.9075
X3.0059Y-4.7657
X3.1043Y-4.7657
X3.9587Y-4.7657
X4.0571Y-4.7657
X4.1555Y-4.7657
X4.9016Y-2.7165
X4.9016Y-2.815
X4.9016Y-2.9134
X4.9035Y-3.6634
X4.9035Y-3.7618
X4.9035Y-3.8602
X4.9035Y-4.5728
X4.9035Y-4.6713
X4.9035Y-4.7697
T6
X2.9699Y-3.2248
X2.9699Y-3.3232
X2.9705Y-4.1516
X2.9705Y-4.25
X3.3465Y-4.7657
X3.4449Y-4.7657
X3.7185Y-1.9626
X3.7185Y-2.061
X4.1476Y-1.9636
X4.1476Y-2.062
X4.4016Y-4.7657
X4.5Y-4.7657
X4.9035Y-3.3209
X4.9035Y-3.4193
X4.9035Y-4.2264
X4.9035Y-4.3248
T3
G00X3.7669Y-1.3031
M15
G01X3.7669Y-1.2795
M16
G05
G00X3.7669Y-1.4776
M15
G01X3.7669Y-1.4343
M16
G05
G00X4.1071Y-1.3031
M15
G01X4.1071Y-1.2795
M16
G05
G00X4.1071Y-1.4776
M15
G01X4.1071Y-1.4343
M16
G05
M30
